{
.appVersion = "1352";
copyright = "Copyright 2004 The Inspiration Project Authors (https://github.com/googlefonts/inspiration)";
customParameters = (
{
name = panose;
value = (
2,
0,
5,
3,
2,
0,
0,
2,
0,
2
);
},
{
name = blueScale;
value = 0.24924;
},
{
name = licenseURL;
value = "https://scripts.sil.org/OFL";
},
{
name = license;
value = "This Font Software is licensed under the SIL Open Font License, Version 1.1. This license is available with a FAQ at: https://scripts.sil.org/OFL";
},
{
name = vendorID;
value = GOOG;
},
{
name = "Disable Subroutines";
value = 1;
},
{
name = glyphOrder;
value = (
.notdef,
CR,
NULL,
space,
nbspace
);
},
{
name = fsType;
value = (
);
},
{
name = "Use Typo Metrics";
value = 1;
}
);
date = "2021-11-18 16:16:27 +0000";
designer = "Robert E. Leuschke";
designerURL = www.typesetit.com;
disablesNiceNames = 1;
familyName = Inspiration;
featurePrefixes = (
{
automatic = 1;
code = "languagesystem DFLT dflt;\012\012languagesystem latn dflt;\012languagesystem latn AZE;\012languagesystem latn CRT;\012languagesystem latn KAZ;\012languagesystem latn TAT;\012languagesystem latn TRK;\012languagesystem latn ROM;\012languagesystem latn MOL;\012languagesystem latn CAT;\012";
name = Languagesystems;
}
);
features = (
{
automatic = 1;
code = "feature locl;\012feature sups;\012feature frac;\012feature ordn;\012feature salt;\012feature ss01;\012feature ss02;\012feature calt;\012";
name = aalt;
},
{
automatic = 1;

glyphs = (
{
glyphname = A;
layers = (
{
hints = (
{
horizontal = 1;
place = "{-229, 14}";
type = Stem;
},
{
horizontal = 1;
place = "{-142, 11}";
type = Stem;
},
{
horizontal = 1;
place = "{-11, 16}";
type = Stem;
},
{
horizontal = 1;
place = "{733, 12}";
type = Stem;
},
{
place = "{-3, 39}";
type = Stem;
},
{
place = "{457, 35}";
type = Stem;
}
);
layerId = "197ECFA8-A16D-41AC-99D0-22A54F6A6421";
paths = (
{
closed = 1;
nodes = (
"457 204 OFFCURVE",
"385 192 OFFCURVE",
"324 178 CURVE",
"341 208 OFFCURVE",
"357 238 OFFCURVE",
"372 268 CURVE SMOOTH",
"399 322 OFFCURVE",
"459 456 OFFCURVE",
"483 568 CURVE",
"496 417 OFFCURVE",
"500 176 OFFCURVE",
"567 69 CURVE SMOOTH",
"601 14 OFFCURVE",
"652 -47 OFFCURVE",
"732 17 CURVE SMOOTH",
"747 28 OFFCURVE",
"786 73 OFFCURVE",
"795 100 CURVE SMOOTH",
"797 109 OFFCURVE",
"786 129 OFFCURVE",
"775 105 CURVE SMOOTH",
"759 70 OFFCURVE",
"740 37 OFFCURVE",
"719 20 CURVE SMOOTH",
"668 -21 OFFCURVE",
"632 38 OFFCURVE",
"619 59 CURVE SMOOTH",
"540 186 OFFCURVE",
"517 489 OFFCURVE",
"498 595 CURVE SMOOTH",
"497 603 OFFCURVE",
"494 609 OFFCURVE",
"490 612 CURVE",
"499 692 OFFCURVE",
"482 752 OFFCURVE",
"406 745 CURVE SMOOTH",
"393 744 OFFCURVE",
"392 732 OFFCURVE",
"405 733 CURVE SMOOTH",
"542 742 OFFCURVE",
"369 336 OFFCURVE",
"345 284 CURVE SMOOTH",
"328 247 OFFCURVE",
"309 209 OFFCURVE",
"289 171 CURVE",
"231 156 OFFCURVE",
"158 132 OFFCURVE",
"108 101 CURVE SMOOTH",
"-24 22 OFFCURVE",
"-26 -54 OFFCURVE",
"37 -98 CURVE SMOOTH",
"47 -105 OFFCURVE",
"73 -119 OFFCURVE",
"86 -123 CURVE",
"34 -176 OFFCURVE",
"-19 -210 OFFCURVE",
"-69 -214 CURVE SMOOTH",
"-95 -217 OFFCURVE",
"-108 -208 OFFCURVE",
"-106 -170 CURVE",
"-110 -173 OFFCURVE",
"-113 -183 OFFCURVE",
"-113 -187 CURVE",
"-118 -220 OFFCURVE",
"-100 -231 OFFCURVE",
"-70 -229 CURVE SMOOTH",
"-15 -224 OFFCURVE",
"45 -186 OFFCURVE",
"104 -129 CURVE",
"135 -138 OFFCURVE",
"171 -143 OFFCURVE",
"209 -142 CURVE SMOOTH",
"223 -142 OFFCURVE",
"226 -131 OFFCURVE",
"211 -132 CURVE SMOOTH",
"172 -132 OFFCURVE",
"139 -128 OFFCURVE",
"114 -120 CURVE",
"188 -47 OFFCURVE",
"248 51 OFFCURVE",
"310 156 CURVE",
"368 172 OFFCURVE",
"439 186 OFFCURVE",
"497 197 CURVE SMOOTH",
"512 200 OFFCURVE",
"523 218 OFFCURVE",
"508 215 CURVE SMOOTH"
);
},
{
closed = 1;
nodes = (
"221 46 OFFCURVE",
"160 -46 OFFCURVE",
"96 -113 CURVE",
"84 -107 OFFCURVE",
"62 -89 OFFCURVE",
"55 -81 CURVE",
"31 -47 OFFCURVE",
"23 -5 OFFCURVE",
"74 39 CURVE SMOOTH",
"104 65 OFFCURVE",
"187 106 OFFCURVE",
"221 123 CURVE SMOOTH",
"238 132 OFFCURVE",
"257 138 OFFCURVE",
"275 144 CURVE"
);
}
);
width = 754;
}
);
note = A;
unicode = 0041;
},
{
glyphname = AE;
layers = (
{
hints = (
{
horizontal = 1;
place = "{-229, 14}";
type = Stem;
},
{
horizontal = 1;
place = "{-142, 11}";
type = Stem;
},
{
horizontal = 1;
place = "{-69, 25}";
type = Stem;
},
{
horizontal = 1;
place = "{554, 158}";
type = Stem;
},
{
horizontal = 1;
place = "{733, 12}";
type = Stem;
},
{
place = "{-3, 39}";
type = Stem;
},
{
place = "{457, 35}";
type = Stem;
},
{
place = "{1059, 37}";
type = Stem;
}
);
layerId = "197ECFA8-A16D-41AC-99D0-22A54F6A6421";
paths = (
{
closed = 1;
nodes = (
"221 46 OFFCURVE",
"160 -46 OFFCURVE",
"96 -113 CURVE",
"84 -107 OFFCURVE",
"62 -89 OFFCURVE",
"55 -81 CURVE",
"31 -47 OFFCURVE",
"23 -5 OFFCURVE",
"74 39 CURVE SMOOTH",
"104 65 OFFCURVE",
"187 106 OFFCURVE",
"221 123 CURVE SMOOTH",
"238 132 OFFCURVE",
"257 138 OFFCURVE",
"275 144 CURVE"
);
},
{
closed = 1;
nodes = (
"544 287 LINE",
"545 287 LINE",
"545 286 LINE"
);
},
{
closed = 1;
nodes = (
"457 204 OFFCURVE",
"385 192 OFFCURVE",
"324 178 CURVE",
"341 208 OFFCURVE",
"357 238 OFFCURVE",
"372 268 CURVE SMOOTH",
"399 322 OFFCURVE",
"459 456 OFFCURVE",
"483 568 CURVE",
"494 443 OFFCURVE",
"509 248 OFFCURVE",
"543 131 CURVE",
"617 -192 OFFCURVE",
"1034 -74 OFFCURVE",
"1107 138 CURVE SMOOTH",
"1116 164 OFFCURVE",
"1102 169 OFFCURVE",
"1090 141 CURVE SMOOTH",
"980 -110 OFFCURVE",
"529 -145 OFFCURVE",
"590 290 CURVE",
"620 296 OFFCURVE",
"652 306 OFFCURVE",
"675 311 CURVE SMOOTH",
"962 374 OFFCURVE",
"1150 445 OFFCURVE",
"675 340 CURVE SMOOTH",
"654 335 OFFCURVE",
"625 331 OFFCURVE",
"599 329 CURVE",
"709 701 OFFCURVE",
"1146 758 OFFCURVE",
"1044 580 CURVE SMOOTH",
"1015 529 OFFCURVE",
"1075 558 OFFCURVE",
"1093 628 CURVE SMOOTH",
"1142 826 OFFCURVE",
"653 655 OFFCURVE",
"559 327 CURVE",
"551 327 OFFCURVE",
"544 324 OFFCURVE",
"539 319 CURVE",
"519 429 OFFCURVE",
"508 539 OFFCURVE",
"498 595 CURVE SMOOTH",
"497 603 OFFCURVE",
"494 609 OFFCURVE",
"490 612 CURVE",
"499 692 OFFCURVE",
"482 752 OFFCURVE",
"406 745 CURVE SMOOTH",
"393 744 OFFCURVE",
"392 732 OFFCURVE",
"405 733 CURVE SMOOTH",
"542 742 OFFCURVE",
"369 336 OFFCURVE",
"345 284 CURVE SMOOTH",
"328 247 OFFCURVE",
"309 209 OFFCURVE",
"289 171 CURVE",
"231 156 OFFCURVE",
"158 132 OFFCURVE",
"108 101 CURVE SMOOTH",
"-24 22 OFFCURVE",
"-26 -54 OFFCURVE",
"37 -98 CURVE SMOOTH",
"47 -105 OFFCURVE",
"73 -119 OFFCURVE",
"86 -123 CURVE",
"34 -176 OFFCURVE",
"-19 -210 OFFCURVE",
"-69 -214 CURVE SMOOTH",
"-95 -217 OFFCURVE",
"-108 -208 OFFCURVE",
"-106 -170 CURVE",
"-110 -173 OFFCURVE",
"-113 -183 OFFCURVE",
"-113 -187 CURVE",
"-118 -220 OFFCURVE",
"-100 -231 OFFCURVE",
"-70 -229 CURVE SMOOTH",
"-15 -224 OFFCURVE",
"45 -186 OFFCURVE",
"104 -129 CURVE",
"135 -138 OFFCURVE",
"171 -143 OFFCURVE",
"209 -142 CURVE SMOOTH",
"223 -142 OFFCURVE",
"226 -131 OFFCURVE",
"211 -132 CURVE SMOOTH",
"172 -132 OFFCURVE",
"139 -128 OFFCURVE",
"114 -120 CURVE",
"188 -47 OFFCURVE",
"248 51 OFFCURVE",
"310 156 CURVE",
"368 172 OFFCURVE",
"439 186 OFFCURVE",
"497 197 CURVE SMOOTH",
"512 200 OFFCURVE",
"523 218 OFFCURVE",
"508 215 CURVE SMOOTH"
);
}
);
width = 1121;
}
);
note = AE;
unicode = 00C6;
},
{
glyphname = B;
layers = (
{
hints = (
{
horizontal = 1;
place = "{-375, 27}";
type = Stem;
},
{
horizontal = 1;
place = "{-57, 14}";
type = Stem;
},
{
horizontal = 1;
place = "{204, 17}";
type = Stem;
},
{
horizontal = 1;
place = "{451, 14}";
type = Stem;
},
{
horizontal = 1;
place = "{737, 18}";
type = Stem;
},
{
place = "{-20, 42}";
type = Stem;
},
{
place = "{579, 33}";
type = Stem;
},
{
place = "{669, 43}";
type = Stem;
}
);
layerId = "197ECFA8-A16D-41AC-99D0-22A54F6A6421";
paths = (
{
closed = 1;
nodes = (
"-44 -70 OFFCURVE",
"3 64 OFFCURVE",
"160 146 CURVE",
"149 79 OFFCURVE",
"145 18 OFFCURVE",
"147 -38 CURVE"
);
},
{
closed = 1;
nodes = (
"395 644 OFFCURVE",
"354 662 OFFCURVE",
"339 635 CURVE SMOOTH",
"243 458 OFFCURVE",
"188 299 OFFCURVE",
"163 163 CURVE",
"-37 74 OFFCURVE",
"-116 -81 OFFCURVE",
"148 -53 CURVE",
"160 -290 OFFCURVE",
"279 -410 OFFCURVE",
"385 -366 CURVE SMOOTH",
"406 -357 OFFCURVE",
"374 -325 OFFCURVE",
"358 -343 CURVE SMOOTH",
"339 -364 OFFCURVE",
"162 -331 OFFCURVE",
"169 -51 CURVE",
"370 -23 OFFCURVE",
"546 93 OFFCURVE",
"642 212 CURVE SMOOTH",
"763 360 OFFCURVE",
"744 504 OFFCURVE",
"441 455 CURVE",
"791 697 OFFCURVE",
"536 842 OFFCURVE",
"271 699 CURVE SMOOTH",
"155 636 OFFCURVE",
"42 519 OFFCURVE",
"52 439 CURVE SMOOTH",
"57 399 OFFCURVE",
"92 398 OFFCURVE",
"87 443 CURVE SMOOTH",
"80 498 OFFCURVE",
"154 619 OFFCURVE",
"272 683 CURVE SMOOTH",
"528 821 OFFCURVE",
"771 681 OFFCURVE",
"352 444 CURVE SMOOTH",
"331 432 OFFCURVE",
"343 415 OFFCURVE",
"365 423 CURVE SMOOTH",
"505 476 OFFCURVE",
"785 473 OFFCURVE",
"616 246 CURVE SMOOTH",
"527 125 OFFCURVE",
"376 11 OFFCURVE",
"170 -33 CURVE",
"173 23 OFFCURVE",
"183 89 OFFCURVE",
"203 166 CURVE",
"255 186 OFFCURVE",
"315 201 OFFCURVE",
"380 205 CURVE SMOOTH",
"427 207 OFFCURVE",
"431 222 OFFCURVE",
"407 221 CURVE SMOOTH",
"336 218 OFFCURVE",
"267 202 OFFCURVE",
"207 180 CURVE",
"239 298 OFFCURVE",
"294 441 OFFCURVE",
"380 613 CURVE SMOOTH"
);
}
);
width = 697;
}
);
note = B;
unicode = 0042;
},
{
glyphname = C;
layers = (
{
hints = (
{
horizontal = 1;
place = "{326, 13}";
type = Stem;
},
{
horizontal = 1;
place = "{674, 17}";
type = Stem;
},
{
place = "{-2, 48}";
type = Stem;
},
{
place = "{455, 40}";
type = Stem;
},
{
place = "{506, 17}";
type = Stem;
}
);
layerId = "197ECFA8-A16D-41AC-99D0-22A54F6A6421";
paths = (
{
closed = 1;
nodes = (
"309 338 OFFCURVE",
"299 325 OFFCURVE",
"317 325 CURVE SMOOTH",
"541 331 OFFCURVE",
"578 691 OFFCURVE",
"288 691 CURVE SMOOTH",
"-150 691 OFFCURVE",
"-61 -153 OFFCURVE",
"349 -113 CURVE SMOOTH",
"474 -101 OFFCURVE",
"565 14 OFFCURVE",
"504 191 CURVE SMOOTH",
"498 207 OFFCURVE",
"488 204 OFFCURVE",
"492 187 CURVE SMOOTH",
"540 10 OFFCURVE",
"458 -83 OFFCURVE",
"357 -95 CURVE SMOOTH",
"8 -135 OFFCURVE",
"-87 675 OFFCURVE",
"280 675 CURVE SMOOTH",
"516 675 OFFCURVE",
"496 343 OFFCURVE",
"327 339 CURVE SMOOTH"
);
}
);
width = 535;
}
);
note = C;
unicode = 0043;
},
{
glyphname = D;
layers = (
{
hints = (
{
horizontal = 1;
place = "{-122, 23}";
type = Stem;
},
{
horizontal = 1;
place = "{-79, 19}";
type = Stem;
},
{
horizontal = 1;
place = "{179, 15}";
type = Stem;
},
{
horizontal = 1;
place = "{670, 24}";
type = Stem;
},
{
horizontal = 1;
place = "{744, -20}";
target = down;
type = TopGhost;
},
{
place = "{-27, 50}";
type = Stem;
},
{
place = "{206, 30}";
type = Stem;
},
{
place = "{663, 52}";
type = Stem;
}
);
layerId = "197ECFA8-A16D-41AC-99D0-22A54F6A6421";
paths = (
{
closed = 1;
nodes = (
"46 -92 OFFCURVE",
"-33 -7 OFFCURVE",
"68 82 CURVE SMOOTH",
"88 100 OFFCURVE",
"114 117 OFFCURVE",
"146 133 CURVE",
"155 56 OFFCURVE",
"177 -5 OFFCURVE",
"205 -48 CURVE"
);
},
{
closed = 1;
nodes = (
"296 642 OFFCURVE",
"319 649 OFFCURVE",
"342 655 CURVE SMOOTH",
"774 765 OFFCURVE",
"770 262 OFFCURVE",
"326 5 CURVE SMOOTH",
"290 -16 OFFCURVE",
"256 -31 OFFCURVE",
"225 -42 CURVE",
"196 -5 OFFCURVE",
"172 53 OFFCURVE",
"168 142 CURVE",
"233 169 OFFCURVE",
"317 186 OFFCURVE",
"408 179 CURVE SMOOTH",
"455 176 OFFCURVE",
"460 191 OFFCURVE",
"437 193 CURVE SMOOTH",
"339 200 OFFCURVE",
"245 184 OFFCURVE",
"168 158 CURVE",
"166 267 OFFCURVE",
"193 420 OFFCURVE",
"274 633 CURVE"
);
},
{
closed = 1;
nodes = (
"317 742 OFFCURVE",
"282 755 OFFCURVE",
"271 731 CURVE SMOOTH",
"256 700 OFFCURVE",
"243 669 OFFCURVE",
"232 639 CURVE",
"131 598 OFFCURVE",
"41 537 OFFCURVE",
"-12 476 CURVE SMOOTH",
"-86 391 OFFCURVE",
"-30 389 OFFCURVE",
"-12 419 CURVE SMOOTH",
"33 490 OFFCURVE",
"121 561 OFFCURVE",
"220 610 CURVE",
"152 425 OFFCURVE",
"134 269 OFFCURVE",
"145 149 CURVE",
"112 137 OFFCURVE",
"83 122 OFFCURVE",
"59 107 CURVE SMOOTH",
"-111 -1 OFFCURVE",
"-13 -127 OFFCURVE",
"214 -60 CURVE",
"258 -118 OFFCURVE",
"315 -137 OFFCURVE",
"368 -111 CURVE SMOOTH",
"401 -95 OFFCURVE",
"364 -68 OFFCURVE",
"345 -93 CURVE SMOOTH",
"336 -104 OFFCURVE",
"281 -103 OFFCURVE",
"235 -54 CURVE",
"264 -44 OFFCURVE",
"295 -31 OFFCURVE",
"328 -15 CURVE SMOOTH",
"806 224 OFFCURVE",
"876 804 OFFCURVE",
"342 676 CURVE SMOOTH",
"323 671 OFFCURVE",
"303 665 OFFCURVE",
"284 659 CURVE",
"291 677 OFFCURVE",
"298 696 OFFCURVE",
"306 715 CURVE SMOOTH"
);
}
);
width = 697;
}
);
note = D;
unicode = 0044;
},
{
glyphname = Eth;
layers = (
{
hints = (
{
horizontal = 1;
place = "{-122, 23}";
type = Stem;
},
{
horizontal = 1;
place = "{-79, 19}";
type = Stem;
},
{
horizontal = 1;
place = "{179, 15}";
type = Stem;
},
{
horizontal = 1;
place = "{670, 24}";
type = Stem;
},
{
horizontal = 1;
place = "{744, -20}";
target = down;
type = TopGhost;
},
{
place = "{-27, 50}";
type = Stem;
},
{
place = "{206, 30}";
type = Stem;
},
{
place = "{663, 52}";
type = Stem;
}
);
layerId = "197ECFA8-A16D-41AC-99D0-22A54F6A6421";
paths = (
{
closed = 1;
nodes = (
"306 715 LINE SMOOTH",
"317 742 OFFCURVE",
"282 755 OFFCURVE",
"271 731 CURVE SMOOTH",
"256 700 OFFCURVE",
"243 669 OFFCURVE",
"232 639 CURVE",
"131 598 OFFCURVE",
"41 537 OFFCURVE",
"-12 476 CURVE SMOOTH",
"-86 391 OFFCURVE",
"-30 389 OFFCURVE",
"-12 419 CURVE SMOOTH",
"33 490 OFFCURVE",
"121 561 OFFCURVE",
"220 610 CURVE",
"181 504 OFFCURVE",
"158 407 OFFCURVE",
"148 322 CURVE",
"127 321 OFFCURVE",
"104 319 OFFCURVE",
"79 316 CURVE SMOOTH",
"72 315 OFFCURVE",
"92 290 OFFCURVE",
"98 291 CURVE SMOOTH",
"113 292 OFFCURVE",
"129 294 OFFCURVE",
"145 296 CURVE",
"140 242 OFFCURVE",
"141 193 OFFCURVE",
"145 149 CURVE",
"112 137 OFFCURVE",
"83 122 OFFCURVE",
"59 107 CURVE SMOOTH",
"-111 -1 OFFCURVE",
"-13 -127 OFFCURVE",
"214 -60 CURVE",
"258 -118 OFFCURVE",
"315 -137 OFFCURVE",
"368 -111 CURVE SMOOTH",
"401 -95 OFFCURVE",
"364 -68 OFFCURVE",
"345 -93 CURVE SMOOTH",
"336 -104 OFFCURVE",
"281 -103 OFFCURVE",
"235 -54 CURVE",
"264 -44 OFFCURVE",
"295 -31 OFFCURVE",
"328 -15 CURVE SMOOTH",
"806 224 OFFCURVE",
"876 804 OFFCURVE",
"342 676 CURVE SMOOTH",
"323 671 OFFCURVE",
"303 665 OFFCURVE",
"284 659 CURVE"
);
},
{
closed = 1;
nodes = (
"262 316 OFFCURVE",
"228 322 OFFCURVE",
"183 322 CURVE",
"198 408 OFFCURVE",
"227 510 OFFCURVE",
"274 633 CURVE",
"296 642 OFFCURVE",
"319 649 OFFCURVE",
"342 655 CURVE SMOOTH",
"774 765 OFFCURVE",
"770 262 OFFCURVE",
"326 5 CURVE SMOOTH",
"290 -16 OFFCURVE",
"256 -31 OFFCURVE",
"225 -42 CURVE",
"196 -5 OFFCURVE",
"172 53 OFFCURVE",
"168 142 CURVE",
"233 169 OFFCURVE",
"317 186 OFFCURVE",
"408 179 CURVE SMOOTH",
"455 176 OFFCURVE",
"460 191 OFFCURVE",
"437 193 CURVE SMOOTH",
"339 200 OFFCURVE",
"245 184 OFFCURVE",
"168 158 CURVE",
"167 198 OFFCURVE",
"170 245 OFFCURVE",
"179 298 CURVE",
"216 301 OFFCURVE",
"251 302 OFFCURVE",
"279 302 CURVE SMOOTH",
"285 302 OFFCURVE",
"288 309 OFFCURVE",
"282 311 CURVE SMOOTH"
);
},
{
closed = 1;
nodes = (
"46 -92 OFFCURVE",
"-33 -7 OFFCURVE",
"68 82 CURVE SMOOTH",
"88 100 OFFCURVE",
"114 117 OFFCURVE",
"146 133 CURVE",
"155 56 OFFCURVE",
"177 -5 OFFCURVE",
"205 -48 CURVE"
);
}
);
width = 697;
}
);
note = Eth;
unicode = 00D0;
},
{
glyphname = E;
layers = (
{
hints = (
{
horizontal = 1;
place = "{-66, 22}";
type = Stem;
},
{
horizontal = 1;
place = "{554, 158}";
type = Stem;
},
{
place = "{36, 46}";
type = Stem;
},
{
place = "{557, 37}";
type = Stem;
}
);
layerId = "197ECFA8-A16D-41AC-99D0-22A54F6A6421";
paths = (
{
closed = 1;
nodes = (
"615 164 OFFCURVE",
"600 169 OFFCURVE",
"588 141 CURVE SMOOTH",
"486 -93 OFFCURVE",
"24 -164 OFFCURVE",
"88 290 CURVE",
"118 296 OFFCURVE",
"150 306 OFFCURVE",
"173 311 CURVE SMOOTH",
"460 374 OFFCURVE",
"649 445 OFFCURVE",
"173 340 CURVE SMOOTH",
"152 335 OFFCURVE",
"123 331 OFFCURVE",
"98 329 CURVE",
"207 701 OFFCURVE",
"644 758 OFFCURVE",
"543 580 CURVE SMOOTH",
"514 529 OFFCURVE",
"574 558 OFFCURVE",
"591 628 CURVE SMOOTH",
"641 826 OFFCURVE",
"152 655 OFFCURVE",
"57 327 CURVE",
"39 328 OFFCURVE",
"25 331 OFFCURVE",
"17 338 CURVE SMOOTH",
"8 348 OFFCURVE",
"-3 327 OFFCURVE",
"-3 308 CURVE SMOOTH",
"-2 278 OFFCURVE",
"17 289 OFFCURVE",
"43 287 CURVE",
"-34 -213 OFFCURVE",
"522 -104 OFFCURVE",
"606 138 CURVE SMOOTH"
);
}
);
width = 543;
}
);
note = E;
unicode = 0045;
},
{
glyphname = F;
layers = (
{
hints = (
{
horizontal = 1;
place = "{-165, 11}";
type = Stem;
},
{
horizontal = 1;
place = "{314, 13}";
type = Stem;
},
{
horizontal = 1;
place = "{641, 79}";
type = Stem;
},
{
place = "{-12, 20}";
type = Stem;
},
{
place = "{79, 20}";
type = Stem;
}
);
layerId = "197ECFA8-A16D-41AC-99D0-22A54F6A6421";
paths = (
{
closed = 1;
nodes = (
"272 227 OFFCURVE",
"286 190 OFFCURVE",
"301 203 CURVE SMOOTH",
"341 236 OFFCURVE",
"384 264 OFFCURVE",
"431 284 CURVE",
"431 275 LINE SMOOTH",
"432 142 OFFCURVE",
"414 13 OFFCURVE",
"385 -49 CURVE SMOOTH",
"338 -150 OFFCURVE",
"251 -206 OFFCURVE",
"162 -86 CURVE SMOOTH",
"105 -7 OFFCURVE",
"75 126 OFFCURVE",
"124 223 CURVE SMOOTH",
"145 264 OFFCURVE",
"121 238 OFFCURVE",
"114 225 CURVE SMOOTH",
"100 199 OFFCURVE",
"86 156 OFFCURVE",
"82 125 CURVE SMOOTH",
"73 57 OFFCURVE",
"85 -27 OFFCURVE",
"128 -84 CURVE SMOOTH",
"269 -270 OFFCURVE",
"435 -103 OFFCURVE",
"459 111 CURVE SMOOTH",
"463 149 OFFCURVE",
"467 218 OFFCURVE",
"465 297 CURVE",
"501 308 OFFCURVE",
"539 314 OFFCURVE",
"580 314 CURVE SMOOTH",
"619 314 OFFCURVE",
"605 327 OFFCURVE",
"585 327 CURVE SMOOTH",
"543 327 OFFCURVE",
"503 324 OFFCURVE",
"465 316 CURVE",
"461 431 OFFCURVE",
"446 560 OFFCURVE",
"404 641 CURVE",
"561 636 OFFCURVE",
"709 589 OFFCURVE",
"731 510 CURVE SMOOTH",
"737 491 OFFCURVE",
"751 496 OFFCURVE",
"745 516 CURVE SMOOTH",
"710 640 OFFCURVE",
"502 674 OFFCURVE",
"380 677 CURVE",
"331 736 OFFCURVE",
"247 723 OFFCURVE",
"270 703 CURVE SMOOTH",
"281 694 OFFCURVE",
"301 709 OFFCURVE",
"330 677 CURVE",
"199 672 OFFCURVE",
"-12 612 OFFCURVE",
"-12 449 CURVE SMOOTH",
"-12 417 OFFCURVE",
"-7 383 OFFCURVE",
"16 357 CURVE SMOOTH",
"29 343 OFFCURVE",
"42 353 OFFCURVE",
"28 367 CURVE SMOOTH",
"13 384 OFFCURVE",
"8 409 OFFCURVE",
"8 439 CURVE SMOOTH",
"8 577 OFFCURVE",
"175 638 OFFCURVE",
"355 641 CURVE",
"356 640 LINE",
"396 565 OFFCURVE",
"428 437 OFFCURVE",
"431 308 CURVE",
"380 294 OFFCURVE",
"333 272 OFFCURVE",
"288 238 CURVE SMOOTH"
);
}
);
width = 579;
}
);
note = F;
unicode = 0046;
},
{
glyphname = G;
layers = (
{
hints = (
{
horizontal = 1;
place = "{-124, 17}";
type = Stem;
},
{
horizontal = 1;
place = "{342, 13}";
type = Stem;
},
{
horizontal = 1;
place = "{666, 23}";
type = Stem;
},
{
place = "{18, 47}";
type = Stem;
},
{
place = "{344, 27}";
type = Stem;
},
{
place = "{494, 35}";
type = Stem;
}
);
layerId = "197ECFA8-A16D-41AC-99D0-22A54F6A6421";
paths = (
{
closed = 1;
nodes = (
"183 120 OFFCURVE",
"186 80 OFFCURVE",
"204 88 CURVE SMOOTH",
"248 106 OFFCURVE",
"292 120 OFFCURVE",
"338 126 CURVE",
"360 -4 OFFCURVE",
"325 -124 OFFCURVE",
"226 -106 CURVE SMOOTH",
"109 -84 OFFCURVE",
"65 59 OFFCURVE",
"65 216 CURVE SMOOTH",
"65 443 OFFCURVE",
"225 687 OFFCURVE",
"394 664 CURVE SMOOTH",
"593 638 OFFCURVE",
"455 322 OFFCURVE",
"326 358 CURVE SMOOTH",
"309 363 OFFCURVE",
"296 353 OFFCURVE",
"313 348 CURVE SMOOTH",
"527 289 OFFCURVE",
"633 692 OFFCURVE",
"389 689 CURVE SMOOTH",
"200 687 OFFCURVE",
"18 445 OFFCURVE",
"18 219 CURVE SMOOTH",
"18 56 OFFCURVE",
"77 -93 OFFCURVE",
"214 -121 CURVE SMOOTH",
"336 -146 OFFCURVE",
"410 -27 OFFCURVE",
"351 128 CURVE",
"400 133 OFFCURVE",
"452 129 OFFCURVE",
"504 113 CURVE SMOOTH",
"541 102 OFFCURVE",
"532 118 OFFCURVE",
"513 124 CURVE SMOOTH",
"402 158 OFFCURVE",
"304 163 OFFCURVE",
"202 126 CURVE SMOOTH"
);
}
);
width = 498;
}
);
note = G;
unicode = 0047;
},
{
glyphname = H;
layers = (
{
hints = (
{
horizontal = 1;
place = "{659, 19}";
type = Stem;
},
{
place = "{-5, 31}";
type = Stem;
},
{
place = "{267, 29}";
type = Stem;
},
{
place = "{445, 33}";
type = Stem;
},
{
place = "{752, 16}";
type = Stem;
}
);
layerId = "197ECFA8-A16D-41AC-99D0-22A54F6A6421";
paths = (
{
closed = 1;
nodes = (
"321 771 OFFCURVE",
"203 402 OFFCURVE",
"307 359 CURVE SMOOTH",
"327 351 OFFCURVE",
"356 365 OFFCURVE",
"344 368 CURVE SMOOTH",
"336 370 OFFCURVE",
"326 357 OFFCURVE",
"311 378 CURVE SMOOTH",
"275 427 OFFCURVE",
"308 630 OFFCURVE",
"368 677 CURVE SMOOTH",
"382 688 OFFCURVE",
"398 692 OFFCURVE",
"411 677 CURVE SMOOTH",
"467 613 OFFCURVE",
"446 434 OFFCURVE",
"400 271 CURVE SMOOTH",
"393 247 OFFCURVE",
"386 224 OFFCURVE",
"378 201 CURVE",
"331 209 OFFCURVE",
"290 211 OFFCURVE",
"262 206 CURVE SMOOTH",
"242 202 OFFCURVE",
"239 163 OFFCURVE",
"258 168 CURVE SMOOTH",
"285 174 OFFCURVE",
"324 175 OFFCURVE",
"368 172 CURVE",
"338 92 OFFCURVE",
"305 25 OFFCURVE",
"275 -10 CURVE SMOOTH",
"205 -89 OFFCURVE",
"105 -125 OFFCURVE",
"47 30 CURVE SMOOTH",
"9 132 OFFCURVE",
"18 284 OFFCURVE",
"101 373 CURVE SMOOTH",
"136 411 OFFCURVE",
"102 390 OFFCURVE",
"91 378 CURVE SMOOTH",
"68 355 OFFCURVE",
"39 313 OFFCURVE",
"25 281 CURVE SMOOTH",
"-5 211 OFFCURVE",
"-18 117 OFFCURVE",
"11 43 CURVE SMOOTH",
"104 -200 OFFCURVE",
"306 -72 OFFCURVE",
"383 115 CURVE SMOOTH",
"388 129 OFFCURVE",
"395 147 OFFCURVE",
"403 168 CURVE",
"455 161 OFFCURVE",
"512 148 OFFCURVE",
"564 131 CURVE",
"568 4 OFFCURVE",
"591 -123 OFFCURVE",
"661 -158 CURVE SMOOTH",
"776 -215 OFFCURVE",
"851 43 OFFCURVE",
"598 142 CURVE",
"597 177 OFFCURVE",
"597 212 OFFCURVE",
"599 248 CURVE SMOOTH",
"606 375 OFFCURVE",
"706 869 OFFCURVE",
"911 557 CURVE SMOOTH",
"936 520 OFFCURVE",
"941 538 OFFCURVE",
"927 558 CURVE SMOOTH",
"674 931 OFFCURVE",
"561 328 OFFCURVE",
"563 154 CURVE",
"516 170 OFFCURVE",
"462 185 OFFCURVE",
"412 195 CURVE",
"461 344 OFFCURVE",
"523 604 OFFCURVE",
"431 680 CURVE SMOOTH"
);
},
{
closed = 1;
nodes = (
"694 81 OFFCURVE",
"805 -36 OFFCURVE",
"722 -141 CURVE SMOOTH",
"711 -154 OFFCURVE",
"695 -162 OFFCURVE",
"679 -150 CURVE SMOOTH",
"628 -113 OFFCURVE",
"604 -5 OFFCURVE",
"599 118 CURVE"
);
}
);
width = 723;
}
);
note = H;
unicode = 0048;
},
{
glyphname = I;
layers = (
{
hints = (
{
horizontal = 1;
place = "{-215, 15}";
type = Stem;
},
{
place = "{9, 24}";
type = Stem;
},
{
place = "{196, 25}";
type = Stem;
},
{
place = "{398, 36}";
type = Stem;
}
);
layerId = "197ECFA8-A16D-41AC-99D0-22A54F6A6421";
paths = (
{
closed = 1;
nodes = (
"171 718 OFFCURVE",
"158 306 OFFCURVE",
"277 293 CURVE SMOOTH",
"300 291 OFFCURVE",
"325 313 OFFCURVE",
"312 313 CURVE SMOOTH",
"304 313 OFFCURVE",
"297 297 OFFCURVE",
"276 314 CURVE SMOOTH",
"225 353 OFFCURVE",
"199 570 OFFCURVE",
"246 636 CURVE SMOOTH",
"257 651 OFFCURVE",
"273 660 OFFCURVE",
"290 649 CURVE SMOOTH",
"366 600 OFFCURVE",
"398 411 OFFCURVE",
"398 231 CURVE SMOOTH",
"398 97 OFFCURVE",
"381 -31 OFFCURVE",
"352 -93 CURVE SMOOTH",
"305 -195 OFFCURVE",
"212 -260 OFFCURVE",
"108 -119 CURVE SMOOTH",
"39 -26 OFFCURVE",
"4 132 OFFCURVE",
"62 247 CURVE SMOOTH",
"87 296 OFFCURVE",
"59 265 OFFCURVE",
"50 249 CURVE SMOOTH",
"34 219 OFFCURVE",
"17 167 OFFCURVE",
"12 131 CURVE SMOOTH",
"2 51 OFFCURVE",
"16 -50 OFFCURVE",
"67 -117 CURVE SMOOTH",
"234 -337 OFFCURVE",
"402 -147 OFFCURVE",
"426 66 CURVE SMOOTH",
"439 186 OFFCURVE",
"452 596 OFFCURVE",
"309 658 CURVE SMOOTH"
);
}
);
width = 459;
}
);
note = I;
unicode = 0049;
},
{
glyphname = J;
layers = (
{
hints = (
{
horizontal = 1;
place = "{-275, 17}";
type = Stem;
},
{
horizontal = 1;
place = "{517, 12}";
type = Stem;
},
{
place = "{-147, 25}";
type = Stem;
},
{
place = "{202, 36}";
type = Stem;
}
);
layerId = "197ECFA8-A16D-41AC-99D0-22A54F6A6421";
paths = (
{
closed = 1;
nodes = (
"32 456 OFFCURVE",
"42 418 OFFCURVE",
"59 429 CURVE SMOOTH",
"94 454 OFFCURVE",
"131 474 OFFCURVE",
"170 490 CURVE",
"191 350 OFFCURVE",
"274 -45 OFFCURVE",
"48 -218 CURVE SMOOTH",
"-59 -300 OFFCURVE",
"-183 -248 OFFCURVE",
"-88 -122 CURVE SMOOTH",
"-26 -40 OFFCURVE",
"8 -3 OFFCURVE",
"98 42 CURVE SMOOTH",
"115 51 OFFCURVE",
"117 65 OFFCURVE",
"100 56 CURVE SMOOTH",
"25 19 OFFCURVE",
"-50 -22 OFFCURVE",
"-104 -88 CURVE SMOOTH",
"-226 -237 OFFCURVE",
"-64 -331 OFFCURVE",
"72 -237 CURVE SMOOTH",
"272 -97 OFFCURVE",
"251 271 OFFCURVE",
"213 504 CURVE",
"255 516 OFFCURVE",
"299 521 OFFCURVE",
"347 516 CURVE SMOOTH",
"385 513 OFFCURVE",
"373 527 OFFCURVE",
"353 529 CURVE SMOOTH",
"302 533 OFFCURVE",
"254 532 OFFCURVE",
"209 526 CURVE",
"207 541 LINE SMOOTH",
"200 575 OFFCURVE",
"164 539 OFFCURVE",
"166 517 CURVE",
"125 506 OFFCURVE",
"87 490 OFFCURVE",
"49 466 CURVE SMOOTH"
);
}
);
width = 280;
}
);
note = J;
unicode = 004A;
},
{
glyphname = K;
layers = (
{
hints = (
{
horizontal = 1;
place = "{-213, 33}";
type = Stem;
},
{
horizontal = 1;
place = "{-161, 14}";
type = Stem;
},
{
horizontal = 1;
place = "{311, 10}";
type = Stem;
},
{
horizontal = 1;
place = "{473, 38}";
type = Stem;
},
{
place = "{-34, 33}";
type = Stem;
},
{
place = "{261, 31}";
type = Stem;
},
{
place = "{452, 35}";
type = Stem;
},
{
place = "{858, 18}";
type = Stem;
}
);
layerId = "197ECFA8-A16D-41AC-99D0-22A54F6A6421";
paths = (
{
closed = 1;
nodes = (
"903 457 OFFCURVE",
"913 492 OFFCURVE",
"894 498 CURVE SMOOTH",
"712 553 OFFCURVE",
"538 420 OFFCURVE",
"445 248 CURVE",
"488 401 OFFCURVE",
"516 588 OFFCURVE",
"439 653 CURVE SMOOTH",
"325 751 OFFCURVE",
"192 361 OFFCURVE",
"302 314 CURVE SMOOTH",
"324 305 OFFCURVE",
"354 319 OFFCURVE",
"341 323 CURVE SMOOTH",
"333 325 OFFCURVE",
"322 312 OFFCURVE",
"307 334 CURVE SMOOTH",
"269 387 OFFCURVE",
"308 602 OFFCURVE",
"373 651 CURVE SMOOTH",
"387 662 OFFCURVE",
"405 666 OFFCURVE",
"419 650 CURVE SMOOTH",
"477 581 OFFCURVE",
"452 391 OFFCURVE",
"399 219 CURVE SMOOTH",
"360 91 OFFCURVE",
"307 -27 OFFCURVE",
"261 -77 CURVE SMOOTH",
"186 -160 OFFCURVE",
"78 -197 OFFCURVE",
"20 -31 CURVE SMOOTH",
"-19 78 OFFCURVE",
"-7 240 OFFCURVE",
"83 333 CURVE SMOOTH",
"121 372 OFFCURVE",
"85 350 OFFCURVE",
"72 338 CURVE SMOOTH",
"47 314 OFFCURVE",
"16 270 OFFCURVE",
"1 236 CURVE SMOOTH",
"-32 163 OFFCURVE",
"-48 62 OFFCURVE",
"-19 -17 CURVE SMOOTH",
"76 -276 OFFCURVE",
"293 -144 OFFCURVE",
"378 53 CURVE SMOOTH",
"391 84 OFFCURVE",
"411 136 OFFCURVE",
"430 197 CURVE",
"431 194 LINE SMOOTH",
"484 65 OFFCURVE",
"595 -207 OFFCURVE",
"766 -213 CURVE SMOOTH",
"832 -216 OFFCURVE",
"874 -167 OFFCURVE",
"876 -103 CURVE SMOOTH",
"878 -60 OFFCURVE",
"859 -11 OFFCURVE",
"832 23 CURVE SMOOTH",
"824 32 OFFCURVE",
"812 33 OFFCURVE",
"820 21 CURVE SMOOTH",
"845 -16 OFFCURVE",
"860 -61 OFFCURVE",
"858 -107 CURVE SMOOTH",
"857 -143 OFFCURVE",
"843 -182 OFFCURVE",
"800 -181 CURVE SMOOTH",
"769 -180 OFFCURVE",
"735 -159 OFFCURVE",
"711 -141 CURVE SMOOTH",
"631 -83 OFFCURVE",
"497 108 OFFCURVE",
"447 201 CURVE SMOOTH",
"443 210 LINE",
"444 213 LINE",
"529 370 OFFCURVE",
"716 514 OFFCURVE",
"884 463 CURVE SMOOTH"
);
}
);
width = 627;
}
);
note = K;
unicode = 004B;
},
{
glyphname = L;
layers = (
{
hints = (
{
horizontal = 1;
place = "{55, 36}";
type = Stem;
},
{
horizontal = 1;
place = "{187, 18}";
type = Stem;
},
{
horizontal = 1;
place = "{695, 26}";
type = Stem;
},
{
place = "{27, 21}";
type = Stem;
},
{
place = "{581, 27}";
type = Stem;
}
);
layerId = "197ECFA8-A16D-41AC-99D0-22A54F6A6421";
paths = (
{
closed = 1;
nodes = (
"445 187 OFFCURVE",
"755 721 OFFCURVE",
"533 721 CURVE SMOOTH",
"338 721 OFFCURVE",
"158 369 OFFCURVE",
"90 222 CURVE",
"67 234 OFFCURVE",
"49 266 OFFCURVE",
"49 294 CURVE SMOOTH",
"49 302 OFFCURVE",
"52 330 OFFCURVE",
"40 330 CURVE SMOOTH",
"30 330 OFFCURVE",
"27 299 OFFCURVE",
"27 290 CURVE SMOOTH",
"27 251 OFFCURVE",
"57 210 OFFCURVE",
"83 205 CURVE",
"59 152 OFFCURVE",
"31 88 OFFCURVE",
"22 30 CURVE SMOOTH",
"19 12 OFFCURVE",
"17 -1 OFFCURVE",
"10 -18 CURVE",
"-128 -118 OFFCURVE",
"22 -172 OFFCURVE",
"47 -31 CURVE",
"188 24 OFFCURVE",
"235 55 OFFCURVE",
"399 55 CURVE SMOOTH",
"447 55 OFFCURVE",
"490 48 OFFCURVE",
"509 0 CURVE SMOOTH",
"521 -30 OFFCURVE",
"526 -20 OFFCURVE",
"526 7 CURVE SMOOTH",
"526 68 OFFCURVE",
"443 91 OFFCURVE",
"395 91 CURVE SMOOTH",
"275 91 OFFCURVE",
"151 65 OFFCURVE",
"48 2 CURVE",
"61 70 OFFCURVE",
"85 131 OFFCURVE",
"112 194 CURVE",
"125 188 OFFCURVE",
"140 187 OFFCURVE",
"155 187 CURVE SMOOTH"
);
},
{
closed = 1;
nodes = (
"689 695 OFFCURVE",
"415 205 OFFCURVE",
"150 205 CURVE SMOOTH",
"143 205 OFFCURVE",
"126 206 OFFCURVE",
"120 210 CURVE",
"181 343 OFFCURVE",
"393 695 OFFCURVE",
"539 695 CURVE SMOOTH"
);
}
);
width = 520;
}
);
note = L;
unicode = 004C;
},
{
glyphname = M;
layers = (
{
hints = (
{
horizontal = 1;
place = "{-191, 26}";
type = Stem;
},
{
horizontal = 1;
place = "{625, 38}";
type = Stem;
},
{
place = "{449, 31}";
type = Stem;
},
{
place = "{625, 39}";
type = Stem;
},
{
place = "{823, 71}";
type = Stem;
}
);
layerId = "197ECFA8-A16D-41AC-99D0-22A54F6A6421";
paths = (
{
closed = 1;
nodes = (
"444 316 OFFCURVE",
"448 206 OFFCURVE",
"449 100 CURVE SMOOTH",
"450 45 OFFCURVE",
"489 46 OFFCURVE",
"501 113 CURVE SMOOTH",
"551 399 OFFCURVE",
"863 784 OFFCURVE",
"818 602 CURVE SMOOTH",
"789 488 OFFCURVE",
"621 148 OFFCURVE",
"625 -52 CURVE SMOOTH",
"626 -134 OFFCURVE",
"675 -243 OFFCURVE",
"772 -162 CURVE SMOOTH",
"776 -159 OFFCURVE",
"799 -121 OFFCURVE",
"781 -127 CURVE",
"783 -135 OFFCURVE",
"705 -218 OFFCURVE",
"675 -108 CURVE SMOOTH",
"631 52 OFFCURVE",
"725 288 OFFCURVE",
"803 430 CURVE SMOOTH",
"837 492 OFFCURVE",
"890 563 OFFCURVE",
"893 633 CURVE SMOOTH",
"896 683 OFFCURVE",
"845 698 OFFCURVE",
"800 675 CURVE SMOOTH",
"650 599 OFFCURVE",
"508 226 OFFCURVE",
"480 132 CURVE",
"480 132 LINE",
"476 178 OFFCURVE",
"484 316 OFFCURVE",
"473 415 CURVE SMOOTH",
"449 629 OFFCURVE",
"323 805 OFFCURVE",
"197 496 CURVE SMOOTH",
"162 409 OFFCURVE",
"144 319 OFFCURVE",
"129 227 CURVE",
"113 280 OFFCURVE",
"81 409 OFFCURVE",
"26 424 CURVE SMOOTH",
"20 426 OFFCURVE",
"-5 425 OFFCURVE",
"3 415 CURVE",
"49 393 OFFCURVE",
"91 205 OFFCURVE",
"99 159 CURVE SMOOTH",
"103 133 OFFCURVE",
"109 91 OFFCURVE",
"120 67 CURVE SMOOTH",
"140 19 OFFCURVE",
"161 76 OFFCURVE",
"154 129 CURVE SMOOTH",
"127 324 OFFCURVE",
"327 947 OFFCURVE",
"426 415 CURVE SMOOTH"
);
}
);
width = 805;
}
);
note = M;
unicode = 004D;
},
{
glyphname = N;
layers = (
{
hints = (
{
horizontal = 1;
place = "{2237, 62}";
type = Stem;
}
);
layerId = "197ECFA8-A16D-41AC-99D0-22A54F6A6421";
paths = (
{
closed = 1;
nodes = (
"141 645 OFFCURVE",
"92 595 OFFCURVE",
"74 542 CURVE SMOOTH",
"38 434 OFFCURVE",
"24 204 OFFCURVE",
"42 91 CURVE SMOOTH",
"46 67 OFFCURVE",
"55 31 OFFCURVE",
"84 30 CURVE SMOOTH",
"103 29 OFFCURVE",
"101 77 OFFCURVE",
"104 91 CURVE SMOOTH",
"164 435 OFFCURVE",
"564 914 OFFCURVE",
"501 698 CURVE SMOOTH",
"444 505 OFFCURVE",
"209 -2 OFFCURVE",
"261 -183 CURVE SMOOTH",
"283 -256 OFFCURVE",
"368 -300 OFFCURVE",
"429 -239 CURVE SMOOTH",
"434 -234 OFFCURVE",
"462 -189 OFFCURVE",
"440 -197 CURVE",
"443 -206 OFFCURVE",
"350 -306 OFFCURVE",
"313 -173 CURVE SMOOTH",
"260 18 OFFCURVE",
"373 301 OFFCURVE",
"466 472 CURVE SMOOTH",
"507 546 OFFCURVE",
"570 631 OFFCURVE",
"575 716 CURVE SMOOTH",
"578 775 OFFCURVE",
"513 800 OFFCURVE",
"463 766 CURVE SMOOTH",
"279 642 OFFCURVE",
"113 227 OFFCURVE",
"79 114 CURVE",
"61 357 OFFCURVE",
"137 527 OFFCURVE",
"138 559 CURVE SMOOTH"
);
}
);
width = 442;
}
);
note = N;
unicode = 004E;
},
{
glyphname = Eng;
layers = (
{
hints = (
{
horizontal = 1;
place = "{2237, 62}";
type = Stem;
}
);
layerId = "197ECFA8-A16D-41AC-99D0-22A54F6A6421";
paths = (
{
closed = 1;
nodes = (
"15 -390 OFFCURVE",
"-12 -256 OFFCURVE",
"-4 -250 CURVE",
"-19 -231 OFFCURVE",
"-19 -284 OFFCURVE",
"-17 -291 CURVE SMOOTH",
"3 -375 OFFCURVE",
"99 -382 OFFCURVE",
"156 -331 CURVE SMOOTH",
"233 -259 OFFCURVE",
"352 53 OFFCURVE",
"447 328 CURVE SMOOTH",
"504 494 OFFCURVE",
"563 646 OFFCURVE",
"568 727 CURVE SMOOTH",
"571 786 OFFCURVE",
"513 800 OFFCURVE",
"463 766 CURVE SMOOTH",
"279 642 OFFCURVE",
"113 227 OFFCURVE",
"79 114 CURVE",
"61 357 OFFCURVE",
"137 527 OFFCURVE",
"138 559 CURVE SMOOTH",
"141 645 OFFCURVE",
"92 595 OFFCURVE",
"74 542 CURVE SMOOTH",
"38 434 OFFCURVE",
"24 204 OFFCURVE",
"42 91 CURVE SMOOTH",
"46 67 OFFCURVE",
"55 31 OFFCURVE",
"84 30 CURVE SMOOTH",
"103 29 OFFCURVE",
"101 77 OFFCURVE",
"104 91 CURVE SMOOTH",
"164 435 OFFCURVE",
"564 914 OFFCURVE",
"501 698 CURVE SMOOTH",
"477 615 OFFCURVE",
"458 486 OFFCURVE",
"419 343 CURVE SMOOTH",
"353 103 OFFCURVE",
"250 -171 OFFCURVE",
"116 -295 CURVE SMOOTH"
);
}
);
width = 442;
}
);
note = Eng;
unicode = 014A;
},
{
glyphname = O;
layers = (
{
hints = (
{
horizontal = 1;
place = "{-161, 31}";
type = Stem;
},
{
horizontal = 1;
place = "{758, -20}";
target = down;
type = TopGhost;
},
{
place = "{10, 28}";
type = Stem;
},
{
place = "{738, 45}";
type = Stem;
}
);
layerId = "197ECFA8-A16D-41AC-99D0-22A54F6A6421";
paths = (
{
closed = 1;
nodes = (
"777 618 OFFCURVE",
"565 838 OFFCURVE",
"326 671 CURVE",
"337 685 OFFCURVE",
"375 733 OFFCURVE",
"389 738 CURVE SMOOTH",
"403 744 OFFCURVE",
"415 764 OFFCURVE",
"381 756 CURVE SMOOTH",
"349 748 OFFCURVE",
"296 686 OFFCURVE",
"251 612 CURVE",
"211 574 OFFCURVE",
"170 531 OFFCURVE",
"126 476 CURVE SMOOTH",
"-42 266 OFFCURVE",
"-4 93 OFFCURVE",
"90 105 CURVE",
"83 -129 OFFCURVE",
"212 -242 OFFCURVE",
"475 -97 CURVE SMOOTH",
"625 -14 OFFCURVE",
"789 207 OFFCURVE",
"782 448 CURVE SMOOTH"
);
},
{
closed = 1;
nodes = (
"151 426 OFFCURVE",
"104 282 OFFCURVE",
"90 140 CURVE",
"75 146 OFFCURVE",
"60 157 OFFCURVE",
"51 175 CURVE SMOOTH",
"9 252 OFFCURVE",
"75 368 OFFCURVE",
"140 457 CURVE SMOOTH",
"162 489 OFFCURVE",
"186 519 OFFCURVE",
"209 546 CURVE"
);
},
{
closed = 1;
nodes = (
"746 243 OFFCURVE",
"626 7 OFFCURVE",
"469 -79 CURVE SMOOTH",
"225 -213 OFFCURVE",
"137 -59 OFFCURVE",
"132 126 CURVE",
"143 131 OFFCURVE",
"155 139 OFFCURVE",
"166 148 CURVE SMOOTH",
"173 155 OFFCURVE",
"144 151 OFFCURVE",
"130 153 CURVE",
"135 336 OFFCURVE",
"189 496 OFFCURVE",
"270 608 CURVE",
"472 790 OFFCURVE",
"722 702 OFFCURVE",
"737 419 CURVE SMOOTH"
);
}
);
width = 770;
}
);
note = O;
unicode = 004F;
},
{
glyphname = Oslash;
layers = (
{
hints = (
{
horizontal = 1;
place = "{-161, 31}";
type = Stem;
},
{
horizontal = 1;
place = "{703, 28}";
type = Stem;
},
{
horizontal = 1;
place = "{758, -20}";
target = down;
type = TopGhost;
},
{
place = "{10, 28}";
type = Stem;
},
{
place = "{738, 45}";
type = Stem;
}
);
layerId = "197ECFA8-A16D-41AC-99D0-22A54F6A6421";
paths = (
{
closed = 1;
nodes = (
"151 426 OFFCURVE",
"104 282 OFFCURVE",
"90 140 CURVE",
"75 146 OFFCURVE",
"60 157 OFFCURVE",
"51 175 CURVE SMOOTH",
"9 252 OFFCURVE",
"75 368 OFFCURVE",
"140 457 CURVE SMOOTH",
"162 489 OFFCURVE",
"186 519 OFFCURVE",
"209 546 CURVE"
);
},
{
closed = 1;
nodes = (
"137 56 OFFCURVE",
"133 90 OFFCURVE",
"132 126 CURVE",
"143 131 OFFCURVE",
"155 139 OFFCURVE",
"166 148 CURVE SMOOTH",
"173 155 OFFCURVE",
"144 151 OFFCURVE",
"130 153 CURVE",
"135 336 OFFCURVE",
"189 496 OFFCURVE",
"270 608 CURVE",
"419 742 OFFCURVE",
"594 730 OFFCURVE",
"681 601 CURVE",
"535 475 OFFCURVE",
"281 221 OFFCURVE",
"145 25 CURVE"
);
},
{
closed = 1;
nodes = (
"720 531 OFFCURVE",
"734 479 OFFCURVE",
"737 419 CURVE SMOOTH",
"746 243 OFFCURVE",
"626 7 OFFCURVE",
"469 -79 CURVE SMOOTH",
"285 -180 OFFCURVE",
"190 -118 OFFCURVE",
"152 -2 CURVE",
"281 199 OFFCURVE",
"534 435 OFFCURVE",
"698 573 CURVE"
);
},
{
closed = 1;
nodes = (
"815 667 OFFCURVE",
"766 669 OFFCURVE",
"733 644 CURVE SMOOTH",
"726 638 OFFCURVE",
"718 632 OFFCURVE",
"710 625 CURVE",
"627 724 OFFCURVE",
"482 780 OFFCURVE",
"326 671 CURVE",
"337 685 OFFCURVE",
"375 733 OFFCURVE",
"389 738 CURVE SMOOTH",
"403 744 OFFCURVE",
"415 764 OFFCURVE",
"381 756 CURVE SMOOTH",
"349 748 OFFCURVE",
"296 686 OFFCURVE",
"251 612 CURVE",
"211 574 OFFCURVE",
"170 531 OFFCURVE",
"126 476 CURVE SMOOTH",
"-42 266 OFFCURVE",
"-4 93 OFFCURVE",
"90 105 CURVE",
"89 52 OFFCURVE",
"94 5 OFFCURVE",
"107 -34 CURVE",
"80 -78 OFFCURVE",
"62 -117 OFFCURVE",
"56 -149 CURVE SMOOTH",
"54 -156 OFFCURVE",
"75 -175 OFFCURVE",
"76 -168 CURVE SMOOTH",
"83 -135 OFFCURVE",
"97 -100 OFFCURVE",
"117 -62 CURVE",
"167 -172 OFFCURVE",
"287 -200 OFFCURVE",
"475 -97 CURVE SMOOTH",
"625 -14 OFFCURVE",
"789 207 OFFCURVE",
"782 448 CURVE SMOOTH",
"781 498 OFFCURVE",
"762 552 OFFCURVE",
"729 599 CURVE",
"754 620 OFFCURVE",
"776 638 OFFCURVE",
"794 652 CURVE SMOOTH"
);
}
);
width = 770;
}
);
note = Oslash;
unicode = 00D8;
},
{
glyphname = OE;
layers = (
{
hints = (
{
horizontal = 1;
place = "{-161, 31}";
type = Stem;
},
{
horizontal = 1;
place = "{-66, 22}";
type = Stem;
},
{
horizontal = 1;
place = "{554, 158}";
type = Stem;
},
{
horizontal = 1;
place = "{758, -20}";
target = down;
type = TopGhost;
},
{
place = "{10, 28}";
type = Stem;
},
{
place = "{1231, 37}";
type = Stem;
}
);
layerId = "197ECFA8-A16D-41AC-99D0-22A54F6A6421";
paths = (
{
closed = 1;
nodes = (
"151 426 OFFCURVE",
"104 282 OFFCURVE",
"90 140 CURVE",
"75 146 OFFCURVE",
"60 157 OFFCURVE",
"51 175 CURVE SMOOTH",
"9 252 OFFCURVE",
"75 368 OFFCURVE",
"140 457 CURVE SMOOTH",
"162 489 OFFCURVE",
"186 519 OFFCURVE",
"209 546 CURVE"
);
},
{
closed = 1;
nodes = (
"746 243 OFFCURVE",
"621 4 OFFCURVE",
"469 -79 CURVE SMOOTH",
"225 -213 OFFCURVE",
"137 -59 OFFCURVE",
"132 126 CURVE",
"143 131 OFFCURVE",
"155 139 OFFCURVE",
"166 148 CURVE SMOOTH",
"173 155 OFFCURVE",
"144 151 OFFCURVE",
"130 153 CURVE",
"135 336 OFFCURVE",
"189 496 OFFCURVE",
"270 608 CURVE",
"472 790 OFFCURVE",
"722 702 OFFCURVE",
"737 419 CURVE SMOOTH"
);
},
{
closed = 1;
nodes = (
"1287 164 OFFCURVE",
"1273 169 OFFCURVE",
"1261 141 CURVE SMOOTH",
"1160 -90 OFFCURVE",
"708 -163 OFFCURVE",
"759 274 CURVE SMOOTH",
"760 280 OFFCURVE",
"762 285 OFFCURVE",
"763 291 CURVE",
"793 296 OFFCURVE",
"823 306 OFFCURVE",
"846 311 CURVE SMOOTH",
"1133 374 OFFCURVE",
"1321 445 OFFCURVE",
"846 340 CURVE SMOOTH",
"826 335 OFFCURVE",
"797 331 OFFCURVE",
"772 329 CURVE",
"773 333 OFFCURVE",
"774 337 OFFCURVE",
"774 341 CURVE",
"890 702 OFFCURVE",
"1316 756 OFFCURVE",
"1215 580 CURVE SMOOTH",
"1187 529 OFFCURVE",
"1246 558 OFFCURVE",
"1264 628 CURVE SMOOTH",
"1307 801 OFFCURVE",
"939 692 OFFCURVE",
"782 443 CURVE",
"782 448 LINE SMOOTH",
"778 618 OFFCURVE",
"565 838 OFFCURVE",
"326 671 CURVE",
"337 685 OFFCURVE",
"375 733 OFFCURVE",
"389 738 CURVE SMOOTH",
"403 744 OFFCURVE",
"415 764 OFFCURVE",
"381 756 CURVE SMOOTH",
"349 748 OFFCURVE",
"296 686 OFFCURVE",
"251 612 CURVE",
"211 574 OFFCURVE",
"170 531 OFFCURVE",
"126 476 CURVE SMOOTH",
"-42 266 OFFCURVE",
"-4 93 OFFCURVE",
"90 105 CURVE",
"83 -129 OFFCURVE",
"212 -242 OFFCURVE",
"475 -97 CURVE SMOOTH",
"560 -50 OFFCURVE",
"650 42 OFFCURVE",
"711 157 CURVE",
"744 -190 OFFCURVE",
"1203 -80 OFFCURVE",
"1278 138 CURVE SMOOTH"
);
}
);
width = 1302;
}
);
note = OE;
unicode = 0152;
},
{
glyphname = P;
layers = (
{
hints = (
{
horizontal = 1;
place = "{-223, 30}";
type = Stem;
},
{
horizontal = 1;
place = "{201, 13}";
type = Stem;
},
{
horizontal = 1;
place = "{460, 17}";
type = Stem;
},
{
horizontal = 1;
place = "{705, 14}";
type = Stem;
},
{
place = "{-6, 42}";
type = Stem;
},
{
place = "{678, 37}";
type = Stem;
}
);
layerId = "197ECFA8-A16D-41AC-99D0-22A54F6A6421";
paths = (
{
closed = 1;
nodes = (
"-28 195 OFFCURVE",
"22 323 OFFCURVE",
"175 402 CURVE",
"157 335 OFFCURVE",
"147 273 OFFCURVE",
"142 216 CURVE"
);
},
{
closed = 1;
nodes = (
"331 674 OFFCURVE",
"335 674 OFFCURVE",
"340 676 CURVE SMOOTH",
"480 729 OFFCURVE",
"798 729 OFFCURVE",
"630 502 CURVE SMOOTH",
"540 380 OFFCURVE",
"386 264 OFFCURVE",
"177 222 CURVE",
"187 281 OFFCURVE",
"204 349 OFFCURVE",
"229 426 CURVE",
"278 445 OFFCURVE",
"333 458 OFFCURVE",
"394 461 CURVE SMOOTH",
"441 463 OFFCURVE",
"444 479 OFFCURVE",
"421 477 CURVE SMOOTH",
"354 474 OFFCURVE",
"291 460 OFFCURVE",
"234 441 CURVE",
"258 511 OFFCURVE",
"289 589 OFFCURVE",
"328 675 CURVE"
);
},
{
closed = 1;
nodes = (
"387 796 OFFCURVE",
"346 814 OFFCURVE",
"331 787 CURVE SMOOTH",
"258 654 OFFCURVE",
"210 531 OFFCURVE",
"179 420 CURVE",
"-17 333 OFFCURVE",
"-99 183 OFFCURVE",
"141 201 CURVE",
"120 -102 OFFCURVE",
"257 -264 OFFCURVE",
"377 -214 CURVE SMOOTH",
"398 -205 OFFCURVE",
"383 -170 OFFCURVE",
"368 -188 CURVE SMOOTH",
"347 -212 OFFCURVE",
"121 -170 OFFCURVE",
"174 204 CURVE",
"379 229 OFFCURVE",
"558 347 OFFCURVE",
"656 468 CURVE SMOOTH",
"776 616 OFFCURVE",
"719 759 OFFCURVE",
"416 708 CURVE SMOOTH",
"370 701 OFFCURVE",
"369 705 OFFCURVE",
"340 700 CURVE",
"350 721 OFFCURVE",
"361 743 OFFCURVE",
"372 765 CURVE SMOOTH"
);
}
);
width = 532;
}
);
note = P;
unicode = 0050;
},
{
glyphname = Thorn;
layers = (
{
hints = (
{
horizontal = 1;
place = "{-137, 29}";
type = Stem;
},
{
horizontal = 1;
place = "{588, 21}";
type = Stem;
},
{
place = "{-37, 42}";
type = Stem;
},
{
place = "{106, 35}";
type = Stem;
},
{
place = "{646, 39}";
type = Stem;
},
{
horizontal = 1;
place = "{556, 24}";
type = Stem;
},
{
horizontal = 1;
place = "{327, 20}";
type = Stem;
},
{
horizontal = 1;
place = "{580, -20}";
target = down;
type = TopGhost;
}
);
layerId = "197ECFA8-A16D-41AC-99D0-22A54F6A6421";
paths = (
{
closed = 1;
nodes = (
"-58 86 OFFCURVE",
"-8 214 OFFCURVE",
"145 293 CURVE",
"127 226 OFFCURVE",
"117 164 OFFCURVE",
"112 107 CURVE"
);
},
{
closed = 1;
nodes = (
"287 554 OFFCURVE",
"291 554 OFFCURVE",
"296 556 CURVE SMOOTH",
"436 609 OFFCURVE",
"768 620 OFFCURVE",
"600 393 CURVE SMOOTH",
"510 271 OFFCURVE",
"356 155 OFFCURVE",
"147 113 CURVE",
"157 172 OFFCURVE",
"172 231 OFFCURVE",
"197 308 CURVE",
"215 316 OFFCURVE",
"249 324 OFFCURVE",
"267 327 CURVE SMOOTH",
"292 331 OFFCURVE",
"284 351 OFFCURVE",
"263 347 CURVE SMOOTH",
"246 344 OFFCURVE",
"227 340 OFFCURVE",
"204 332 CURVE",
"228 402 OFFCURVE",
"245 469 OFFCURVE",
"284 555 CURVE"
);
},
{
closed = 1;
nodes = (
"387 796 OFFCURVE",
"346 814 OFFCURVE",
"331 787 CURVE SMOOTH",
"258 654 OFFCURVE",
"180 422 OFFCURVE",
"149 311 CURVE",
"-47 224 OFFCURVE",
"-129 74 OFFCURVE",
"111 92 CURVE",
"111 92 OFFCURVE",
"96 26 OFFCURVE",
"118 -45 CURVE SMOOTH",
"141 -120 OFFCURVE",
"205 -156 OFFCURVE",
"271 -128 CURVE SMOOTH",
"292 -119 OFFCURVE",
"277 -84 OFFCURVE",
"262 -102 CURVE SMOOTH",
"250 -116 OFFCURVE",
"203 -112 OFFCURVE",
"170 -47 CURVE SMOOTH",
"146 1 OFFCURVE",
"135 62 OFFCURVE",
"144 95 CURVE",
"349 120 OFFCURVE",
"528 238 OFFCURVE",
"626 359 CURVE SMOOTH",
"746 507 OFFCURVE",
"689 650 OFFCURVE",
"386 599 CURVE SMOOTH",
"340 592 OFFCURVE",
"325 585 OFFCURVE",
"296 580 CURVE",
"306 601 OFFCURVE",
"361 743 OFFCURVE",
"372 765 CURVE SMOOTH"
);
}
);
width = 833;
}
);
note = Thorn;
unicode = 00DE;
},
{
glyphname = Q;
layers = (
{
hints = (
{
horizontal = 1;
place = "{-276, 33}";
type = Stem;
},
{
horizontal = 1;
place = "{-224, 27}";
type = Stem;
},
{
horizontal = 1;
place = "{705, 29}";
type = Stem;
},
{
horizontal = 1;
place = "{758, -20}";
target = down;
type = TopGhost;
},
{
place = "{10, 28}";
type = Stem;
},
{
place = "{638, 43}";
type = Stem;
},
{
place = "{737, 18}";
type = Stem;
}
);
layerId = "197ECFA8-A16D-41AC-99D0-22A54F6A6421";
paths = (
{
closed = 1;
nodes = (
"151 426 OFFCURVE",
"104 282 OFFCURVE",
"90 140 CURVE",
"75 146 OFFCURVE",
"60 157 OFFCURVE",
"51 175 CURVE SMOOTH",
"9 252 OFFCURVE",
"75 368 OFFCURVE",
"140 457 CURVE SMOOTH",
"162 489 OFFCURVE",
"186 519 OFFCURVE",
"209 546 CURVE"
);
},
{
closed = 1;
nodes = (
"579 55 OFFCURVE",
"684 289 OFFCURVE",
"680 475 CURVE SMOOTH",
"677 637 OFFCURVE",
"565 838 OFFCURVE",
"326 671 CURVE",
"337 685 OFFCURVE",
"375 733 OFFCURVE",
"389 738 CURVE SMOOTH",
"403 744 OFFCURVE",
"415 764 OFFCURVE",
"381 756 CURVE SMOOTH",
"349 748 OFFCURVE",
"296 686 OFFCURVE",
"251 612 CURVE",
"211 574 OFFCURVE",
"170 531 OFFCURVE",
"126 476 CURVE SMOOTH",
"-42 266 OFFCURVE",
"-4 93 OFFCURVE",
"90 105 CURVE",
"89 53 OFFCURVE",
"92 3 OFFCURVE",
"104 -47 CURVE SMOOTH",
"149 -243 OFFCURVE",
"291 -266 OFFCURVE",
"403 -166 CURVE SMOOTH",
"415 -155 OFFCURVE",
"427 -142 OFFCURVE",
"439 -128 CURVE",
"494 -209 OFFCURVE",
"562 -273 OFFCURVE",
"644 -276 CURVE SMOOTH",
"710 -278 OFFCURVE",
"752 -229 OFFCURVE",
"754 -166 CURVE SMOOTH",
"756 -122 OFFCURVE",
"737 -74 OFFCURVE",
"710 -40 CURVE SMOOTH",
"702 -30 OFFCURVE",
"691 -29 OFFCURVE",
"699 -41 CURVE SMOOTH",
"723 -79 OFFCURVE",
"738 -124 OFFCURVE",
"737 -169 CURVE SMOOTH",
"735 -206 OFFCURVE",
"721 -245 OFFCURVE",
"678 -243 CURVE SMOOTH",
"647 -242 OFFCURVE",
"613 -221 OFFCURVE",
"589 -204 CURVE SMOOTH",
"557 -180 OFFCURVE",
"516 -135 OFFCURVE",
"475 -84 CURVE"
);
},
{
closed = 1;
nodes = (
"284 219 OFFCURVE",
"291 175 OFFCURVE",
"310 131 CURVE SMOOTH",
"336 69 OFFCURVE",
"375 -28 OFFCURVE",
"429 -112 CURVE",
"416 -127 OFFCURVE",
"403 -140 OFFCURVE",
"390 -152 CURVE SMOOTH",
"272 -257 OFFCURVE",
"177 -168 OFFCURVE",
"139 -7 CURVE SMOOTH",
"128 38 OFFCURVE",
"133 81 OFFCURVE",
"132 126 CURVE",
"143 131 OFFCURVE",
"155 139 OFFCURVE",
"166 148 CURVE SMOOTH",
"173 155 OFFCURVE",
"144 151 OFFCURVE",
"130 153 CURVE",
"135 336 OFFCURVE",
"189 496 OFFCURVE",
"270 608 CURVE",
"472 790 OFFCURVE",
"627 705 OFFCURVE",
"637 437 CURVE SMOOTH",
"642 302 OFFCURVE",
"560 74 OFFCURVE",
"462 -67 CURVE",
"406 5 OFFCURVE",
"353 87 OFFCURVE",
"326 139 CURVE SMOOTH"
);
}
);
width = 726;
}
);
note = Q;
unicode = 0051;
},
{
glyphname = R;
layers = (
{
hints = (
{
horizontal = 1;
place = "{-242, 14}";
type = Stem;
},
{
horizontal = 1;
place = "{-137, 33}";
type = Stem;
},
{
horizontal = 1;
place = "{619, 26}";
type = Stem;
},
{
horizontal = 1;
place = "{696, 26}";
type = Stem;
},
{
place = "{-5, 33}";
type = Stem;
},
{
place = "{473, 41}";
type = Stem;
},
{
place = "{837, 46}";
type = Stem;
},
{
place = "{917, 18}";
type = Stem;
}
);
layerId = "197ECFA8-A16D-41AC-99D0-22A54F6A6421";
paths = (
{
closed = 1;
nodes = (
"415 666 OFFCURVE",
"373 589 OFFCURVE",
"390 605 CURVE SMOOTH",
"405 619 OFFCURVE",
"423 625 OFFCURVE",
"437 611 CURVE SMOOTH",
"486 561 OFFCURVE",
"480 418 OFFCURVE",
"448 269 CURVE",
"439 263 OFFCURVE",
"436 257 OFFCURVE",
"445 255 CURVE",
"440 234 OFFCURVE",
"435 213 OFFCURVE",
"430 193 CURVE SMOOTH",
"380 2 OFFCURVE",
"165 -420 OFFCURVE",
"51 -129 CURVE SMOOTH",
"10 -25 OFFCURVE",
"19 138 OFFCURVE",
"107 244 CURVE SMOOTH",
"145 289 OFFCURVE",
"109 262 OFFCURVE",
"96 248 CURVE SMOOTH",
"72 220 OFFCURVE",
"42 171 OFFCURVE",
"27 136 CURVE SMOOTH",
"-5 57 OFFCURVE",
"-18 -45 OFFCURVE",
"12 -121 CURVE SMOOTH",
"112 -366 OFFCURVE",
"323 -198 OFFCURVE",
"408 8 CURVE SMOOTH",
"437 78 OFFCURVE",
"466 168 OFFCURVE",
"487 260 CURVE",
"494 262 LINE",
"549 130 OFFCURVE",
"658 -131 OFFCURVE",
"825 -137 CURVE SMOOTH",
"890 -139 OFFCURVE",
"933 -90 OFFCURVE",
"935 -27 CURVE SMOOTH",
"937 17 OFFCURVE",
"918 65 OFFCURVE",
"891 99 CURVE SMOOTH",
"883 109 OFFCURVE",
"871 110 OFFCURVE",
"879 98 CURVE SMOOTH",
"904 61 OFFCURVE",
"919 15 OFFCURVE",
"917 -30 CURVE SMOOTH",
"916 -66 OFFCURVE",
"902 -105 OFFCURVE",
"858 -104 CURVE SMOOTH",
"828 -103 OFFCURVE",
"794 -82 OFFCURVE",
"770 -64 CURVE SMOOTH",
"693 -8 OFFCURVE",
"566 170 OFFCURVE",
"512 267 CURVE",
"531 273 OFFCURVE",
"554 281 OFFCURVE",
"583 292 CURVE SMOOTH",
"1123 500 OFFCURVE",
"845 805 OFFCURVE",
"451 700 CURVE SMOOTH",
"279 654 OFFCURVE",
"92 528 OFFCURVE",
"77 407 CURVE SMOOTH",
"69 346 OFFCURVE",
"100 325 OFFCURVE",
"108 393 CURVE SMOOTH",
"118 475 OFFCURVE",
"272 630 OFFCURVE",
"447 677 CURVE SMOOTH",
"818 776 OFFCURVE",
"1074 470 OFFCURVE",
"502 287 CURVE",
"499 291 OFFCURVE",
"497 295 OFFCURVE",
"495 298 CURVE",
"524 447 OFFCURVE",
"526 590 OFFCURVE",
"455 639 CURVE SMOOTH"
);
}
);
width = 903;
}
);
note = R;
unicode = 0052;
},
{
glyphname = S;
layers = (
{
hints = (
{
horizontal = 1;
place = "{-59, 18}";
type = Stem;
},
{
horizontal = 1;
place = "{58, 14}";
type = Stem;
},
{
place = "{13, 40}";
type = Stem;
},
{
place = "{431, 17}";
type = Stem;
}
);
layerId = "197ECFA8-A16D-41AC-99D0-22A54F6A6421";
paths = (
{
closed = 1;
nodes = (
"165 -47 OFFCURVE",
"66 -56 OFFCURVE",
"35 -26 CURVE",
"81 1 OFFCURVE",
"128 23 OFFCURVE",
"171 38 CURVE"
);
},
{
closed = 1;
nodes = (
"-47 -45 OFFCURVE",
"-53 -83 OFFCURVE",
"-33 -69 CURVE SMOOTH",
"-16 -57 OFFCURVE",
"2 -45 OFFCURVE",
"20 -35 CURVE",
"24 -39 OFFCURVE",
"29 -43 OFFCURVE",
"35 -46 CURVE SMOOTH",
"85 -75 OFFCURVE",
"184 -60 OFFCURVE",
"208 18 CURVE SMOOTH",
"211 29 OFFCURVE",
"212 39 OFFCURVE",
"210 50 CURVE",
"233 56 OFFCURVE",
"254 58 OFFCURVE",
"272 58 CURVE SMOOTH",
"307 57 OFFCURVE",
"301 70 OFFCURVE",
"283 72 CURVE SMOOTH",
"259 73 OFFCURVE",
"233 72 OFFCURVE",
"207 67 CURVE",
"180 154 OFFCURVE",
"34 234 OFFCURVE",
"55 375 CURVE SMOOTH",
"78 528 OFFCURVE",
"192 636 OFFCURVE",
"319 654 CURVE SMOOTH",
"373 662 OFFCURVE",
"451 636 OFFCURVE",
"425 566 CURVE SMOOTH",
"417 543 OFFCURVE",
"423 538 OFFCURVE",
"438 561 CURVE SMOOTH",
"460 594 OFFCURVE",
"451 661 OFFCURVE",
"353 680 CURVE SMOOTH",
"312 688 OFFCURVE",
"256 681 OFFCURVE",
"217 666 CURVE SMOOTH",
"102 621 OFFCURVE",
"0 518 OFFCURVE",
"13 378 CURVE SMOOTH",
"29 205 OFFCURVE",
"161 154 OFFCURVE",
"171 63 CURVE SMOOTH",
"171 60 LINE",
"122 47 OFFCURVE",
"71 26 OFFCURVE",
"19 -3 CURVE",
"8 10 OFFCURVE",
"3 2 OFFCURVE",
"6 -11 CURVE",
"-5 -17 OFFCURVE",
"-16 -24 OFFCURVE",
"-27 -31 CURVE SMOOTH"
);
}
);
width = 248;
}
);
note = S;
unicode = 0053;
},
{
glyphname = Germandbls;
lastChange = "2021-09-13 17:47:13 +0000";
layers = (
{
hints = (
{
horizontal = 1;
place = "{-144, 45}";
type = Stem;
},
{
horizontal = 1;
place = "{474, 34}";
type = Stem;
},
{
horizontal = 1;
place = "{494, -20}";
target = down;
type = TopGhost;
},
{
horizontal = 1;
place = "{770, 32}";
type = Stem;
},
{
place = "{222, 51}";
type = Stem;
},
{
place = "{494, 54}";
type = Stem;
},
{
place = "{587, 63}";
type = Stem;
}
);
layerId = "197ECFA8-A16D-41AC-99D0-22A54F6A6421";
paths = (
{
closed = 1;
nodes = (
"97 64 OFFCURVE",
"109 187 OFFCURVE",
"138 430 CURVE SMOOTH",
"154 573 OFFCURVE",
"166 671 OFFCURVE",
"205 709 CURVE SMOOTH",
"261 763 OFFCURVE",
"439 708 OFFCURVE",
"432 664 CURVE SMOOTH",
"424 623 OFFCURVE",
"320 535 OFFCURVE",
"291 486 CURVE SMOOTH",
"232 392 OFFCURVE",
"251 398 OFFCURVE",
"296 380 CURVE SMOOTH",
"339 364 OFFCURVE",
"405 324 OFFCURVE",
"410 256 CURVE SMOOTH",
"415 166 OFFCURVE",
"347 57 OFFCURVE",
"256 31 CURVE SMOOTH",
"235 26 OFFCURVE",
"209 21 OFFCURVE",
"192 34 CURVE SMOOTH",
"182 41 OFFCURVE",
"174 56 OFFCURVE",
"175 68 CURVE SMOOTH",
"174 73 OFFCURVE",
"175 107 OFFCURVE",
"163 103 CURVE SMOOTH",
"154 101 OFFCURVE",
"151 91 OFFCURVE",
"150 84 CURVE",
"138 36 OFFCURVE",
"197 12 OFFCURVE",
"234 9 CURVE SMOOTH",
"266 7 OFFCURVE",
"305 18 OFFCURVE",
"333 33 CURVE SMOOTH",
"504 123 OFFCURVE",
"505 341 OFFCURVE",
"308 396 CURVE SMOOTH",
"287 402 OFFCURVE",
"285 419 OFFCURVE",
"301 445 CURVE SMOOTH",
"343 516 OFFCURVE",
"456 592 OFFCURVE",
"469 639 CURVE SMOOTH",
"496 752 OFFCURVE",
"235 775 OFFCURVE",
"178 728 CURVE SMOOTH",
"58 627 OFFCURVE",
"106 201 OFFCURVE",
"35 -38 CURVE",
"24 -76 OFFCURVE",
"45 -77 OFFCURVE",
"59 -45 CURVE"
);
}
);
width = 527;
}
);
unicode = 1E9E;
},
{
glyphname = Schwa;
lastChange = "2021-09-13 17:50:41 +0000";
layers = (
{
hints = (
{
horizontal = 1;
place = "{3, 16}";
type = Stem;
},
{
horizontal = 1;
place = "{291, 40}";
type = Stem;
},
{
place = "{42, 33}";
type = Stem;
},
{
place = "{157, 28}";
type = Stem;
}
);
layerId = "197ECFA8-A16D-41AC-99D0-22A54F6A6421";
paths = (
{
closed = 1;
nodes = (
"0 342 OFFCURVE",
"18 334 OFFCURVE",
"44 382 CURVE SMOOTH",
"260 807 OFFCURVE",
"519 691 OFFCURVE",
"458 308 CURVE SMOOTH",
"422 79 OFFCURVE",
"335 -8 OFFCURVE",
"281 -8 CURVE SMOOTH",
"226 -8 OFFCURVE",
"192 73 OFFCURVE",
"251 181 CURVE SMOOTH",
"272 207 OFFCURVE",
"302 246 OFFCURVE",
"354 288 CURVE SMOOTH",
"384 313 OFFCURVE",
"422 339 OFFCURVE",
"470 363 CURVE SMOOTH",
"512 384 OFFCURVE",
"507 394 OFFCURVE",
"460 379 CURVE SMOOTH",
"419 366 OFFCURVE",
"378 345 OFFCURVE",
"341 319 CURVE SMOOTH",
"283 279 OFFCURVE",
"236 228 OFFCURVE",
"212 179 CURVE SMOOTH",
"144 53 OFFCURVE",
"199 -27 OFFCURVE",
"279 -27 CURVE SMOOTH",
"366 -28 OFFCURVE",
"483 66 OFFCURVE",
"511 341 CURVE SMOOTH",
"557 800 OFFCURVE",
"180 756 OFFCURVE",
"23 397 CURVE SMOOTH"
);
}
);
width = 525;
}
);
unicode = 018F;
},
{
glyphname = T;
layers = (
{
hints = (
{
horizontal = 1;
place = "{-167, 25}";
type = Stem;
},
{
horizontal = 1;
place = "{643, 31}";
type = Stem;
},
{
horizontal = 1;
place = "{748, -20}";
target = down;
type = TopGhost;
},
{
place = "{12, 26}";
type = Stem;
},
{
place = "{522, 44}";
type = Stem;
}
);
layerId = "197ECFA8-A16D-41AC-99D0-22A54F6A6421";
paths = (
{
closed = 1;
nodes = (
"569 754 OFFCURVE",
"524 758 OFFCURVE",
"522 724 CURVE SMOOTH",
"521 705 OFFCURVE",
"519 686 OFFCURVE",
"518 668 CURVE",
"478 664 OFFCURVE",
"441 658 OFFCURVE",
"411 652 CURVE SMOOTH",
"261 623 OFFCURVE",
"-18 510 OFFCURVE",
"15 343 CURVE SMOOTH",
"21 312 OFFCURVE",
"33 279 OFFCURVE",
"65 259 CURVE SMOOTH",
"84 248 OFFCURVE",
"96 260 OFFCURVE",
"78 272 CURVE SMOOTH",
"57 285 OFFCURVE",
"46 308 OFFCURVE",
"40 338 CURVE SMOOTH",
"10 492 OFFCURVE",
"274 602 OFFCURVE",
"515 633 CURVE",
"436 -267 OFFCURVE",
"71 -156 OFFCURVE",
"62 -115 CURVE SMOOTH",
"58 -92 OFFCURVE",
"14 -103 OFFCURVE",
"28 -122 CURVE SMOOTH",
"144 -273 OFFCURVE",
"519 -48 OFFCURVE",
"564 639 CURVE",
"713 652 OFFCURVE",
"844 633 OFFCURVE",
"879 573 CURVE SMOOTH",
"889 555 OFFCURVE",
"905 564 OFFCURVE",
"894 582 CURVE SMOOTH",
"846 665 OFFCURVE",
"698 680 OFFCURVE",
"566 672 CURVE",
"567 688 OFFCURVE",
"568 705 OFFCURVE",
"568 722 CURVE SMOOTH"
);
}
);
width = 562;
}
);
note = T;
unicode = 0054;
},
{
glyphname = U;
layers = (
{
hints = (
{
horizontal = 1;
place = "{-93, 29}";
type = Stem;
},
{
horizontal = 1;
place = "{-49, 17}";
type = Stem;
},
{
horizontal = 1;
place = "{748, 43}";
type = Stem;
},
{
place = "{12, 46}";
type = Stem;
},
{
place = "{137, 38}";
type = Stem;
},
{
place = "{374, 34}";
type = Stem;
}
);
layerId = "197ECFA8-A16D-41AC-99D0-22A54F6A6421";
paths = (
{
closed = 1;
nodes = (
"594 127 OFFCURVE",
"584 136 OFFCURVE",
"568 108 CURVE SMOOTH",
"550 76 OFFCURVE",
"454 -112 OFFCURVE",
"414 6 CURVE SMOOTH",
"390 76 OFFCURVE",
"448 394 OFFCURVE",
"519 565 CURVE SMOOTH",
"565 678 OFFCURVE",
"483 677 OFFCURVE",
"472 619 CURVE SMOOTH",
"438 436 OFFCURVE",
"311 165 OFFCURVE",
"241 69 CURVE SMOOTH",
"170 -30 OFFCURVE",
"54 -166 OFFCURVE",
"58 52 CURVE SMOOTH",
"62 258 OFFCURVE",
"171 480 OFFCURVE",
"175 664 CURVE SMOOTH",
"176 704 OFFCURVE",
"167 765 OFFCURVE",
"130 785 CURVE SMOOTH",
"82 812 OFFCURVE",
"30 737 OFFCURVE",
"35 695 CURVE",
"35 675 OFFCURVE",
"76 761 OFFCURVE",
"112 747 CURVE SMOOTH",
"172 723 OFFCURVE",
"106 466 OFFCURVE",
"94 425 CURVE SMOOTH",
"74 358 OFFCURVE",
"14 162 OFFCURVE",
"12 40 CURVE SMOOTH",
"6 -282 OFFCURVE",
"303 45 OFFCURVE",
"398 316 CURVE",
"378 212 OFFCURVE",
"352 34 OFFCURVE",
"410 -30 CURVE SMOOTH",
"455 -80 OFFCURVE",
"518 -23 OFFCURVE",
"543 20 CURVE SMOOTH",
"551 33 OFFCURVE",
"585 88 OFFCURVE",
"591 115 CURVE SMOOTH"
);
}
);
width = 546;
}
);
note = U;
unicode = 0055;
},
{
glyphname = V;
layers = (
{
hints = (
{
horizontal = 1;
place = "{610, 43}";
type = Stem;
},
{
horizontal = 1;
place = "{788, 24}";
type = Stem;
},
{
place = "{279, 45}";
type = Stem;
}
);
layerId = "197ECFA8-A16D-41AC-99D0-22A54F6A6421";
paths = (
{
closed = 1;
nodes = (
"932 803 OFFCURVE",
"867 826 OFFCURVE",
"802 804 CURVE SMOOTH",
"540 713 OFFCURVE",
"381 263 OFFCURVE",
"310 20 CURVE",
"344 266 OFFCURVE",
"324 653 OFFCURVE",
"184 653 CURVE SMOOTH",
"119 653 OFFCURVE",
"18 563 OFFCURVE",
"-6 509 CURVE SMOOTH",
"-8 504 OFFCURVE",
"-4 497 OFFCURVE",
"4 506 CURVE SMOOTH",
"48 552 OFFCURVE",
"85 610 OFFCURVE",
"154 610 CURVE SMOOTH",
"316 610 OFFCURVE",
"274 100 OFFCURVE",
"276 0 CURVE SMOOTH",
"277 -47 OFFCURVE",
"316 -24 OFFCURVE",
"326 8 CURVE SMOOTH",
"440 383 OFFCURVE",
"624 710 OFFCURVE",
"826 780 CURVE SMOOTH",
"898 805 OFFCURVE",
"926 772 OFFCURVE",
"926 730 CURVE SMOOTH",
"926 688 OFFCURVE",
"944 718 OFFCURVE",
"943 738 CURVE"
);
}
);
width = 444;
}
);
note = V;
unicode = 0056;
},
{
glyphname = W;
layers = (
{
hints = (
{
horizontal = 1;
place = "{-114, 42}";
type = Stem;
},
{
horizontal = 1;
place = "{9, 28}";
type = Stem;
},
{
horizontal = 1;
place = "{766, -20}";
target = down;
type = TopGhost;
},
{
place = "{114, 42}";
type = Stem;
}
);
layerId = "197ECFA8-A16D-41AC-99D0-22A54F6A6421";
paths = (
{
closed = 1;
nodes = (
"387 443 OFFCURVE",
"386 421 OFFCURVE",
"400 400 CURVE",
"381 300 OFFCURVE",
"344 157 OFFCURVE",
"299 71 CURVE SMOOTH",
"242 -37 OFFCURVE",
"149 -174 OFFCURVE",
"123 42 CURVE SMOOTH",
"103 211 OFFCURVE",
"229 727 OFFCURVE",
"89 765 CURVE SMOOTH",
"36 779 OFFCURVE",
"-3 703 OFFCURVE",
"8 662 CURVE",
"10 642 OFFCURVE",
"44 748 OFFCURVE",
"82 739 CURVE SMOOTH",
"164 720 OFFCURVE",
"62 122 OFFCURVE",
"76 11 CURVE SMOOTH",
"114 -307 OFFCURVE",
"363 43 OFFCURVE",
"436 376 CURVE",
"444 332 OFFCURVE",
"458 273 OFFCURVE",
"480 204 CURVE SMOOTH",
"543 7 OFFCURVE",
"699 -119 OFFCURVE",
"763 222 CURVE SMOOTH",
"781 318 OFFCURVE",
"782 411 OFFCURVE",
"779 504 CURVE",
"805 458 OFFCURVE",
"822 449 OFFCURVE",
"853 434 CURVE SMOOTH",
"859 431 OFFCURVE",
"883 443 OFFCURVE",
"873 451 CURVE",
"845 461 OFFCURVE",
"812 539 OFFCURVE",
"796 580 CURVE SMOOTH",
"787 604 OFFCURVE",
"773 642 OFFCURVE",
"759 661 CURVE SMOOTH",
"730 700 OFFCURVE",
"720 639 OFFCURVE",
"737 590 CURVE SMOOTH",
"799 411 OFFCURVE",
"717 -274 OFFCURVE",
"522 203 CURVE SMOOTH",
"485 292 OFFCURVE",
"466 414 OFFCURVE",
"444 515 CURVE SMOOTH",
"433 569 OFFCURVE",
"385 545 OFFCURVE",
"386 478 CURVE SMOOTH"
);
}
);
width = 805;
}
);
note = W;
unicode = 0057;
},
{
glyphname = X;
layers = (
{
hints = (
{
horizontal = 1;
place = "{34, 37}";
type = Stem;
},
{
horizontal = 1;
place = "{749, -20}";
target = down;
type = TopGhost;
},
{
place = "{436, 36}";
type = Stem;
}
);
layerId = "197ECFA8-A16D-41AC-99D0-22A54F6A6421";
paths = (
{
closed = 1;
nodes = (
"521 708 OFFCURVE",
"475 736 OFFCURVE",
"442 708 CURVE SMOOTH",
"366 641 OFFCURVE",
"271 507 OFFCURVE",
"204 411 CURVE",
"196 437 OFFCURVE",
"160 568 OFFCURVE",
"135 671 CURVE SMOOTH",
"122 728 OFFCURVE",
"28 840 OFFCURVE",
"87 612 CURVE SMOOTH",
"96 574 OFFCURVE",
"130 456 OFFCURVE",
"173 357 CURVE",
"77 201 OFFCURVE",
"-4 40 OFFCURVE",
"-24 -111 CURVE SMOOTH",
"-30 -153 OFFCURVE",
"-6 -140 OFFCURVE",
"0 -98 CURVE SMOOTH",
"18 34 OFFCURVE",
"103 194 OFFCURVE",
"187 319 CURVE",
"216 248 OFFCURVE",
"244 192 OFFCURVE",
"280 137 CURVE SMOOTH",
"345 39 OFFCURVE",
"464 -37 OFFCURVE",
"472 140 CURVE SMOOTH",
"477 244 OFFCURVE",
"444 397 OFFCURVE",
"431 436 CURVE SMOOTH",
"419 473 OFFCURVE",
"396 512 OFFCURVE",
"410 430 CURVE SMOOTH",
"414 407 OFFCURVE",
"440 249 OFFCURVE",
"436 151 CURVE SMOOTH",
"433 72 OFFCURVE",
"393 29 OFFCURVE",
"327 130 CURVE SMOOTH",
"266 225 OFFCURVE",
"231 322 OFFCURVE",
"218 350 CURVE",
"291 447 OFFCURVE",
"405 607 OFFCURVE",
"488 679 CURVE SMOOTH"
);
}
);
width = 497;
}
);
note = X;
unicode = 0058;
},
{
glyphname = Y;
layers = (
{
hints = (
{
horizontal = 1;
place = "{-389, 15}";
type = Stem;
},
{
horizontal = 1;
place = "{-13, 44}";
type = Stem;
},
{
horizontal = 1;
place = "{78, 14}";
type = Stem;
},
{
place = "{-87, 32}";
type = Stem;
},
{
place = "{29, 47}";
type = Stem;
}
);
layerId = "197ECFA8-A16D-41AC-99D0-22A54F6A6421";
paths = (
{
closed = 1;
nodes = (
"492 89 OFFCURVE",
"448 86 OFFCURVE",
"405 79 CURVE",
"419 227 OFFCURVE",
"397 458 OFFCURVE",
"359 549 CURVE SMOOTH",
"349 574 OFFCURVE",
"302 569 OFFCURVE",
"307 535 CURVE",
"310 525 OFFCURVE",
"313 516 OFFCURVE",
"316 506 CURVE",
"295 404 OFFCURVE",
"255 252 OFFCURVE",
"214 174 CURVE SMOOTH",
"157 66 OFFCURVE",
"64 -71 OFFCURVE",
"38 146 CURVE SMOOTH",
"18 315 OFFCURVE",
"156 808 OFFCURVE",
"4 868 CURVE SMOOTH",
"-48 888 OFFCURVE",
"-88 806 OFFCURVE",
"-77 765 CURVE",
"-75 746 OFFCURVE",
"-42 852 OFFCURVE",
"-3 843 CURVE SMOOTH",
"79 823 OFFCURVE",
"-23 225 OFFCURVE",
"-9 114 CURVE SMOOTH",
"27 -185 OFFCURVE",
"255 91 OFFCURVE",
"329 461 CURVE",
"364 335 OFFCURVE",
"387 196 OFFCURVE",
"381 72 CURVE",
"166 25 OFFCURVE",
"12 -95 OFFCURVE",
"-49 -184 CURVE SMOOTH",
"-164 -353 OFFCURVE",
"3 -465 OFFCURVE",
"194 -325 CURVE SMOOTH",
"278 -264 OFFCURVE",
"365 -144 OFFCURVE",
"402 59 CURVE",
"445 69 OFFCURVE",
"488 75 OFFCURVE",
"530 78 CURVE SMOOTH",
"559 80 OFFCURVE",
"568 95 OFFCURVE",
"540 93 CURVE SMOOTH"
);
},
{
closed = 1;
nodes = (
"359 -109 OFFCURVE",
"262 -256 OFFCURVE",
"123 -338 CURVE SMOOTH",
"-40 -434 OFFCURVE",
"-106 -318 OFFCURVE",
"-9 -192 CURVE SMOOTH",
"76 -79 OFFCURVE",
"238 14 OFFCURVE",
"379 51 CURVE"
);
}
);
width = 439;
}
);
note = Y;
unicode = 0059;
},
{
glyphname = Z;
layers = (
{
hints = (
{
horizontal = 1;
place = "{56, 57}";
type = Stem;
},
{
horizontal = 1;
place = "{541, 40}";
type = Stem;
},
{
place = "{93, 26}";
type = Stem;
},
{
place = "{560, 21}";
type = Stem;
}
);
layerId = "197ECFA8-A16D-41AC-99D0-22A54F6A6421";
paths = (
{
closed = 1;
nodes = (
"166 689 OFFCURVE",
"167 695 OFFCURVE",
"139 690 CURVE SMOOTH",
"122 687 OFFCURVE",
"83 655 OFFCURVE",
"94 616 CURVE SMOOTH",
"124 506 OFFCURVE",
"450 547 OFFCURVE",
"502 557 CURVE SMOOTH",
"526 562 OFFCURVE",
"546 566 OFFCURVE",
"564 571 CURVE",
"343 381 OFFCURVE",
"73 207 OFFCURVE",
"12 -31 CURVE SMOOTH",
"3 -68 OFFCURVE",
"37 -68 OFFCURVE",
"59 -44 CURVE",
"212 40 OFFCURVE",
"627 115 OFFCURVE",
"550 -10 CURVE SMOOTH",
"528 -46 OFFCURVE",
"578 -27 OFFCURVE",
"580 9 CURVE SMOOTH",
"583 45 OFFCURVE",
"588 109 OFFCURVE",
"471 113 CURVE SMOOTH",
"339 118 OFFCURVE",
"143 26 OFFCURVE",
"63 -22 CURVE",
"149 269 OFFCURVE",
"425 428 OFFCURVE",
"616 541 CURVE SMOOTH",
"671 573 OFFCURVE",
"631 632 OFFCURVE",
"610 623 CURVE SMOOTH",
"528 586 OFFCURVE",
"14 536 OFFCURVE",
"137 660 CURVE SMOOTH"
);
}
);
width = 565;
}
);
note = Z;
unicode = 005A;
},
{
glyphname = a;
layers = (
{
hints = (
{
horizontal = 1;
place = "{8, 28}";
type = Stem;
},
{
horizontal = 1;
place = "{48, 15}";
type = Stem;
},
{
place = "{27, 35}";
type = Stem;
}
);
layerId = "197ECFA8-A16D-41AC-99D0-22A54F6A6421";
paths = (
{
closed = 1;
nodes = (
"308 99 OFFCURVE",
"286 107 OFFCURVE",
"277 91 CURVE SMOOTH",
"231 13 OFFCURVE",
"229 117 OFFCURVE",
"235 155 CURVE SMOOTH",
"239 185 OFFCURVE",
"246 214 OFFCURVE",
"241 228 CURVE SMOOTH",
"236 246 OFFCURVE",
"215 246 OFFCURVE",
"205 232 CURVE",
"184 182 OFFCURVE",
"159 122 OFFCURVE",
"129 79 CURVE SMOOTH",
"87 21 OFFCURVE",
"54 15 OFFCURVE",
"64 94 CURVE SMOOTH",
"67 122 OFFCURVE",
"78 181 OFFCURVE",
"100 230 CURVE SMOOTH",
"126 290 OFFCURVE",
"180 344 OFFCURVE",
"216 261 CURVE SMOOTH",
"224 243 OFFCURVE",
"242 268 OFFCURVE",
"234 302 CURVE SMOOTH",
"227 327 OFFCURVE",
"204 346 OFFCURVE",
"179 341 CURVE SMOOTH",
"93 324 OFFCURVE",
"0 80 OFFCURVE",
"34 25 CURVE SMOOTH",
"79 -47 OFFCURVE",
"176 124 OFFCURVE",
"192 164 CURVE",
"193 150 OFFCURVE",
"187 112 OFFCURVE",
"210 68 CURVE SMOOTH",
"226 37 OFFCURVE",
"271 44 OFFCURVE",
"292 75 CURVE SMOOTH"
);
}
);
width = 263;
}
);
note = a;
unicode = 0061;
},
{
glyphname = ae;
layers = (
{
hints = (
{
horizontal = 1;
place = "{6, 12}";
type = Stem;
},
{
horizontal = 1;
place = "{291, 40}";
type = Stem;
},
{
horizontal = 1;
place = "{397, -20}";
target = down;
type = TopGhost;
},
{
place = "{11, 34}";
type = Stem;
},
{
place = "{188, 33}";
type = Stem;
},
{
place = "{290, 28}";
type = Stem;
},
{
horizontal = 1;
place = "{287, 40}";
type = Stem;
},
{
horizontal = 1;
place = "{-1, 16}";
type = Stem;
},
{
place = "{9, 31}";
type = Stem;
}
);
layerId = "197ECFA8-A16D-41AC-99D0-22A54F6A6421";
paths = (
{
closed = 1;
nodes = (
"433 161 OFFCURVE",
"425 179 OFFCURVE",
"405 139 CURVE SMOOTH",
"318 -32 OFFCURVE",
"215 -5 OFFCURVE",
"221 146 CURVE SMOOTH",
"224 183 OFFCURVE",
"241 290 OFFCURVE",
"283 287 CURVE SMOOTH",
"301 286 OFFCURVE",
"312 260 OFFCURVE",
"293 223 CURVE SMOOTH",
"283 203 OFFCURVE",
"266 180 OFFCURVE",
"247 167 CURVE SMOOTH",
"229 156 OFFCURVE",
"223 140 OFFCURVE",
"245 148 CURVE SMOOTH",
"268 157 OFFCURVE",
"299 189 OFFCURVE",
"317 224 CURVE SMOOTH",
"359 307 OFFCURVE",
"297 351 OFFCURVE",
"246 313 CURVE",
"243 336 OFFCURVE",
"233 353 OFFCURVE",
"218 365 CURVE SMOOTH",
"205 376 OFFCURVE",
"180 383 OFFCURVE",
"156 380 CURVE SMOOTH",
"129 377 OFFCURVE",
"74 353 OFFCURVE",
"63 316 CURVE SMOOTH",
"61 310 OFFCURVE",
"59 302 OFFCURVE",
"65 300 CURVE SMOOTH",
"72 299 OFFCURVE",
"85 325 OFFCURVE",
"88 330 CURVE SMOOTH",
"92 339 OFFCURVE",
"104 352 OFFCURVE",
"115 358 CURVE SMOOTH",
"133 369 OFFCURVE",
"150 367 OFFCURVE",
"163 363 CURVE SMOOTH",
"203 350 OFFCURVE",
"209 295 OFFCURVE",
"200 246 CURVE",
"188 258 OFFCURVE",
"166 267 OFFCURVE",
"153 266 CURVE SMOOTH",
"68 253 OFFCURVE",
"-16 80 OFFCURVE",
"18 25 CURVE SMOOTH",
"63 -47 OFFCURVE",
"151 89 OFFCURVE",
"186 170 CURVE",
"178 121 OFFCURVE",
"194 -1 OFFCURVE",
"279 -1 CURVE SMOOTH",
"331 -1 OFFCURVE",
"395 52 OFFCURVE",
"429 149 CURVE SMOOTH"
);
},
{
closed = 1;
nodes = (
"71 21 OFFCURVE",
"38 27 OFFCURVE",
"40 80 CURVE SMOOTH",
"41 108 OFFCURVE",
"57 149 OFFCURVE",
"83 187 CURVE SMOOTH",
"115 233 OFFCURVE",
"169 276 OFFCURVE",
"190 219 CURVE",
"171 173 OFFCURVE",
"139 117 OFFCURVE",
"113 79 CURVE SMOOTH"
);
}
);
width = 364;
}
);
note = ae;
unicode = 00E6;
},
{
glyphname = b;
layers = (
{
hints = (
{
horizontal = 1;
place = "{-23, 18}";
type = Stem;
},
{
horizontal = 1;
place = "{257, 17}";
type = Stem;
},
{
place = "{57, 21}";
type = Stem;
},
{
place = "{202, 38}";
type = Stem;
}
);
layerId = "197ECFA8-A16D-41AC-99D0-22A54F6A6421";
paths = (
{
closed = 1;
nodes = (
"189 282 OFFCURVE",
"137 276 OFFCURVE",
"100 257 CURVE",
"114 344 OFFCURVE",
"134 424 OFFCURVE",
"154 463 CURVE SMOOTH",
"175 505 OFFCURVE",
"194 538 OFFCURVE",
"192 556 CURVE SMOOTH",
"191 575 OFFCURVE",
"163 586 OFFCURVE",
"146 568 CURVE SMOOTH",
"110 528 OFFCURVE",
"80 380 OFFCURVE",
"66 233 CURVE",
"42 212 OFFCURVE",
"10 179 OFFCURVE",
"6 167 CURVE SMOOTH",
"0 150 OFFCURVE",
"10 141 OFFCURVE",
"20 151 CURVE SMOOTH",
"29 160 OFFCURVE",
"45 184 OFFCURVE",
"63 205 CURVE",
"53 82 OFFCURVE",
"56 -34 OFFCURVE",
"77 -78 CURVE SMOOTH",
"86 -97 OFFCURVE",
"101 -87 OFFCURVE",
"88 -53 CURVE SMOOTH",
"70 -6 OFFCURVE",
"78 118 OFFCURVE",
"96 235 CURVE",
"234 322 OFFCURVE",
"222 128 OFFCURVE",
"152 33 CURVE SMOOTH",
"142 19 OFFCURVE",
"98 -36 OFFCURVE",
"110 18 CURVE SMOOTH",
"118 55 OFFCURVE",
"147 114 OFFCURVE",
"164 146 CURVE SMOOTH",
"168 153 OFFCURVE",
"170 158 OFFCURVE",
"173 162 CURVE SMOOTH",
"186 184 OFFCURVE",
"176 182 OFFCURVE",
"171 176 CURVE SMOOTH",
"166 170 OFFCURVE",
"160 162 OFFCURVE",
"154 152 CURVE SMOOTH",
"129 114 OFFCURVE",
"99 51 OFFCURVE",
"90 18 CURVE SMOOTH",
"85 -3 OFFCURVE",
"96 -30 OFFCURVE",
"123 -22 CURVE SMOOTH",
"140 -17 OFFCURVE",
"152 -3 OFFCURVE",
"163 9 CURVE SMOOTH",
"209 57 OFFCURVE",
"277 193 OFFCURVE",
"217 254 CURVE SMOOTH"
);
}
);
width = 241;
}
);
note = b;
unicode = 0062;
},
{
glyphname = c;
layers = (
{
hints = (
{
place = "{13, 38}";
type = Stem;
}
);
layerId = "197ECFA8-A16D-41AC-99D0-22A54F6A6421";
paths = (
{
closed = 1;
nodes = (
"239 131 OFFCURVE",
"239 164 OFFCURVE",
"214 119 CURVE SMOOTH",
"200 94 OFFCURVE",
"137 -2 OFFCURVE",
"72 8 CURVE SMOOTH",
"13 17 OFFCURVE",
"91 282 OFFCURVE",
"154 279 CURVE SMOOTH",
"169 278 OFFCURVE",
"165 251 OFFCURVE",
"180 249 CURVE SMOOTH",
"206 245 OFFCURVE",
"212 328 OFFCURVE",
"158 317 CURVE SMOOTH",
"91 304 OFFCURVE",
"13 127 OFFCURVE",
"13 57 CURVE SMOOTH",
"13 -41 OFFCURVE",
"98 -32 OFFCURVE",
"152 9 CURVE SMOOTH",
"186 35 OFFCURVE",
"216 73 OFFCURVE",
"233 117 CURVE SMOOTH"
);
}
);
width = 183;
}
);
note = c;
unicode = 0063;
},
{
glyphname = d;
layers = (
{
hints = (
{
horizontal = 1;
place = "{10, 18}";
type = Stem;
},
{
horizontal = 1;
place = "{563, -20}";
target = down;
type = TopGhost;
},
{
place = "{11, 38}";
type = Stem;
},
{
place = "{205, 27}";
type = Stem;
}
);
layerId = "197ECFA8-A16D-41AC-99D0-22A54F6A6421";
paths = (
{
closed = 1;
nodes = (
"373 165 OFFCURVE",
"366 190 OFFCURVE",
"347 149 CURVE SMOOTH",
"325 102 OFFCURVE",
"235 -56 OFFCURVE",
"232 87 CURVE SMOOTH",
"228 238 OFFCURVE",
"278 408 OFFCURVE",
"309 512 CURVE SMOOTH",
"314 530 OFFCURVE",
"309 553 OFFCURVE",
"299 560 CURVE SMOOTH",
"288 569 OFFCURVE",
"274 553 OFFCURVE",
"269 536 CURVE SMOOTH",
"238 447 OFFCURVE",
"226 350 OFFCURVE",
"215 257 CURVE",
"196 190 OFFCURVE",
"127 -27 OFFCURVE",
"70 -18 CURVE SMOOTH",
"11 -9 OFFCURVE",
"88 250 OFFCURVE",
"151 248 CURVE SMOOTH",
"167 247 OFFCURVE",
"163 220 OFFCURVE",
"178 217 CURVE SMOOTH",
"204 213 OFFCURVE",
"210 296 OFFCURVE",
"156 286 CURVE SMOOTH",
"89 273 OFFCURVE",
"11 96 OFFCURVE",
"11 25 CURVE SMOOTH",
"11 -23 OFFCURVE",
"33 -58 OFFCURVE",
"77 -44 CURVE SMOOTH",
"130 -26 OFFCURVE",
"187 117 OFFCURVE",
"208 190 CURVE",
"202 107 OFFCURVE",
"204 33 OFFCURVE",
"228 16 CURVE SMOOTH",
"271 -13 OFFCURVE",
"326 68 OFFCURVE",
"342 96 CURVE SMOOTH",
"357 122 OFFCURVE",
"353 120 OFFCURVE",
"365 147 CURVE SMOOTH"
);
}
);
width = 300;
}
);
note = d;
unicode = 0064;
},
{
glyphname = eth;
layers = (
{
hints = (
{
horizontal = 1;
place = "{565, -20}";
target = down;
type = TopGhost;
}
);
layerId = "197ECFA8-A16D-41AC-99D0-22A54F6A6421";
paths = (
{
closed = 1;
nodes = (
"255 565 OFFCURVE",
"220 562 OFFCURVE",
"174 551 CURVE",
"141 583 OFFCURVE",
"107 610 OFFCURVE",
"77 632 CURVE SMOOTH",
"63 641 OFFCURVE",
"50 630 OFFCURVE",
"69 616 CURVE SMOOTH",
"92 598 OFFCURVE",
"118 573 OFFCURVE",
"146 544 CURVE",
"125 538 OFFCURVE",
"102 530 OFFCURVE",
"78 521 CURVE SMOOTH",
"71 519 OFFCURVE",
"97 499 OFFCURVE",
"102 502 CURVE",
"165 523 LINE",
"199 484 OFFCURVE",
"232 440 OFFCURVE",
"260 393 CURVE",
"243 407 OFFCURVE",
"222 414 OFFCURVE",
"197 408 CURVE SMOOTH",
"162 400 OFFCURVE",
"126 363 OFFCURVE",
"105 303 CURVE SMOOTH",
"74 224 OFFCURVE",
"91 131 OFFCURVE",
"125 67 CURVE SMOOTH",
"152 22 OFFCURVE",
"205 -38 OFFCURVE",
"273 3 CURVE SMOOTH",
"321 32 OFFCURVE",
"339 83 OFFCURVE",
"345 152 CURVE SMOOTH",
"359 317 OFFCURVE",
"281 442 OFFCURVE",
"194 532 CURVE",
"224 542 OFFCURVE",
"252 550 OFFCURVE",
"275 556 CURVE SMOOTH",
"281 557 OFFCURVE",
"282 565 OFFCURVE",
"276 565 CURVE SMOOTH"
);
},
{
closed = 1;
nodes = (
"143 342 OFFCURVE",
"165 391 OFFCURVE",
"203 384 CURVE SMOOTH",
"310 365 OFFCURVE",
"311 196 OFFCURVE",
"314 167 CURVE SMOOTH",
"325 42 OFFCURVE",
"227 -27 OFFCURVE",
"172 41 CURVE SMOOTH",
"120 103 OFFCURVE",
"115 216 OFFCURVE",
"135 308 CURVE SMOOTH"
);
}
);
width = 402;
}
);
note = eth;
unicode = 00F0;
},
{
glyphname = e;
layers = (
{
hints = (
{
horizontal = 1;
place = "{3, 16}";
type = Stem;
},
{
horizontal = 1;
place = "{291, 40}";
type = Stem;
},
{
place = "{42, 33}";
type = Stem;
},
{
place = "{157, 28}";
type = Stem;
}
);
layerId = "197ECFA8-A16D-41AC-99D0-22A54F6A6421";
paths = (
{
closed = 1;
nodes = (
"261 148 OFFCURVE",
"244 152 OFFCURVE",
"232 128 CURVE SMOOTH",
"139 -67 OFFCURVE",
"34 -2 OFFCURVE",
"62 188 CURVE SMOOTH",
"84 337 OFFCURVE",
"169 303 OFFCURVE",
"130 227 CURVE SMOOTH",
"120 207 OFFCURVE",
"103 184 OFFCURVE",
"84 171 CURVE SMOOTH",
"66 160 OFFCURVE",
"60 144 OFFCURVE",
"82 152 CURVE SMOOTH",
"105 161 OFFCURVE",
"136 193 OFFCURVE",
"154 228 CURVE SMOOTH",
"219 357 OFFCURVE",
"29 392 OFFCURVE",
"26 173 CURVE SMOOTH",
"23 -75 OFFCURVE",
"178 -56 OFFCURVE",
"250 121 CURVE SMOOTH"
);
}
);
width = 198;
}
);
note = e;
unicode = 0065;
},
{
glyphname = schwa;
lastChange = "2021-09-13 17:48:20 +0000";
layers = (
{
layerId = "197ECFA8-A16D-41AC-99D0-22A54F6A6421";
paths = (
{
closed = 1;
nodes = (
"3 182 OFFCURVE",
"20 178 OFFCURVE",
"32 202 CURVE SMOOTH",
"125 397 OFFCURVE",
"230 332 OFFCURVE",
"202 142 CURVE SMOOTH",
"180 -7 OFFCURVE",
"95 27 OFFCURVE",
"134 103 CURVE SMOOTH",
"144 123 OFFCURVE",
"161 146 OFFCURVE",
"180 159 CURVE SMOOTH",
"198 170 OFFCURVE",
"204 186 OFFCURVE",
"182 178 CURVE SMOOTH",
"159 169 OFFCURVE",
"128 137 OFFCURVE",
"110 102 CURVE SMOOTH",
"45 -27 OFFCURVE",
"235 -62 OFFCURVE",
"238 157 CURVE SMOOTH",
"241 405 OFFCURVE",
"86 386 OFFCURVE",
"14 209 CURVE SMOOTH"
);
}
);
width = 263;
}
);
unicode = 0259;
},
{
glyphname = f;
layers = (
{
hints = (
{
horizontal = 1;
place = "{543, 52}";
type = Stem;
},
{
place = "{4, 67}";
type = Stem;
},
{
place = "{241, 19}";
type = Stem;
}
);
layerId = "197ECFA8-A16D-41AC-99D0-22A54F6A6421";
paths = (
{
closed = 1;
nodes = (
"204 297 OFFCURVE",
"171 303 OFFCURVE",
"126 303 CURVE",
"129 315 LINE SMOOTH",
"159 470 OFFCURVE",
"183 544 OFFCURVE",
"223 581 CURVE SMOOTH",
"273 627 OFFCURVE",
"310 578 OFFCURVE",
"261 515 CURVE SMOOTH",
"253 505 OFFCURVE",
"257 488 OFFCURVE",
"265 497 CURVE SMOOTH",
"366 620 OFFCURVE",
"247 666 OFFCURVE",
"207 632 CURVE SMOOTH",
"142 580 OFFCURVE",
"114 447 OFFCURVE",
"91 303 CURVE",
"70 302 OFFCURVE",
"46 300 OFFCURVE",
"21 297 CURVE SMOOTH",
"14 296 OFFCURVE",
"34 271 OFFCURVE",
"40 272 CURVE SMOOTH",
"55 273 OFFCURVE",
"71 275 OFFCURVE",
"87 277 CURVE",
"68 158 OFFCURVE",
"52 34 OFFCURVE",
"20 -56 CURVE SMOOTH",
"-6 -129 OFFCURVE",
"-36 -198 OFFCURVE",
"-91 -239 CURVE SMOOTH",
"-125 -265 OFFCURVE",
"-147 -268 OFFCURVE",
"-157 -249 CURVE SMOOTH",
"-160 -244 OFFCURVE",
"-164 -236 OFFCURVE",
"-169 -230 CURVE",
"-190 -210 OFFCURVE",
"-205 -238 OFFCURVE",
"-197 -254 CURVE SMOOTH",
"-193 -261 OFFCURVE",
"-188 -267 OFFCURVE",
"-182 -271 CURVE SMOOTH",
"-160 -285 OFFCURVE",
"-125 -281 OFFCURVE",
"-86 -261 CURVE SMOOTH",
"-30 -230 OFFCURVE",
"13 -157 OFFCURVE",
"45 -67 CURVE SMOOTH",
"80 29 OFFCURVE",
"100 159 OFFCURVE",
"122 279 CURVE",
"158 282 OFFCURVE",
"193 283 OFFCURVE",
"221 283 CURVE SMOOTH",
"227 283 OFFCURVE",
"230 290 OFFCURVE",
"224 292 CURVE SMOOTH"
);
}
);
width = 181;
}
);
note = f;
unicode = 0066;
},
{
glyphname = g;
layers = (
{
hints = (
{
horizontal = 1;
place = "{-398, 24}";
type = Stem;
},
{
horizontal = 1;
place = "{-24, 30}";
type = Stem;
},
{
horizontal = 1;
place = "{252, 68}";
type = Stem;
},
{
place = "{-65, 36}";
type = Stem;
},
{
place = "{225, 24}";
type = Stem;
}
);
layerId = "197ECFA8-A16D-41AC-99D0-22A54F6A6421";
paths = (
{
closed = 1;
nodes = (
"252 347 OFFCURVE",
"245 369 OFFCURVE",
"234 376 CURVE SMOOTH",
"222 383 OFFCURVE",
"212 365 OFFCURVE",
"201 295 CURVE SMOOTH",
"191 227 OFFCURVE",
"143 4 OFFCURVE",
"86 6 CURVE SMOOTH",
"26 9 OFFCURVE",
"76 276 OFFCURVE",
"139 279 CURVE SMOOTH",
"155 280 OFFCURVE",
"153 253 OFFCURVE",
"169 252 CURVE SMOOTH",
"195 251 OFFCURVE",
"192 334 OFFCURVE",
"140 318 CURVE SMOOTH",
"75 298 OFFCURVE",
"15 114 OFFCURVE",
"22 44 CURVE SMOOTH",
"28 -4 OFFCURVE",
"53 -37 OFFCURVE",
"95 -18 CURVE SMOOTH",
"146 5 OFFCURVE",
"188 153 OFFCURVE",
"201 229 CURVE",
"202 179 OFFCURVE",
"206 129 OFFCURVE",
"213 76 CURVE SMOOTH",
"241 -118 OFFCURVE",
"226 -238 OFFCURVE",
"101 -334 CURVE SMOOTH",
"-5 -415 OFFCURVE",
"-64 -363 OFFCURVE",
"-7 -266 CURVE SMOOTH",
"46 -175 OFFCURVE",
"92 -125 OFFCURVE",
"185 -79 CURVE SMOOTH",
"203 -70 OFFCURVE",
"204 -55 OFFCURVE",
"186 -64 CURVE SMOOTH",
"154 -80 OFFCURVE",
"124 -94 OFFCURVE",
"97 -112 CURVE SMOOTH",
"-366 -407 OFFCURVE",
"319 -641 OFFCURVE",
"243 80 CURVE SMOOTH",
"234 161 OFFCURVE",
"233 248 OFFCURVE",
"248 329 CURVE SMOOTH"
);
}
);
width = 285;
}
);
note = g;
unicode = 0067;
},
{
glyphname = h;
layers = (
{
hints = (
{
horizontal = 1;
place = "{-175, 16}";
type = Stem;
},
{
horizontal = 1;
place = "{575, -20}";
target = down;
type = TopGhost;
},
{
place = "{26, 22}";
type = Stem;
},
{
place = "{93, 29}";
type = Stem;
}
);
layerId = "197ECFA8-A16D-41AC-99D0-22A54F6A6421";
paths = (
{
closed = 1;
nodes = (
"278 313 OFFCURVE",
"203 278 OFFCURVE",
"182 260 CURVE SMOOTH",
"138 223 OFFCURVE",
"92 159 OFFCURVE",
"65 105 CURVE SMOOTH",
"57 91 OFFCURVE",
"49 77 OFFCURVE",
"46 61 CURVE",
"45 61 LINE",
"45 60 LINE",
"44 60 OFFCURVE",
"48 95 OFFCURVE",
"48 97 CURVE SMOOTH",
"67 321 OFFCURVE",
"202 541 OFFCURVE",
"200 556 CURVE SMOOTH",
"198 565 OFFCURVE",
"187 580 OFFCURVE",
"176 573 CURVE",
"135 568 OFFCURVE",
"15 211 OFFCURVE",
"26 50 CURVE SMOOTH",
"27 38 OFFCURVE",
"30 20 OFFCURVE",
"44 18 CURVE SMOOTH",
"53 17 OFFCURVE",
"55 41 OFFCURVE",
"57 48 CURVE SMOOTH",
"65 89 OFFCURVE",
"103 155 OFFCURVE",
"146 203 CURVE SMOOTH",
"164 223 OFFCURVE",
"249 315 OFFCURVE",
"221 228 CURVE SMOOTH",
"199 159 OFFCURVE",
"33 -111 OFFCURVE",
"117 -169 CURVE SMOOTH",
"135 -181 OFFCURVE",
"162 -174 OFFCURVE",
"180 -159 CURVE SMOOTH",
"182 -157 OFFCURVE",
"192 -149 OFFCURVE",
"194 -144 CURVE SMOOTH",
"199 -127 OFFCURVE",
"183 -142 OFFCURVE",
"180 -145 CURVE SMOOTH",
"165 -158 OFFCURVE",
"135 -176 OFFCURVE",
"125 -121 CURVE SMOOTH",
"112 -48 OFFCURVE",
"146 23 OFFCURVE",
"182 84 CURVE SMOOTH",
"219 146 OFFCURVE",
"262 204 OFFCURVE",
"268 243 CURVE SMOOTH"
);
}
);
width = 234;
}
);
note = h;
unicode = 0068;
},
{
glyphname = i;
layers = (
{
hints = (
{
horizontal = 1;
place = "{-24, 12}";
type = Stem;
},
{
horizontal = 1;
place = "{403, -20}";
target = down;
type = TopGhost;
},
{
place = "{22, 29}";
type = Stem;
},
{
place = "{114, 56}";
type = Stem;
}
);
layerId = "197ECFA8-A16D-41AC-99D0-22A54F6A6421";
paths = (
{
closed = 1;
nodes = (
"126 402 OFFCURVE",
"107 364 OFFCURVE",
"118 343 CURVE SMOOTH",
"120 340 OFFCURVE",
"123 336 OFFCURVE",
"127 335 CURVE SMOOTH",
"153 327 OFFCURVE",
"199 405 OFFCURVE",
"146 403 CURVE SMOOTH"
);
},
{
closed = 1;
nodes = (
"220 142 OFFCURVE",
"214 162 OFFCURVE",
"195 123 CURVE SMOOTH",
"143 16 OFFCURVE",
"54 -69 OFFCURVE",
"51 35 CURVE SMOOTH",
"49 107 OFFCURVE",
"65 142 OFFCURVE",
"94 200 CURVE SMOOTH",
"105 222 OFFCURVE",
"119 242 OFFCURVE",
"124 268 CURVE SMOOTH",
"126 279 OFFCURVE",
"126 292 OFFCURVE",
"117 299 CURVE SMOOTH",
"106 306 OFFCURVE",
"92 299 OFFCURVE",
"86 290 CURVE SMOOTH",
"76 276 OFFCURVE",
"68 261 OFFCURVE",
"61 246 CURVE SMOOTH",
"44 205 OFFCURVE",
"-10 24 OFFCURVE",
"49 -15 CURVE SMOOTH",
"64 -25 OFFCURVE",
"93 -32 OFFCURVE",
"127 -7 CURVE SMOOTH",
"172 28 OFFCURVE",
"195 70 OFFCURVE",
"214 125 CURVE SMOOTH"
);
}
);
width = 164;
}
);
note = i;
unicode = 0069;
},
{
glyphname = idotless;
lastChange = "2021-09-13 17:41:38 +0000";
layers = (
{
hints = (
{
horizontal = 1;
place = "{-24, 12}";
type = Stem;
},
{
horizontal = 1;
place = "{403, -20}";
target = down;
type = TopGhost;
},
{
place = "{22, 29}";
type = Stem;
},
{
place = "{114, 56}";
type = Stem;
}
);
layerId = "197ECFA8-A16D-41AC-99D0-22A54F6A6421";
paths = (
{
closed = 1;
nodes = (
"220 142 OFFCURVE",
"214 162 OFFCURVE",
"195 123 CURVE SMOOTH",
"143 16 OFFCURVE",
"54 -69 OFFCURVE",
"51 35 CURVE SMOOTH",
"49 107 OFFCURVE",
"65 142 OFFCURVE",
"94 200 CURVE SMOOTH",
"105 222 OFFCURVE",
"119 242 OFFCURVE",
"124 268 CURVE SMOOTH",
"126 279 OFFCURVE",
"126 292 OFFCURVE",
"117 299 CURVE SMOOTH",
"106 306 OFFCURVE",
"92 299 OFFCURVE",
"86 290 CURVE SMOOTH",
"76 276 OFFCURVE",
"68 261 OFFCURVE",
"61 246 CURVE SMOOTH",
"44 205 OFFCURVE",
"-10 24 OFFCURVE",
"49 -15 CURVE SMOOTH",
"64 -25 OFFCURVE",
"93 -32 OFFCURVE",
"127 -7 CURVE SMOOTH",
"172 28 OFFCURVE",
"195 70 OFFCURVE",
"214 125 CURVE SMOOTH"
);
}
);
width = 164;
}
);
note = dotlessi;
unicode = 0131;
},
{
glyphname = j;
layers = (
{
hints = (
{
horizontal = 1;
place = "{-365, 20}";
type = Stem;
},
{
place = "{-206, 30}";
type = Stem;
},
{
place = "{83, 29}";
type = Stem;
}
);
layerId = "197ECFA8-A16D-41AC-99D0-22A54F6A6421";
paths = (
{
closed = 1;
nodes = (
"44 391 OFFCURVE",
"25 353 OFFCURVE",
"36 333 CURVE SMOOTH",
"38 329 OFFCURVE",
"41 325 OFFCURVE",
"45 324 CURVE SMOOTH",
"71 316 OFFCURVE",
"117 395 OFFCURVE",
"64 392 CURVE SMOOTH"
);
},
{
closed = 1;
nodes = (
"98 196 OFFCURVE",
"95 236 OFFCURVE",
"93 258 CURVE SMOOTH",
"91 287 OFFCURVE",
"50 277 OFFCURVE",
"52 258 CURVE SMOOTH",
"65 129 OFFCURVE",
"154 -156 OFFCURVE",
"-45 -308 CURVE SMOOTH",
"-99 -349 OFFCURVE",
"-148 -352 OFFCURVE",
"-165 -338 CURVE SMOOTH",
"-180 -323 OFFCURVE",
"-181 -292 OFFCURVE",
"-158 -254 CURVE SMOOTH",
"-116 -181 OFFCURVE",
"-79 -141 OFFCURVE",
"-5 -104 CURVE SMOOTH",
"9 -97 OFFCURVE",
"11 -86 OFFCURVE",
"-4 -93 CURVE SMOOTH",
"-30 -106 OFFCURVE",
"-53 -117 OFFCURVE",
"-75 -131 CURVE SMOOTH",
"-222 -225 OFFCURVE",
"-227 -312 OFFCURVE",
"-179 -347 CURVE SMOOTH",
"-94 -410 OFFCURVE",
"152 -321 OFFCURVE",
"106 114 CURVE SMOOTH"
);
}
);
width = 157;
}
);
note = j;
unicode = 006A;
},
{
glyphname = jdotless;
lastChange = "2021-09-13 17:41:43 +0000";
layers = (
{
hints = (
{
horizontal = 1;
place = "{-365, 20}";
type = Stem;
},
{
place = "{-206, 30}";
type = Stem;
},
{
place = "{83, 29}";
type = Stem;
}
);
layerId = "197ECFA8-A16D-41AC-99D0-22A54F6A6421";
paths = (
{
closed = 1;
nodes = (
"98 196 OFFCURVE",
"95 236 OFFCURVE",
"93 258 CURVE SMOOTH",
"91 287 OFFCURVE",
"50 277 OFFCURVE",
"52 258 CURVE SMOOTH",
"65 129 OFFCURVE",
"154 -156 OFFCURVE",
"-45 -308 CURVE SMOOTH",
"-99 -349 OFFCURVE",
"-148 -352 OFFCURVE",
"-165 -338 CURVE SMOOTH",
"-180 -323 OFFCURVE",
"-181 -292 OFFCURVE",
"-158 -254 CURVE SMOOTH",
"-116 -181 OFFCURVE",
"-79 -141 OFFCURVE",
"-5 -104 CURVE SMOOTH",
"9 -97 OFFCURVE",
"11 -86 OFFCURVE",
"-4 -93 CURVE SMOOTH",
"-30 -106 OFFCURVE",
"-53 -117 OFFCURVE",
"-75 -131 CURVE SMOOTH",
"-222 -225 OFFCURVE",
"-227 -312 OFFCURVE",
"-179 -347 CURVE SMOOTH",
"-94 -410 OFFCURVE",
"152 -321 OFFCURVE",
"106 114 CURVE SMOOTH"
);
}
);
width = 157;
}
);
note = dotlessj;
unicode = 0237;
},
{
glyphname = k;
layers = (
{
hints = (
{
horizontal = 1;
place = "{-34, 27}";
type = Stem;
},
{
place = "{59, 21}";
type = Stem;
}
);
layerId = "197ECFA8-A16D-41AC-99D0-22A54F6A6421";
paths = (
{
closed = 1;
nodes = (
"146 215 OFFCURVE",
"297 325 OFFCURVE",
"243 327 CURVE SMOOTH",
"213 328 OFFCURVE",
"169 270 OFFCURVE",
"149 250 CURVE SMOOTH",
"129 231 OFFCURVE",
"145 226 OFFCURVE",
"142 222 CURVE SMOOTH",
"122 198 OFFCURVE",
"96 179 OFFCURVE",
"73 159 CURVE SMOOTH",
"72 158 LINE",
"86 305 OFFCURVE",
"85 460 OFFCURVE",
"59 511 CURVE SMOOTH",
"49 530 OFFCURVE",
"34 520 OFFCURVE",
"48 486 CURVE SMOOTH",
"66 441 OFFCURVE",
"61 324 OFFCURVE",
"46 210 CURVE SMOOTH",
"46 213 OFFCURVE",
"40 215 OFFCURVE",
"37 215 CURVE",
"28 217 OFFCURVE",
"0 172 OFFCURVE",
"36 140 CURVE",
"29 103 OFFCURVE",
"0 -68 OFFCURVE",
"-38 -125 CURVE SMOOTH",
"-48 -141 OFFCURVE",
"-16 -154 OFFCURVE",
"1 -136 CURVE SMOOTH",
"26 -106 OFFCURVE",
"48 -18 OFFCURVE",
"63 84 CURVE",
"107 -7 OFFCURVE",
"182 -93 OFFCURVE",
"257 20 CURVE SMOOTH",
"266 33 OFFCURVE",
"297 88 OFFCURVE",
"305 115 CURVE SMOOTH",
"308 127 OFFCURVE",
"296 133 OFFCURVE",
"282 108 CURVE SMOOTH",
"271 90 OFFCURVE",
"256 50 OFFCURVE",
"233 22 CURVE SMOOTH",
"167 -58 OFFCURVE",
"105 44 OFFCURVE",
"71 132 CURVE",
"78 139 OFFCURVE",
"84 146 OFFCURVE",
"91 153 CURVE SMOOTH",
"104 167 OFFCURVE",
"116 181 OFFCURVE",
"129 195 CURVE SMOOTH"
);
}
);
width = 259;
}
);
note = k;
unicode = 006B;
},
{
glyphname = kgreenlandic;
layers = (
{
hints = (
{
horizontal = 1;
place = "{-145, 21}";
target = up;
type = BottomGhost;
},
{
horizontal = 1;
place = "{-34, 27}";
type = Stem;
},
{
place = "{46, 40}";
type = Stem;
},
{
place = "{139, 115}";
type = Stem;
}
);
layerId = "197ECFA8-A16D-41AC-99D0-22A54F6A6421";
paths = (
{
closed = 1;
nodes = (
"146 215 OFFCURVE",
"297 325 OFFCURVE",
"243 327 CURVE SMOOTH",
"213 328 OFFCURVE",
"169 270 OFFCURVE",
"149 250 CURVE SMOOTH",
"129 231 OFFCURVE",
"145 226 OFFCURVE",
"142 222 CURVE SMOOTH",
"122 198 OFFCURVE",
"96 179 OFFCURVE",
"73 159 CURVE SMOOTH",
"72 158 LINE",
"86 305 OFFCURVE",
"95 306 OFFCURVE",
"69 357 CURVE SMOOTH",
"59 376 OFFCURVE",
"31 378 OFFCURVE",
"43 343 CURVE SMOOTH",
"49 326 OFFCURVE",
"44 237 OFFCURVE",
"46 210 CURVE SMOOTH",
"46 207 OFFCURVE",
"40 215 OFFCURVE",
"37 215 CURVE",
"28 217 OFFCURVE",
"0 172 OFFCURVE",
"36 140 CURVE",
"29 103 OFFCURVE",
"0 -68 OFFCURVE",
"-38 -125 CURVE SMOOTH",
"-48 -141 OFFCURVE",
"-16 -154 OFFCURVE",
"1 -136 CURVE SMOOTH",
"26 -106 OFFCURVE",
"48 -18 OFFCURVE",
"63 84 CURVE",
"107 -7 OFFCURVE",
"182 -93 OFFCURVE",
"257 20 CURVE SMOOTH",
"266 33 OFFCURVE",
"297 88 OFFCURVE",
"305 115 CURVE SMOOTH",
"308 127 OFFCURVE",
"296 133 OFFCURVE",
"282 108 CURVE SMOOTH",
"271 90 OFFCURVE",
"256 50 OFFCURVE",
"233 22 CURVE SMOOTH",
"167 -58 OFFCURVE",
"105 44 OFFCURVE",
"71 132 CURVE",
"78 139 OFFCURVE",
"84 146 OFFCURVE",
"91 153 CURVE SMOOTH",
"104 167 OFFCURVE",
"116 181 OFFCURVE",
"129 195 CURVE SMOOTH"
);
}
);
width = 259;
}
);
note = kgreenlandic;
unicode = 0138;
},
{
glyphname = l;
layers = (
{
hints = (
{
horizontal = 1;
place = "{620, 25}";
type = Stem;
},
{
place = "{37, 33}";
type = Stem;
},
{
place = "{209, 42}";
type = Stem;
}
);
layerId = "197ECFA8-A16D-41AC-99D0-22A54F6A6421";
paths = (
{
closed = 1;
nodes = (
"201 411 OFFCURVE",
"182 331 OFFCURVE",
"120 214 CURVE SMOOTH",
"109 192 OFFCURVE",
"113 178 OFFCURVE",
"125 201 CURVE SMOOTH",
"146 242 OFFCURVE",
"166 278 OFFCURVE",
"183 316 CURVE SMOOTH",
"324 640 OFFCURVE",
"218 702 OFFCURVE",
"127 601 CURVE SMOOTH",
"2 463 OFFCURVE",
"11 15 OFFCURVE",
"135 -129 CURVE SMOOTH",
"146 -143 OFFCURVE",
"164 -162 OFFCURVE",
"184 -158 CURVE SMOOTH",
"193 -157 OFFCURVE",
"193 -150 OFFCURVE",
"182 -149 CURVE SMOOTH",
"174 -148 OFFCURVE",
"168 -142 OFFCURVE",
"163 -138 CURVE SMOOTH",
"123 -103 OFFCURVE",
"95 38 OFFCURVE",
"88 88 CURVE SMOOTH",
"68 223 OFFCURVE",
"48 453 OFFCURVE",
"136 582 CURVE SMOOTH",
"181 648 OFFCURVE",
"217 629 OFFCURVE",
"210 531 CURVE SMOOTH"
);
}
);
width = 168;
}
);
note = l;
unicode = 006C;
},
{
glyphname = m;
layers = (
{
hints = (
{
horizontal = 1;
place = "{-175, 16}";
type = Stem;
},
{
horizontal = 1;
place = "{285, -20}";
target = down;
type = TopGhost;
},
{
place = "{177, 19}";
type = Stem;
},
{
place = "{242, 29}";
type = Stem;
}
);
layerId = "197ECFA8-A16D-41AC-99D0-22A54F6A6421";
paths = (
{
closed = 1;
nodes = (
"426 313 OFFCURVE",
"351 278 OFFCURVE",
"330 260 CURVE SMOOTH",
"286 223 OFFCURVE",
"241 159 OFFCURVE",
"213 105 CURVE SMOOTH",
"205 91 OFFCURVE",
"198 77 OFFCURVE",
"194 61 CURVE",
"193 61 LINE",
"194 60 LINE",
"192 60 OFFCURVE",
"196 95 OFFCURVE",
"196 97 CURVE SMOOTH",
"200 147 OFFCURVE",
"283 362 OFFCURVE",
"286 376 CURVE SMOOTH",
"298 432 OFFCURVE",
"254 460 OFFCURVE",
"233 457 CURVE SMOOTH",
"152 447 OFFCURVE",
"111 294 OFFCURVE",
"94 222 CURVE SMOOTH",
"89 198 OFFCURVE",
"85 174 OFFCURVE",
"81 150 CURVE",
"70 188 OFFCURVE",
"47 280 OFFCURVE",
"7 291 CURVE",
"3 293 OFFCURVE",
"-15 292 OFFCURVE",
"-9 285 CURVE",
"10 276 OFFCURVE",
"16 253 OFFCURVE",
"21 235 CURVE SMOOTH",
"36 182 OFFCURVE",
"42 124 OFFCURVE",
"51 69 CURVE SMOOTH",
"54 50 OFFCURVE",
"57 25 OFFCURVE",
"68 10 CURVE SMOOTH",
"76 0 OFFCURVE",
"90 1 OFFCURVE",
"100 8 CURVE SMOOTH",
"101 9 LINE SMOOTH",
"108 20 OFFCURVE",
"101 64 OFFCURVE",
"99 79 CURVE SMOOTH",
"82 206 OFFCURVE",
"187 457 OFFCURVE",
"225 417 CURVE SMOOTH",
"266 374 OFFCURVE",
"166 203 OFFCURVE",
"177 58 CURVE SMOOTH",
"178 46 OFFCURVE",
"178 20 OFFCURVE",
"193 18 CURVE SMOOTH",
"202 17 OFFCURVE",
"203 41 OFFCURVE",
"205 48 CURVE SMOOTH",
"214 89 OFFCURVE",
"251 155 OFFCURVE",
"295 203 CURVE SMOOTH",
"312 223 OFFCURVE",
"397 315 OFFCURVE",
"369 228 CURVE SMOOTH",
"347 159 OFFCURVE",
"181 -111 OFFCURVE",
"266 -169 CURVE SMOOTH",
"284 -181 OFFCURVE",
"310 -174 OFFCURVE",
"329 -159 CURVE SMOOTH",
"331 -157 OFFCURVE",
"341 -149 OFFCURVE",
"342 -144 CURVE SMOOTH",
"348 -127 OFFCURVE",
"331 -142 OFFCURVE",
"328 -145 CURVE SMOOTH",
"313 -158 OFFCURVE",
"284 -176 OFFCURVE",
"274 -121 CURVE SMOOTH",
"260 -48 OFFCURVE",
"294 23 OFFCURVE",
"330 84 CURVE SMOOTH",
"367 146 OFFCURVE",
"411 204 OFFCURVE",
"416 243 CURVE SMOOTH"
);
}
);
width = 392;
}
);
note = m;
unicode = 006D;
},
{
glyphname = n;
layers = (
{
hints = (
{
horizontal = 1;
place = "{413, -20}";
target = down;
type = TopGhost;
},
{
place = "{205, 17}";
type = Stem;
},
{
place = "{243, 49}";
type = Stem;
}
);
layerId = "197ECFA8-A16D-41AC-99D0-22A54F6A6421";
paths = (
{
closed = 1;
nodes = (
"278 51 OFFCURVE",
"257 3 OFFCURVE",
"236 11 CURVE SMOOTH",
"204 23 OFFCURVE",
"237 165 OFFCURVE",
"243 184 CURVE SMOOTH",
"258 228 OFFCURVE",
"351 425 OFFCURVE",
"233 412 CURVE SMOOTH",
"152 403 OFFCURVE",
"111 275 OFFCURVE",
"94 214 CURVE SMOOTH",
"89 194 OFFCURVE",
"85 174 OFFCURVE",
"81 150 CURVE",
"70 188 OFFCURVE",
"47 280 OFFCURVE",
"7 291 CURVE",
"3 293 OFFCURVE",
"-15 292 OFFCURVE",
"-9 285 CURVE",
"10 276 OFFCURVE",
"16 253 OFFCURVE",
"21 235 CURVE SMOOTH",
"36 182 OFFCURVE",
"42 124 OFFCURVE",
"51 69 CURVE SMOOTH",
"54 50 OFFCURVE",
"58 18 OFFCURVE",
"69 3 CURVE SMOOTH",
"85 -21 OFFCURVE",
"105 16 OFFCURVE",
"103 34 CURVE SMOOTH",
"95 114 OFFCURVE",
"98 188 OFFCURVE",
"125 263 CURVE SMOOTH",
"134 290 OFFCURVE",
"186 396 OFFCURVE",
"228 394 CURVE SMOOTH",
"249 392 OFFCURVE",
"244 364 OFFCURVE",
"243 350 CURVE SMOOTH",
"239 299 OFFCURVE",
"172 20 OFFCURVE",
"227 -10 CURVE SMOOTH",
"254 -24 OFFCURVE",
"281 17 OFFCURVE",
"278 40 CURVE"
);
}
);
width = 286;
}
);
note = n;
unicode = 006E;
},
{
glyphname = eng;
layers = (
{
hints = (
{
horizontal = 1;
place = "{-365, 20}";
type = Stem;
},
{
horizontal = 1;
place = "{413, -20}";
target = down;
type = TopGhost;
},
{
place = "{-27, 30}";
type = Stem;
},
{
place = "{205, 17}";
type = Stem;
},
{
place = "{262, 29}";
type = Stem;
},
{
place = "{243, 49}";
type = Stem;
}
);
layerId = "197ECFA8-A16D-41AC-99D0-22A54F6A6421";
paths = (
{
closed = 1;
nodes = (
"285 321 OFFCURVE",
"334 423 OFFCURVE",
"233 412 CURVE SMOOTH",
"152 403 OFFCURVE",
"111 275 OFFCURVE",
"94 214 CURVE SMOOTH",
"89 194 OFFCURVE",
"85 174 OFFCURVE",
"81 150 CURVE",
"70 188 OFFCURVE",
"47 280 OFFCURVE",
"7 291 CURVE",
"3 293 OFFCURVE",
"-15 292 OFFCURVE",
"-9 285 CURVE",
"10 276 OFFCURVE",
"16 253 OFFCURVE",
"21 235 CURVE SMOOTH",
"36 182 OFFCURVE",
"42 124 OFFCURVE",
"51 69 CURVE SMOOTH",
"54 50 OFFCURVE",
"58 18 OFFCURVE",
"69 3 CURVE SMOOTH",
"85 -21 OFFCURVE",
"105 16 OFFCURVE",
"103 34 CURVE SMOOTH",
"95 114 OFFCURVE",
"98 188 OFFCURVE",
"125 263 CURVE SMOOTH",
"134 290 OFFCURVE",
"186 396 OFFCURVE",
"228 394 CURVE SMOOTH",
"249 392 OFFCURVE",
"244 364 OFFCURVE",
"243 350 CURVE SMOOTH",
"235 211 OFFCURVE",
"226 19 OFFCURVE",
"178 -134 CURVE SMOOTH",
"156 -205 OFFCURVE",
"100 -263 OFFCURVE",
"23 -301 CURVE SMOOTH",
"-39 -330 OFFCURVE",
"-87 -324 OFFCURVE",
"-101 -306 CURVE SMOOTH",
"-113 -289 OFFCURVE",
"-108 -258 OFFCURVE",
"-78 -226 CURVE SMOOTH",
"-22 -162 OFFCURVE",
"22 -130 OFFCURVE",
"102 -109 CURVE SMOOTH",
"117 -105 OFFCURVE",
"121 -94 OFFCURVE",
"105 -98 CURVE SMOOTH",
"77 -106 OFFCURVE",
"52 -112 OFFCURVE",
"28 -121 CURVE SMOOTH",
"-135 -184 OFFCURVE",
"-157 -269 OFFCURVE",
"-117 -313 CURVE SMOOTH",
"-61 -374 OFFCURVE",
"146 -375 OFFCURVE",
"202 -143 CURVE SMOOTH",
"237 3 OFFCURVE",
"258 156 OFFCURVE",
"268 218 CURVE SMOOTH"
);
}
);
width = 285;
}
);
note = eng;
unicode = 014B;
},
{
glyphname = o;
layers = (
{
hints = (
{
horizontal = 1;
place = "{-35, 23}";
type = Stem;
},
{
horizontal = 1;
place = "{84, 230}";
type = Stem;
},
{
horizontal = 1;
place = "{377, 25}";
type = Stem;
},
{
place = "{41, 26}";
type = Stem;
},
{
place = "{232, 34}";
type = Stem;
}
);
layerId = "197ECFA8-A16D-41AC-99D0-22A54F6A6421";
paths = (
{
closed = 1;
nodes = (
"221 373 OFFCURVE",
"185 402 OFFCURVE",
"151 402 CURVE SMOOTH",
"60 402 OFFCURVE",
"33 242 OFFCURVE",
"43 174 CURVE",
"38 157 OFFCURVE",
"30 128 OFFCURVE",
"31 98 CURVE SMOOTH",
"33 47 OFFCURVE",
"48 -12 OFFCURVE",
"97 -30 CURVE SMOOTH",
"165 -56 OFFCURVE",
"213 18 OFFCURVE",
"237 73 CURVE SMOOTH",
"268 145 OFFCURVE",
"280 244 OFFCURVE",
"246 318 CURVE SMOOTH"
);
},
{
closed = 1;
nodes = (
"241 226 OFFCURVE",
"240 110 OFFCURVE",
"193 34 CURVE SMOOTH",
"140 -54 OFFCURVE",
"51 -15 OFFCURVE",
"65 135 CURVE",
"94 99 OFFCURVE",
"140 68 OFFCURVE",
"187 93 CURVE SMOOTH",
"189 94 OFFCURVE",
"207 104 OFFCURVE",
"199 107 CURVE",
"110 79 OFFCURVE",
"74 136 OFFCURVE",
"71 159 CURVE SMOOTH",
"69 168 OFFCURVE",
"74 178 OFFCURVE",
"76 185 CURVE SMOOTH",
"83 214 OFFCURVE",
"115 303 OFFCURVE",
"151 305 CURVE",
"151 308 OFFCURVE",
"151 311 OFFCURVE",
"148 312 CURVE",
"122 327 OFFCURVE",
"77 256 OFFCURVE",
"70 238 CURVE",
"57 266 OFFCURVE",
"89 371 OFFCURVE",
"146 376 CURVE SMOOTH",
"186 380 OFFCURVE",
"207 348 OFFCURVE",
"216 315 CURVE SMOOTH"
);
}
);
width = 272;
}
);
note = o;
unicode = 006F;
},
{
glyphname = oslash;
layers = (
{
hints = (
{
horizontal = 1;
place = "{-35, 23}";
type = Stem;
},
{
horizontal = 1;
place = "{84, 230}";
type = Stem;
},
{
horizontal = 1;
place = "{377, 25}";
type = Stem;
},
{
place = "{41, 26}";
type = Stem;
},
{
place = "{232, 34}";
type = Stem;
}
);
layerId = "197ECFA8-A16D-41AC-99D0-22A54F6A6421";
paths = (
{
closed = 1;
nodes = (
"221 373 OFFCURVE",
"185 402 OFFCURVE",
"151 402 CURVE SMOOTH",
"60 402 OFFCURVE",
"33 242 OFFCURVE",
"43 174 CURVE",
"38 157 OFFCURVE",
"30 128 OFFCURVE",
"31 98 CURVE SMOOTH",
"33 47 OFFCURVE",
"48 -12 OFFCURVE",
"97 -30 CURVE SMOOTH",
"165 -56 OFFCURVE",
"213 18 OFFCURVE",
"237 73 CURVE SMOOTH",
"268 145 OFFCURVE",
"280 244 OFFCURVE",
"246 318 CURVE SMOOTH"
);
},
{
closed = 1;
nodes = (
"241 226 OFFCURVE",
"240 110 OFFCURVE",
"193 34 CURVE SMOOTH",
"140 -54 OFFCURVE",
"51 -15 OFFCURVE",
"65 135 CURVE",
"94 99 OFFCURVE",
"140 68 OFFCURVE",
"187 93 CURVE SMOOTH",
"189 94 OFFCURVE",
"207 104 OFFCURVE",
"199 107 CURVE",
"110 79 OFFCURVE",
"74 136 OFFCURVE",
"71 159 CURVE SMOOTH",
"69 168 OFFCURVE",
"74 178 OFFCURVE",
"76 185 CURVE SMOOTH",
"83 214 OFFCURVE",
"115 303 OFFCURVE",
"151 305 CURVE",
"151 308 OFFCURVE",
"151 311 OFFCURVE",
"148 312 CURVE",
"122 327 OFFCURVE",
"77 256 OFFCURVE",
"70 238 CURVE",
"57 266 OFFCURVE",
"89 371 OFFCURVE",
"146 376 CURVE SMOOTH",
"186 380 OFFCURVE",
"207 348 OFFCURVE",
"216 315 CURVE SMOOTH"
);
},
{
closed = 1;
nodes = (
"335 387 OFFCURVE",
"313 388 OFFCURVE",
"298 373 CURVE SMOOTH",
"223 297 OFFCURVE",
"15 28 OFFCURVE",
"-4 -87 CURVE",
"-4 -91 OFFCURVE",
"5 -102 OFFCURVE",
"5 -98 CURVE",
"29 51 OFFCURVE",
"251 302 OFFCURVE",
"326 378 CURVE SMOOTH"
);
}
);
width = 272;
}
);
note = oslash;
unicode = 00F8;
},
{
glyphname = oe;
layers = (
{
hints = (
{
horizontal = 1;
place = "{-35, 23}";
type = Stem;
},
{
horizontal = 1;
place = "{3, 16}";
type = Stem;
},
{
horizontal = 1;
place = "{84, 15}";
type = Stem;
},
{
horizontal = 1;
place = "{291, 40}";
type = Stem;
},
{
horizontal = 1;
place = "{377, 25}";
type = Stem;
},
{
place = "{41, 26}";
type = Stem;
},
{
place = "{232, 43}";
type = Stem;
},
{
place = "{357, 28}";
type = Stem;
}
);
layerId = "197ECFA8-A16D-41AC-99D0-22A54F6A6421";
paths = (
{
closed = 1;
nodes = (
"241 226 OFFCURVE",
"240 110 OFFCURVE",
"193 34 CURVE SMOOTH",
"140 -54 OFFCURVE",
"51 -15 OFFCURVE",
"65 135 CURVE",
"94 99 OFFCURVE",
"140 68 OFFCURVE",
"187 93 CURVE SMOOTH",
"189 94 OFFCURVE",
"207 104 OFFCURVE",
"199 107 CURVE",
"110 79 OFFCURVE",
"74 136 OFFCURVE",
"71 159 CURVE SMOOTH",
"69 168 OFFCURVE",
"74 178 OFFCURVE",
"76 185 CURVE SMOOTH",
"83 214 OFFCURVE",
"115 303 OFFCURVE",
"151 305 CURVE",
"151 308 OFFCURVE",
"151 311 OFFCURVE",
"148 312 CURVE",
"122 327 OFFCURVE",
"77 256 OFFCURVE",
"70 238 CURVE",
"57 266 OFFCURVE",
"89 371 OFFCURVE",
"146 376 CURVE SMOOTH",
"186 380 OFFCURVE",
"207 348 OFFCURVE",
"216 315 CURVE SMOOTH"
);
},
{
closed = 1;
nodes = (
"484 162 OFFCURVE",
"475 180 OFFCURVE",
"456 139 CURVE SMOOTH",
"364 -57 OFFCURVE",
"253 7 OFFCURVE",
"279 188 CURVE SMOOTH",
"301 337 OFFCURVE",
"386 303 OFFCURVE",
"347 227 CURVE SMOOTH",
"337 207 OFFCURVE",
"320 184 OFFCURVE",
"301 171 CURVE SMOOTH",
"283 160 OFFCURVE",
"277 144 OFFCURVE",
"299 152 CURVE SMOOTH",
"322 161 OFFCURVE",
"353 193 OFFCURVE",
"371 228 CURVE SMOOTH",
"425 334 OFFCURVE",
"310 377 OFFCURVE",
"262 267 CURVE",
"259 285 OFFCURVE",
"253 302 OFFCURVE",
"246 318 CURVE SMOOTH",
"221 373 OFFCURVE",
"185 402 OFFCURVE",
"151 402 CURVE SMOOTH",
"60 402 OFFCURVE",
"33 242 OFFCURVE",
"43 174 CURVE",
"38 157 OFFCURVE",
"30 128 OFFCURVE",
"31 98 CURVE SMOOTH",
"33 47 OFFCURVE",
"48 -12 OFFCURVE",
"97 -30 CURVE SMOOTH",
"165 -56 OFFCURVE",
"213 18 OFFCURVE",
"237 73 CURVE SMOOTH",
"240 82 OFFCURVE",
"244 91 OFFCURVE",
"247 100 CURVE",
"275 -50 OFFCURVE",
"420 -21 OFFCURVE",
"480 150 CURVE SMOOTH"
);
}
);
width = 417;
}
);
note = oe;
unicode = 0153;
},
{
glyphname = p;
layers = (
{
hints = (
{
horizontal = 1;
place = "{-326, 20}";
type = Stem;
},
{
place = "{-10, 13}";
type = Stem;
},
{
place = "{255, 15}";
type = Stem;
}
);
layerId = "197ECFA8-A16D-41AC-99D0-22A54F6A6421";
paths = (
{
closed = 1;
nodes = (
"275 184 OFFCURVE",
"275 184 OFFCURVE",
"276 184 CURVE",
"275 184 OFFCURVE",
"275 184 OFFCURVE",
"275 184 CURVE"
);
},
{
closed = 1;
nodes = (
"100 275 OFFCURVE",
"92 261 OFFCURVE",
"83 246 CURVE SMOOTH",
"81 242 OFFCURVE",
"80 238 OFFCURVE",
"76 235 CURVE SMOOTH",
"68 230 OFFCURVE",
"61 226 OFFCURVE",
"53 222 CURVE SMOOTH",
"34 210 OFFCURVE",
"-9 185 OFFCURVE",
"-15 161 CURVE SMOOTH",
"-16 158 OFFCURVE",
"-15 154 OFFCURVE",
"-13 152 CURVE SMOOTH",
"-10 148 OFFCURVE",
"-5 148 OFFCURVE",
"0 151 CURVE SMOOTH",
"8 155 OFFCURVE",
"13 164 OFFCURVE",
"19 170 CURVE SMOOTH",
"29 183 OFFCURVE",
"54 208 OFFCURVE",
"68 213 CURVE",
"68 212 OFFCURVE",
"68 211 OFFCURVE",
"68 210 CURVE",
"67 210 OFFCURVE",
"64 202 OFFCURVE",
"63 200 CURVE SMOOTH",
"35 118 OFFCURVE",
"9 34 OFFCURVE",
"-3 -56 CURVE SMOOTH",
"-6 -81 OFFCURVE",
"-8 -107 OFFCURVE",
"-10 -133 CURVE SMOOTH",
"-14 -180 OFFCURVE",
"-17 -237 OFFCURVE",
"-5 -282 CURVE SMOOTH",
"1 -303 OFFCURVE",
"13 -337 OFFCURVE",
"41 -322 CURVE",
"41 -321 OFFCURVE",
"41 -320 OFFCURVE",
"41 -319 CURVE",
"41 -319 LINE",
"41 -318 OFFCURVE",
"37 -318 OFFCURVE",
"35 -318 CURVE SMOOTH",
"9 -320 OFFCURVE",
"2 -249 OFFCURVE",
"1 -228 CURVE SMOOTH",
"0 -203 OFFCURVE",
"2 -177 OFFCURVE",
"4 -154 CURVE SMOOTH",
"10 -58 OFFCURVE",
"33 22 OFFCURVE",
"70 102 CURVE SMOOTH",
"93 151 OFFCURVE",
"120 197 OFFCURVE",
"149 243 CURVE",
"154 246 OFFCURVE",
"160 246 OFFCURVE",
"166 247 CURVE SMOOTH",
"193 252 OFFCURVE",
"229 249 OFFCURVE",
"245 228 CURVE SMOOTH",
"285 175 OFFCURVE",
"192 88 OFFCURVE",
"155 56 CURVE SMOOTH",
"131 34 OFFCURVE",
"102 6 OFFCURVE",
"70 1 CURVE",
"70 33 OFFCURVE",
"144 90 OFFCURVE",
"169 111 CURVE SMOOTH",
"176 117 OFFCURVE",
"187 121 OFFCURVE",
"193 129 CURVE",
"195 129 OFFCURVE",
"193 132 OFFCURVE",
"192 133 CURVE",
"185 133 OFFCURVE",
"175 125 OFFCURVE",
"169 121 CURVE SMOOTH",
"134 99 OFFCURVE",
"86 72 OFFCURVE",
"62 35 CURVE SMOOTH",
"55 25 OFFCURVE",
"51 12 OFFCURVE",
"56 -2 CURVE SMOOTH",
"59 -12 OFFCURVE",
"67 -18 OFFCURVE",
"78 -18 CURVE SMOOTH",
"97 -19 OFFCURVE",
"113 -10 OFFCURVE",
"128 -2 CURVE SMOOTH",
"176 23 OFFCURVE",
"227 71 OFFCURVE",
"252 120 CURVE",
"255 128 OFFCURVE",
"258 137 OFFCURVE",
"261 145 CURVE SMOOTH",
"270 169 OFFCURVE",
"274 196 OFFCURVE",
"263 219 CURVE SMOOTH",
"256 234 OFFCURVE",
"245 245 OFFCURVE",
"231 251 CURVE SMOOTH",
"216 258 OFFCURVE",
"185 265 OFFCURVE",
"166 259 CURVE",
"162 259 OFFCURVE",
"157 258 OFFCURVE",
"153 258 CURVE",
"153 258 OFFCURVE",
"153 258 OFFCURVE",
"153 259 CURVE",
"151 259 OFFCURVE",
"151 262 OFFCURVE",
"151 263 CURVE SMOOTH",
"148 277 OFFCURVE",
"130 280 OFFCURVE",
"118 281 CURVE"
);
}
);
width = 252;
}
);
note = p;
unicode = 0070;
},
{
glyphname = thorn;
layers = (
{
hints = (
{
horizontal = 1;
place = "{-23, 18}";
type = Stem;
},
{
horizontal = 1;
place = "{257, 17}";
type = Stem;
},
{
place = "{44, 21}";
type = Stem;
},
{
place = "{135, 45}";
type = Stem;
},
{
place = "{189, 38}";
type = Stem;
}
);
layerId = "197ECFA8-A16D-41AC-99D0-22A54F6A6421";
paths = (
{
closed = 1;
nodes = (
"176 282 OFFCURVE",
"124 276 OFFCURVE",
"87 257 CURVE",
"101 344 OFFCURVE",
"120 409 OFFCURVE",
"134 451 CURVE SMOOTH",
"160 530 OFFCURVE",
"182 561 OFFCURVE",
"190 587 CURVE SMOOTH",
"201 624 OFFCURVE",
"155 641 OFFCURVE",
"131 599 CURVE SMOOTH",
"105 553 OFFCURVE",
"60 376 OFFCURVE",
"46 229 CURVE",
"22 208 OFFCURVE",
"-10 175 OFFCURVE",
"-14 163 CURVE SMOOTH",
"-20 146 OFFCURVE",
"-10 137 OFFCURVE",
"0 147 CURVE SMOOTH",
"9 156 OFFCURVE",
"25 180 OFFCURVE",
"43 201 CURVE",
"33 78 OFFCURVE",
"55 -324 OFFCURVE",
"76 -368 CURVE SMOOTH",
"85 -387 OFFCURVE",
"106 -383 OFFCURVE",
"93 -349 CURVE SMOOTH",
"75 -302 OFFCURVE",
"65 118 OFFCURVE",
"83 235 CURVE",
"221 322 OFFCURVE",
"209 128 OFFCURVE",
"139 33 CURVE SMOOTH",
"129 19 OFFCURVE",
"85 -36 OFFCURVE",
"97 18 CURVE SMOOTH",
"105 55 OFFCURVE",
"134 114 OFFCURVE",
"151 146 CURVE SMOOTH",
"155 153 OFFCURVE",
"157 158 OFFCURVE",
"160 162 CURVE SMOOTH",
"173 184 OFFCURVE",
"163 182 OFFCURVE",
"158 176 CURVE SMOOTH",
"153 170 OFFCURVE",
"147 162 OFFCURVE",
"141 152 CURVE SMOOTH",
"116 114 OFFCURVE",
"86 51 OFFCURVE",
"77 18 CURVE SMOOTH",
"72 -3 OFFCURVE",
"83 -30 OFFCURVE",
"110 -22 CURVE SMOOTH",
"127 -17 OFFCURVE",
"139 -3 OFFCURVE",
"150 9 CURVE SMOOTH",
"196 57 OFFCURVE",
"264 193 OFFCURVE",
"204 254 CURVE SMOOTH"
);
}
);
width = 250;
}
);
note = thorn;
unicode = 00FE;
},
{
glyphname = q;
layers = (
{
hints = (
{
horizontal = 1;
place = "{-383, 26}";
type = Stem;
},
{
horizontal = 1;
place = "{7, 20}";
type = Stem;
},
{
horizontal = 1;
place = "{421, -20}";
target = down;
type = TopGhost;
},
{
place = "{6, 34}";
type = Stem;
},
{
place = "{139, 30}";
type = Stem;
},
{
place = "{290, 40}";
type = Stem;
}
);
layerId = "197ECFA8-A16D-41AC-99D0-22A54F6A6421";
paths = (
{
closed = 1;
nodes = (
"189 250 OFFCURVE",
"185 239 OFFCURVE",
"182 227 CURVE",
"160 179 OFFCURVE",
"137 120 OFFCURVE",
"107 79 CURVE SMOOTH",
"59 13 OFFCURVE",
"31 2 OFFCURVE",
"42 94 CURVE SMOOTH",
"48 144 OFFCURVE",
"82 304 OFFCURVE",
"152 302 CURVE SMOOTH",
"194 301 OFFCURVE",
"190 269 OFFCURVE",
"193 261 CURVE"
);
},
{
closed = 1;
nodes = (
"288 -368 OFFCURVE",
"251 -383 OFFCURVE",
"212 -313 CURVE SMOOTH",
"135 -178 OFFCURVE",
"176 50 OFFCURVE",
"207 183 CURVE SMOOTH",
"217 224 OFFCURVE",
"269 411 OFFCURVE",
"321 410 CURVE SMOOTH",
"332 410 OFFCURVE",
"333 417 OFFCURVE",
"324 420 CURVE SMOOTH",
"304 425 OFFCURVE",
"285 408 OFFCURVE",
"272 395 CURVE SMOOTH",
"249 373 OFFCURVE",
"229 341 OFFCURVE",
"211 304 CURVE",
"204 328 OFFCURVE",
"182 345 OFFCURVE",
"157 341 CURVE SMOOTH",
"71 324 OFFCURVE",
"-21 80 OFFCURVE",
"13 25 CURVE SMOOTH",
"52 -38 OFFCURVE",
"130 81 OFFCURVE",
"159 138 CURVE",
"123 -36 OFFCURVE",
"132 -240 OFFCURVE",
"201 -332 CURVE SMOOTH",
"282 -440 OFFCURVE",
"394 -388 OFFCURVE",
"281 -53 CURVE SMOOTH",
"268 -13 OFFCURVE",
"252 25 OFFCURVE",
"234 67 CURVE SMOOTH",
"224 91 OFFCURVE",
"218 78 OFFCURVE",
"228 54 CURVE SMOOTH",
"279 -67 OFFCURVE",
"291 -149 OFFCURVE",
"289 -269 CURVE SMOOTH"
);
}
);
width = 242;
}
);
note = q;
unicode = 0071;
},
{
glyphname = r;
layers = (
{
hints = (
{
horizontal = 1;
place = "{-49, 13}";
type = Stem;
},
{
horizontal = 1;
place = "{241, 148}";
type = Stem;
},
{
place = "{97, 19}";
type = Stem;
}
);
layerId = "197ECFA8-A16D-41AC-99D0-22A54F6A6421";
paths = (
{
closed = 1;
nodes = (
"304 115 OFFCURVE",
"305 128 OFFCURVE",
"292 122 CURVE SMOOTH",
"287 119 OFFCURVE",
"281 108 OFFCURVE",
"279 104 CURVE SMOOTH",
"261 72 OFFCURVE",
"163 -110 OFFCURVE",
"122 -5 CURVE SMOOTH",
"95 63 OFFCURVE",
"156 173 OFFCURVE",
"191 224 CURVE SMOOTH",
"205 243 OFFCURVE",
"224 263 OFFCURVE",
"233 286 CURVE SMOOTH",
"238 298 OFFCURVE",
"232 319 OFFCURVE",
"215 314 CURVE",
"205 314 OFFCURVE",
"189 296 OFFCURVE",
"181 289 CURVE SMOOTH",
"167 276 OFFCURVE",
"150 263 OFFCURVE",
"132 256 CURVE",
"115 253 OFFCURVE",
"119 268 OFFCURVE",
"119 269 CURVE",
"125 287 OFFCURVE",
"192 386 OFFCURVE",
"145 389 CURVE SMOOTH",
"127 390 OFFCURVE",
"104 346 OFFCURVE",
"97 332 CURVE SMOOTH",
"91 316 OFFCURVE",
"85 297 OFFCURVE",
"87 278 CURVE SMOOTH",
"87 270 OFFCURVE",
"90 259 OFFCURVE",
"93 252 CURVE",
"70 200 OFFCURVE",
"43 143 OFFCURVE",
"12 86 CURVE SMOOTH",
"-1 63 OFFCURVE",
"15 41 OFFCURVE",
"41 96 CURVE SMOOTH",
"61 138 OFFCURVE",
"97 221 OFFCURVE",
"108 246 CURVE",
"117 242 OFFCURVE",
"139 238 OFFCURVE",
"166 248 CURVE",
"114 165 OFFCURVE",
"60 33 OFFCURVE",
"118 -31 CURVE SMOOTH",
"164 -81 OFFCURVE",
"231 -23 OFFCURVE",
"257 20 CURVE SMOOTH",
"264 33 OFFCURVE",
"298 88 OFFCURVE",
"304 115 CURVE"
);
}
);
width = 257;
}
);
note = r;
unicode = 0072;
},
{
glyphname = s;
layers = (
{
hints = (
{
horizontal = 1;
place = "{397, -20}";
target = down;
type = TopGhost;
},
{
place = "{9, 31}";
type = Stem;
}
);
layerId = "197ECFA8-A16D-41AC-99D0-22A54F6A6421";
paths = (
{
closed = 1;
nodes = (
"142 35 OFFCURVE",
"143 32 OFFCURVE",
"144 29 CURVE SMOOTH",
"151 10 OFFCURVE",
"128 -26 OFFCURVE",
"121 -13 CURVE SMOOTH",
"114 0 OFFCURVE",
"126 20 OFFCURVE",
"140 38 CURVE"
);
},
{
closed = 1;
nodes = (
"143 395 OFFCURVE",
"113 385 OFFCURVE",
"93 371 CURVE SMOOTH",
"35 332 OFFCURVE",
"-10 261 OFFCURVE",
"16 184 CURVE SMOOTH",
"43 102 OFFCURVE",
"104 85 OFFCURVE",
"131 48 CURVE",
"128 46 OFFCURVE",
"110 22 OFFCURVE",
"108 20 CURVE SMOOTH",
"81 -9 OFFCURVE",
"89 -32 OFFCURVE",
"100 -39 CURVE SMOOTH",
"122 -54 OFFCURVE",
"162 -24 OFFCURVE",
"166 3 CURVE SMOOTH",
"168 20 OFFCURVE",
"161 34 OFFCURVE",
"149 48 CURVE",
"166 67 OFFCURVE",
"180 80 OFFCURVE",
"183 83 CURVE SMOOTH",
"194 92 OFFCURVE",
"197 106 OFFCURVE",
"178 93 CURVE SMOOTH",
"166 85 OFFCURVE",
"151 70 OFFCURVE",
"139 56 CURVE",
"104 91 OFFCURVE",
"49 127 OFFCURVE",
"45 191 CURVE SMOOTH",
"39 258 OFFCURVE",
"86 345 OFFCURVE",
"151 371 CURVE SMOOTH",
"166 377 OFFCURVE",
"186 384 OFFCURVE",
"200 376 CURVE SMOOTH",
"207 372 OFFCURVE",
"214 364 OFFCURVE",
"214 355 CURVE SMOOTH",
"214 350 OFFCURVE",
"214 324 OFFCURVE",
"223 327 CURVE SMOOTH",
"230 330 OFFCURVE",
"232 338 OFFCURVE",
"233 344 CURVE SMOOTH",
"241 382 OFFCURVE",
"204 400 OFFCURVE",
"167 397 CURVE SMOOTH"
);
}
);
width = 225;
}
);
note = s;
unicode = 0073;
},
{
glyphname = germandbls;
layers = (
{
hints = (
{
horizontal = 1;
place = "{-164, 25}";
type = Stem;
},
{
horizontal = 1;
place = "{454, 14}";
type = Stem;
},
{
horizontal = 1;
place = "{474, -20}";
target = down;
type = TopGhost;
},
{
horizontal = 1;
place = "{750, 12}";
type = Stem;
},
{
place = "{202, 31}";
type = Stem;
},
{
place = "{474, 34}";
type = Stem;
},
{
place = "{567, 43}";
type = Stem;
}
);
layerId = "197ECFA8-A16D-41AC-99D0-22A54F6A6421";
paths = (
{
closed = 1;
nodes = (
"213 -4 OFFCURVE",
"248 5 OFFCURVE",
"273 18 CURVE SMOOTH",
"343 54 OFFCURVE",
"397 125 OFFCURVE",
"380 213 CURVE SMOOTH",
"355 345 OFFCURVE",
"178 386 OFFCURVE",
"248 483 CURVE SMOOTH",
"269 513 OFFCURVE",
"293 536 OFFCURVE",
"299 563 CURVE SMOOTH",
"315 640 OFFCURVE",
"226 657 OFFCURVE",
"197 632 CURVE SMOOTH",
"132 580 OFFCURVE",
"104 447 OFFCURVE",
"81 303 CURVE",
"60 302 OFFCURVE",
"36 300 OFFCURVE",
"11 297 CURVE SMOOTH",
"4 296 OFFCURVE",
"24 271 OFFCURVE",
"30 272 CURVE SMOOTH",
"45 273 OFFCURVE",
"61 275 OFFCURVE",
"77 277 CURVE",
"67 224 OFFCURVE",
"29 -140 OFFCURVE",
"-101 -239 CURVE SMOOTH",
"-135 -265 OFFCURVE",
"-157 -268 OFFCURVE",
"-167 -249 CURVE SMOOTH",
"-179 -227 OFFCURVE",
"-185 -257 OFFCURVE",
"-175 -269 CURVE SMOOTH",
"-163 -283 OFFCURVE",
"-135 -281 OFFCURVE",
"-96 -261 CURVE",
"44 -159 OFFCURVE",
"71 57 OFFCURVE",
"104 234 CURVE SMOOTH",
"128 361 LINE SMOOTH",
"152 485 OFFCURVE",
"177 548 OFFCURVE",
"213 581 CURVE SMOOTH",
"245 611 OFFCURVE",
"279 597 OFFCURVE",
"274 567 CURVE SMOOTH",
"269 538 OFFCURVE",
"227 492 OFFCURVE",
"212 459 CURVE SMOOTH",
"153 333 OFFCURVE",
"353 332 OFFCURVE",
"353 211 CURVE SMOOTH",
"352 133 OFFCURVE",
"286 39 OFFCURVE",
"206 16 CURVE SMOOTH",
"188 12 OFFCURVE",
"165 8 OFFCURVE",
"151 19 CURVE SMOOTH",
"143 25 OFFCURVE",
"137 38 OFFCURVE",
"138 48 CURVE SMOOTH",
"138 53 OFFCURVE",
"141 82 OFFCURVE",
"130 79 CURVE SMOOTH",
"122 77 OFFCURVE",
"119 68 OFFCURVE",
"118 62 CURVE",
"104 21 OFFCURVE",
"154 0 OFFCURVE",
"186 -3 CURVE SMOOTH"
);
}
);
width = 407;
}
);
note = germandbls;
unicode = 00DF;
},
{
glyphname = slong;
layers = (
{
hints = (
{
horizontal = 1;
place = "{-278, 17}";
type = Stem;
},
{
horizontal = 1;
place = "{277, 20}";
type = Stem;
},
{
horizontal = 1;
place = "{599, 44}";
type = Stem;
},
{
place = "{274, 20}";
type = Stem;
}
);
layerId = "197ECFA8-A16D-41AC-99D0-22A54F6A6421";
paths = (
{
closed = 1;
nodes = (
"152 485 OFFCURVE",
"177 548 OFFCURVE",
"213 581 CURVE SMOOTH",
"263 627 OFFCURVE",
"300 578 OFFCURVE",
"251 515 CURVE SMOOTH",
"243 505 OFFCURVE",
"247 488 OFFCURVE",
"255 497 CURVE SMOOTH",
"356 620 OFFCURVE",
"237 666 OFFCURVE",
"197 632 CURVE SMOOTH",
"132 580 OFFCURVE",
"104 447 OFFCURVE",
"81 303 CURVE",
"60 302 OFFCURVE",
"36 300 OFFCURVE",
"11 297 CURVE SMOOTH",
"4 296 OFFCURVE",
"24 271 OFFCURVE",
"30 272 CURVE SMOOTH",
"45 273 OFFCURVE",
"61 275 OFFCURVE",
"77 277 CURVE",
"67 224 OFFCURVE",
"29 -140 OFFCURVE",
"-101 -239 CURVE SMOOTH",
"-135 -265 OFFCURVE",
"-157 -268 OFFCURVE",
"-167 -249 CURVE SMOOTH",
"-179 -227 OFFCURVE",
"-185 -257 OFFCURVE",
"-175 -269 CURVE SMOOTH",
"-163 -283 OFFCURVE",
"-135 -281 OFFCURVE",
"-96 -261 CURVE",
"44 -159 OFFCURVE",
"71 57 OFFCURVE",
"104 234 CURVE SMOOTH",
"112 276 OFFCURVE",
"120 319 OFFCURVE",
"128 361 CURVE SMOOTH"
);
}
);
width = 0;
}
);
note = slong;
unicode = 017F;
},
{
glyphname = t;
layers = (
{
hints = (
{
horizontal = 1;
place = "{330, 239}";
type = Stem;
},
{
place = "{46, 26}";
type = Stem;
}
);
layerId = "197ECFA8-A16D-41AC-99D0-22A54F6A6421";
paths = (
{
closed = 1;
nodes = (
"206 567 OFFCURVE",
"143 436 OFFCURVE",
"131 406 CURVE SMOOTH",
"105 340 LINE",
"93 333 OFFCURVE",
"82 337 OFFCURVE",
"72 330 CURVE",
"53 330 OFFCURVE",
"-10 310 OFFCURVE",
"10 278 CURVE SMOOTH",
"20 260 OFFCURVE",
"75 296 OFFCURVE",
"90 298 CURVE",
"82 276 OFFCURVE",
"72 236 OFFCURVE",
"65 204 CURVE SMOOTH",
"46 118 OFFCURVE",
"31 -12 OFFCURVE",
"73 -113 CURVE SMOOTH",
"80 -130 OFFCURVE",
"92 -155 OFFCURVE",
"110 -160 CURVE SMOOTH",
"119 -162 OFFCURVE",
"120 -156 OFFCURVE",
"111 -150 CURVE",
"104 -147 OFFCURVE",
"99 -139 OFFCURVE",
"96 -132 CURVE",
"69 -84 OFFCURVE",
"67 -1 OFFCURVE",
"72 48 CURVE SMOOTH",
"79 116 OFFCURVE",
"90 180 OFFCURVE",
"107 242 CURVE SMOOTH",
"119 283 OFFCURVE",
"116 299 OFFCURVE",
"149 309 CURVE SMOOTH",
"199 325 OFFCURVE",
"240 331 OFFCURVE",
"258 330 CURVE SMOOTH",
"292 328 OFFCURVE",
"280 338 OFFCURVE",
"266 343 CURVE SMOOTH",
"244 352 OFFCURVE",
"192 351 OFFCURVE",
"168 348 CURVE SMOOTH",
"166 348 OFFCURVE",
"149 345 OFFCURVE",
"148 345 CURVE",
"150 348 OFFCURVE",
"156 363 OFFCURVE",
"158 368 CURVE SMOOTH",
"177 411 OFFCURVE",
"205 449 OFFCURVE",
"230 489 CURVE SMOOTH",
"275 561 OFFCURVE",
"262 571 OFFCURVE",
"237 569 CURVE SMOOTH"
);
}
);
width = 168;
}
);
note = t;
unicode = 0074;
},
{
glyphname = u;
layers = (
{
hints = (
{
horizontal = 1;
place = "{7, 29}";
type = Stem;
},
{
horizontal = 1;
place = "{50, 18}";
type = Stem;
},
{
place = "{25, 38}";
type = Stem;
},
{
place = "{75, 20}";
type = Stem;
}
);
layerId = "197ECFA8-A16D-41AC-99D0-22A54F6A6421";
paths = (
{
closed = 1;
nodes = (
"44 -35 OFFCURVE",
"61 112 OFFCURVE",
"73 165 CURVE SMOOTH",
"89 240 OFFCURVE",
"113 343 OFFCURVE",
"75 364 CURVE SMOOTH",
"53 376 OFFCURVE",
"30 342 OFFCURVE",
"33 324 CURVE",
"33 315 OFFCURVE",
"51 353 OFFCURVE",
"67 347 CURVE SMOOTH",
"99 334 OFFCURVE",
"26 106 OFFCURVE",
"25 66 CURVE SMOOTH",
"23 -76 OFFCURVE",
"165 74 OFFCURVE",
"193 165 CURVE",
"197 139 OFFCURVE",
"189 112 OFFCURVE",
"216 68 CURVE SMOOTH",
"230 43 OFFCURVE",
"267 42 OFFCURVE",
"287 75 CURVE SMOOTH",
"303 98 OFFCURVE",
"289 107 OFFCURVE",
"277 93 CURVE SMOOTH",
"274 89 OFFCURVE",
"251 55 OFFCURVE",
"239 73 CURVE SMOOTH",
"214 112 OFFCURVE",
"248 199 OFFCURVE",
"240 228 CURVE SMOOTH",
"237 236 OFFCURVE",
"227 244 OFFCURVE",
"218 242 CURVE SMOOTH",
"212 241 OFFCURVE",
"207 237 OFFCURVE",
"204 232 CURVE",
"182 182 OFFCURVE",
"158 122 OFFCURVE",
"127 79 CURVE SMOOTH"
);
}
);
width = 261;
}
);
note = u;
unicode = 0075;
},
{
glyphname = v;
layers = (
{
hints = (
{
horizontal = 1;
place = "{245, 28}";
type = Stem;
},
{
place = "{93, 28}";
type = Stem;
}
);
layerId = "197ECFA8-A16D-41AC-99D0-22A54F6A6421";
paths = (
{
closed = 1;
nodes = (
"294 274 OFFCURVE",
"286 294 OFFCURVE",
"257 269 CURVE SMOOTH",
"194 213 OFFCURVE",
"141 84 OFFCURVE",
"117 17 CURVE",
"127 102 OFFCURVE",
"123 270 OFFCURVE",
"57 273 CURVE SMOOTH",
"26 274 OFFCURVE",
"-22 230 OFFCURVE",
"-33 205 CURVE SMOOTH",
"-34 202 OFFCURVE",
"-36 198 OFFCURVE",
"-30 198 CURVE SMOOTH",
"-22 197 OFFCURVE",
"4 246 OFFCURVE",
"37 245 CURVE SMOOTH",
"114 242 OFFCURVE",
"88 9 OFFCURVE",
"94 -38 CURVE SMOOTH",
"102 -90 OFFCURVE",
"137 -58 OFFCURVE",
"139 -43 CURVE SMOOTH",
"143 22 OFFCURVE",
"174 167 OFFCURVE",
"267 250 CURVE SMOOTH"
);
}
);
width = 226;
}
);
note = v;
unicode = 0076;
},
{
glyphname = w;
layers = (
{
hints = (
{
horizontal = 1;
place = "{-23, 31}";
type = Stem;
},
{
horizontal = 1;
place = "{21, 27}";
type = Stem;
},
{
place = "{43, 31}";
type = Stem;
}
);
layerId = "197ECFA8-A16D-41AC-99D0-22A54F6A6421";
paths = (
{
closed = 1;
nodes = (
"118 7 OFFCURVE",
"87 -26 OFFCURVE",
"76 71 CURVE SMOOTH",
"65 162 OFFCURVE",
"92 222 OFFCURVE",
"80 316 CURVE SMOOTH",
"77 334 OFFCURVE",
"69 360 OFFCURVE",
"51 368 CURVE SMOOTH",
"28 380 OFFCURVE",
"10 345 OFFCURVE",
"15 327 CURVE",
"16 318 OFFCURVE",
"29 357 OFFCURVE",
"46 351 CURVE SMOOTH",
"74 341 OFFCURVE",
"60 226 OFFCURVE",
"57 208 CURVE SMOOTH",
"52 178 OFFCURVE",
"38 90 OFFCURVE",
"44 36 CURVE SMOOTH",
"61 -106 OFFCURVE",
"179 40 OFFCURVE",
"194 132 CURVE",
"196 132 LINE",
"204 74 OFFCURVE",
"279 -39 OFFCURVE",
"307 61 CURVE SMOOTH",
"319 102 OFFCURVE",
"332 251 OFFCURVE",
"376 299 CURVE SMOOTH",
"386 311 OFFCURVE",
"399 317 OFFCURVE",
"414 313 CURVE SMOOTH",
"420 312 OFFCURVE",
"426 309 OFFCURVE",
"431 305 CURVE SMOOTH",
"441 296 OFFCURVE",
"440 316 OFFCURVE",
"436 320 CURVE SMOOTH",
"409 348 OFFCURVE",
"376 360 OFFCURVE",
"351 328 CURVE SMOOTH",
"312 278 OFFCURVE",
"310 144 OFFCURVE",
"289 81 CURVE SMOOTH",
"276 44 OFFCURVE",
"255 33 OFFCURVE",
"244 77 CURVE SMOOTH",
"234 120 OFFCURVE",
"247 181 OFFCURVE",
"236 204 CURVE SMOOTH",
"229 220 OFFCURVE",
"205 226 OFFCURVE",
"200 207 CURVE SMOOTH",
"185 157 OFFCURVE",
"169 96 OFFCURVE",
"144 52 CURVE SMOOTH"
);
}
);
width = 370;
}
);
note = w;
unicode = 0077;
},
{
glyphname = x;
layers = (
{
hints = (
{
place = "{228, 27}";
type = Stem;
}
);
layerId = "197ECFA8-A16D-41AC-99D0-22A54F6A6421";
paths = (
{
closed = 1;
nodes = (
"262 294 OFFCURVE",
"244 331 OFFCURVE",
"229 317 CURVE SMOOTH",
"193 286 OFFCURVE",
"157 245 OFFCURVE",
"125 200 CURVE",
"124 206 OFFCURVE",
"123 212 OFFCURVE",
"122 218 CURVE SMOOTH",
"118 240 OFFCURVE",
"118 260 OFFCURVE",
"106 286 CURVE SMOOTH",
"101 297 OFFCURVE",
"92 310 OFFCURVE",
"78 317 CURVE SMOOTH",
"63 324 OFFCURVE",
"53 318 OFFCURVE",
"53 309 CURVE SMOOTH",
"53 295 OFFCURVE",
"54 280 OFFCURVE",
"58 264 CURVE SMOOTH",
"63 247 OFFCURVE",
"76 203 OFFCURVE",
"97 157 CURVE",
"52 83 OFFCURVE",
"18 2 OFFCURVE",
"9 -69 CURVE SMOOTH",
"6 -89 OFFCURVE",
"30 -78 OFFCURVE",
"32 -58 CURVE SMOOTH",
"41 4 OFFCURVE",
"70 68 OFFCURVE",
"110 127 CURVE",
"136 73 OFFCURVE",
"169 22 OFFCURVE",
"206 5 CURVE SMOOTH",
"228 -5 OFFCURVE",
"239 4 OFFCURVE",
"245 13 CURVE SMOOTH",
"261 39 OFFCURVE",
"256 74 OFFCURVE",
"250 109 CURVE SMOOTH",
"245 135 OFFCURVE",
"240 161 OFFCURVE",
"231 188 CURVE SMOOTH",
"225 205 OFFCURVE",
"207 225 OFFCURVE",
"213 186 CURVE SMOOTH",
"217 166 OFFCURVE",
"259 -56 OFFCURVE",
"185 48 CURVE SMOOTH",
"152 94 OFFCURVE",
"140 126 OFFCURVE",
"133 159 CURVE",
"167 204 OFFCURVE",
"207 246 OFFCURVE",
"246 280 CURVE SMOOTH"
);
}
);
width = 268;
}
);
note = x;
unicode = 0078;
},
{
glyphname = y;
layers = (
{
hints = (
{
horizontal = 1;
place = "{-393, 21}";
type = Stem;
},
{
horizontal = 1;
place = "{-41, 14}";
type = Stem;
},
{
horizontal = 1;
place = "{278, 28}";
type = Stem;
},
{
place = "{-52, 26}";
type = Stem;
},
{
place = "{111, 33}";
type = Stem;
}
);
layerId = "197ECFA8-A16D-41AC-99D0-22A54F6A6421";
paths = (
{
closed = 1;
nodes = (
"388 -30 OFFCURVE",
"355 -32 OFFCURVE",
"322 -38 CURVE",
"332 75 OFFCURVE",
"316 251 OFFCURVE",
"287 320 CURVE SMOOTH",
"279 339 OFFCURVE",
"243 335 OFFCURVE",
"247 309 CURVE",
"250 301 OFFCURVE",
"253 292 OFFCURVE",
"256 283 CURVE",
"207 172 OFFCURVE",
"163 80 OFFCURVE",
"137 31 CURVE",
"152 120 OFFCURVE",
"147 306 OFFCURVE",
"74 306 CURVE SMOOTH",
"44 306 OFFCURVE",
"-4 263 OFFCURVE",
"-16 238 CURVE SMOOTH",
"-17 235 OFFCURVE",
"-19 231 OFFCURVE",
"-13 231 CURVE SMOOTH",
"-5 230 OFFCURVE",
"22 279 OFFCURVE",
"54 278 CURVE SMOOTH",
"131 275 OFFCURVE",
"105 42 OFFCURVE",
"112 -5 CURVE SMOOTH",
"119 -57 OFFCURVE",
"155 -25 OFFCURVE",
"156 -10 CURVE SMOOTH",
"160 48 OFFCURVE",
"207 132 OFFCURVE",
"261 264 CURVE",
"281 191 OFFCURVE",
"302 85 OFFCURVE",
"296 -43 CURVE",
"132 -78 OFFCURVE",
"23 -170 OFFCURVE",
"-23 -238 CURVE SMOOTH",
"-111 -366 OFFCURVE",
"16 -452 OFFCURVE",
"162 -345 CURVE SMOOTH",
"225 -298 OFFCURVE",
"291 -210 OFFCURVE",
"319 -56 CURVE",
"352 -48 OFFCURVE",
"385 -44 OFFCURVE",
"417 -41 CURVE SMOOTH",
"439 -39 OFFCURVE",
"446 -25 OFFCURVE",
"425 -27 CURVE SMOOTH"
);
},
{
closed = 1;
nodes = (
"278 -184 OFFCURVE",
"220 -281 OFFCURVE",
"114 -343 CURVE SMOOTH",
"-10 -416 OFFCURVE",
"-67 -340 OFFCURVE",
"7 -243 CURVE SMOOTH",
"72 -158 OFFCURVE",
"187 -90 OFFCURVE",
"294 -62 CURVE"
);
}
);
width = 342;
}
);
note = y;
unicode = 0079;
},
{
glyphname = z;
layers = (
{
hints = (
{
horizontal = 1;
place = "{75, 30}";
type = Stem;
},
{
horizontal = 1;
place = "{263, 28}";
type = Stem;
},
{
place = "{57, 20}";
type = Stem;
}
);
layerId = "197ECFA8-A16D-41AC-99D0-22A54F6A6421";
paths = (
{
closed = 1;
nodes = (
"97 336 OFFCURVE",
"90 348 OFFCURVE",
"78 336 CURVE SMOOTH",
"67 326 OFFCURVE",
"57 317 OFFCURVE",
"57 301 CURVE SMOOTH",
"57 258 OFFCURVE",
"170 262 OFFCURVE",
"191 266 CURVE SMOOTH",
"201 268 OFFCURVE",
"209 270 OFFCURVE",
"216 271 CURVE",
"127 196 OFFCURVE",
"52 131 OFFCURVE",
"28 35 CURVE SMOOTH",
"24 21 OFFCURVE",
"38 21 OFFCURVE",
"47 30 CURVE",
"87 53 OFFCURVE",
"147 76 OFFCURVE",
"188 75 CURVE SMOOTH",
"222 74 OFFCURVE",
"267 69 OFFCURVE",
"251 44 CURVE SMOOTH",
"242 29 OFFCURVE",
"262 37 OFFCURVE",
"263 51 CURVE SMOOTH",
"265 81 OFFCURVE",
"266 103 OFFCURVE",
"219 105 CURVE SMOOTH",
"166 107 OFFCURVE",
"87 70 OFFCURVE",
"55 51 CURVE",
"90 168 OFFCURVE",
"193 218 OFFCURVE",
"292 276 CURVE SMOOTH",
"308 285 OFFCURVE",
"297 321 OFFCURVE",
"282 318 CURVE",
"280 321 OFFCURVE",
"276 320 OFFCURVE",
"270 316 CURVE",
"238 289 OFFCURVE",
"36 275 OFFCURVE",
"85 324 CURVE SMOOTH"
);
}
);
width = 268;
}
);
note = z;
unicode = 007A;
},
{
glyphname = a.calt;
lastChange = "2021-09-13 18:01:49 +0000";
layers = (
{
hints = (
{
horizontal = 1;
place = "{397, -20}";
target = down;
type = TopGhost;
},
{
place = "{9, 31}";
type = Stem;
}
);
layerId = "197ECFA8-A16D-41AC-99D0-22A54F6A6421";
paths = (
{
closed = 1;
nodes = (
"129 377 OFFCURVE",
"74 353 OFFCURVE",
"63 316 CURVE SMOOTH",
"61 310 OFFCURVE",
"59 302 OFFCURVE",
"65 300 CURVE SMOOTH",
"72 299 OFFCURVE",
"85 325 OFFCURVE",
"88 330 CURVE SMOOTH",
"92 339 OFFCURVE",
"104 352 OFFCURVE",
"115 358 CURVE SMOOTH",
"133 369 OFFCURVE",
"150 367 OFFCURVE",
"163 363 CURVE SMOOTH",
"203 350 OFFCURVE",
"209 295 OFFCURVE",
"200 246 CURVE",
"188 258 OFFCURVE",
"166 267 OFFCURVE",
"153 266 CURVE SMOOTH",
"68 253 OFFCURVE",
"-16 80 OFFCURVE",
"18 25 CURVE SMOOTH",
"63 -47 OFFCURVE",
"160 124 OFFCURVE",
"176 164 CURVE",
"177 150 OFFCURVE",
"171 112 OFFCURVE",
"194 68 CURVE SMOOTH",
"210 37 OFFCURVE",
"255 44 OFFCURVE",
"276 75 CURVE SMOOTH",
"292 99 OFFCURVE",
"279 108 OFFCURVE",
"270 92 CURVE SMOOTH",
"240 41 OFFCURVE",
"220 76 OFFCURVE",
"217 98 CURVE SMOOTH",
"215 115 OFFCURVE",
"234 226 OFFCURVE",
"243 270 CURVE SMOOTH",
"253 317 OFFCURVE",
"241 347 OFFCURVE",
"218 365 CURVE SMOOTH",
"205 376 OFFCURVE",
"180 383 OFFCURVE",
"156 380 CURVE SMOOTH"
);
},
{
closed = 1;
nodes = (
"71 21 OFFCURVE",
"38 27 OFFCURVE",
"40 80 CURVE SMOOTH",
"41 108 OFFCURVE",
"57 149 OFFCURVE",
"83 187 CURVE SMOOTH",
"115 233 OFFCURVE",
"160 271 OFFCURVE",
"181 214 CURVE",
"162 168 OFFCURVE",
"139 117 OFFCURVE",
"113 79 CURVE SMOOTH"
);
}
);
width = 248;
}
);
note = a.alt;
},
{
glyphname = h.calt;
lastChange = "2021-09-13 18:01:49 +0000";
layers = (
{
hints = (
{
place = "{22, 22}";
type = Stem;
}
);
layerId = "197ECFA8-A16D-41AC-99D0-22A54F6A6421";
paths = (
{
closed = 1;
nodes = (
"81 372 OFFCURVE",
"67 327 OFFCURVE",
"56 281 CURVE",
"51 278 OFFCURVE",
"25 272 OFFCURVE",
"19 271 CURVE SMOOTH",
"7 269 OFFCURVE",
"12 259 OFFCURVE",
"24 257 CURVE SMOOTH",
"32 256 OFFCURVE",
"46 259 OFFCURVE",
"50 260 CURVE",
"31 178 OFFCURVE",
"18 96 OFFCURVE",
"22 39 CURVE SMOOTH",
"23 27 OFFCURVE",
"26 9 OFFCURVE",
"40 7 CURVE SMOOTH",
"49 6 OFFCURVE",
"51 30 OFFCURVE",
"53 37 CURVE SMOOTH",
"61 78 OFFCURVE",
"99 144 OFFCURVE",
"142 192 CURVE SMOOTH",
"160 212 OFFCURVE",
"245 304 OFFCURVE",
"217 217 CURVE SMOOTH",
"195 148 OFFCURVE",
"29 -122 OFFCURVE",
"113 -180 CURVE SMOOTH",
"131 -192 OFFCURVE",
"158 -185 OFFCURVE",
"176 -170 CURVE SMOOTH",
"178 -168 OFFCURVE",
"188 -160 OFFCURVE",
"190 -155 CURVE SMOOTH",
"195 -138 OFFCURVE",
"179 -153 OFFCURVE",
"176 -156 CURVE SMOOTH",
"161 -169 OFFCURVE",
"131 -187 OFFCURVE",
"121 -132 CURVE SMOOTH",
"108 -59 OFFCURVE",
"142 12 OFFCURVE",
"178 73 CURVE SMOOTH",
"215 135 OFFCURVE",
"258 193 OFFCURVE",
"264 232 CURVE SMOOTH",
"274 302 OFFCURVE",
"199 267 OFFCURVE",
"178 249 CURVE SMOOTH",
"134 212 OFFCURVE",
"88 148 OFFCURVE",
"61 94 CURVE SMOOTH",
"53 80 OFFCURVE",
"45 66 OFFCURVE",
"42 50 CURVE",
"41 50 LINE",
"40 52 OFFCURVE",
"44 84 OFFCURVE",
"44 86 CURVE SMOOTH",
"49 150 OFFCURVE",
"63 213 OFFCURVE",
"80 272 CURVE",
"118 288 OFFCURVE",
"155 309 OFFCURVE",
"192 333 CURVE SMOOTH",
"234 361 OFFCURVE",
"279 395 OFFCURVE",
"311 434 CURVE SMOOTH",
"343 474 OFFCURVE",
"375 514 OFFCURVE",
"385 565 CURVE SMOOTH",
"403 658 OFFCURVE",
"330 695 OFFCURVE",
"255 652 CURVE SMOOTH",
"170 603 OFFCURVE",
"133 518 OFFCURVE",
"95 413 CURVE SMOOTH"
);
},
{
closed = 1;
nodes = (
"151 464 OFFCURVE",
"169 501 OFFCURVE",
"197 548 CURVE SMOOTH",
"217 580 OFFCURVE",
"240 608 OFFCURVE",
"269 625 CURVE SMOOTH",
"365 684 OFFCURVE",
"370 589 OFFCURVE",
"367 569 CURVE SMOOTH",
"360 523 OFFCURVE",
"327 479 OFFCURVE",
"296 445 CURVE SMOOTH",
"238 380 OFFCURVE",
"166 329 OFFCURVE",
"87 294 CURVE",
"100 337 OFFCURVE",
"115 377 OFFCURVE",
"130 412 CURVE SMOOTH"
);
}
);
width = 234;
}
);
note = h.alt;
},
{
glyphname = m.calt;
lastChange = "2021-09-13 18:01:49 +0000";
layers = (
{
hints = (
{
horizontal = 1;
place = "{-57, 23}";
type = Stem;
},
{
horizontal = 1;
place = "{294, 19}";
type = Stem;
},
{
place = "{284, 36}";
type = Stem;
},
{
horizontal = 1;
place = "{353, 33}";
type = Stem;
},
{
place = "{239, 47}";
type = Stem;
}
);
layerId = "197ECFA8-A16D-41AC-99D0-22A54F6A6421";
paths = (
{
closed = 1;
nodes = (
"445 341 OFFCURVE",
"367 307 OFFCURVE",
"346 289 CURVE SMOOTH",
"306 256 OFFCURVE",
"266 201 OFFCURVE",
"238 151 CURVE",
"254 214 OFFCURVE",
"284 299 OFFCURVE",
"286 309 CURVE SMOOTH",
"298 362 OFFCURVE",
"256 388 OFFCURVE",
"236 386 CURVE SMOOTH",
"159 376 OFFCURVE",
"137 299 OFFCURVE",
"120 227 CURVE SMOOTH",
"115 203 OFFCURVE",
"111 179 OFFCURVE",
"107 155 CURVE",
"96 193 OFFCURVE",
"74 331 OFFCURVE",
"34 342 CURVE",
"30 344 OFFCURVE",
"12 343 OFFCURVE",
"18 336 CURVE",
"37 327 OFFCURVE",
"43 304 OFFCURVE",
"48 286 CURVE SMOOTH",
"63 233 OFFCURVE",
"68 129 OFFCURVE",
"77 74 CURVE SMOOTH",
"80 55 OFFCURVE",
"83 30 OFFCURVE",
"94 15 CURVE SMOOTH",
"102 5 OFFCURVE",
"116 6 OFFCURVE",
"126 13 CURVE SMOOTH",
"127 14 LINE SMOOTH",
"134 25 OFFCURVE",
"127 69 OFFCURVE",
"125 84 CURVE SMOOTH",
"108 211 OFFCURVE",
"192 386 OFFCURVE",
"228 348 CURVE SMOOTH",
"267 307 OFFCURVE",
"192 208 OFFCURVE",
"203 63 CURVE SMOOTH",
"204 51 OFFCURVE",
"204 25 OFFCURVE",
"219 23 CURVE SMOOTH",
"228 22 OFFCURVE",
"229 46 OFFCURVE",
"231 53 CURVE SMOOTH",
"240 94 OFFCURVE",
"267 184 OFFCURVE",
"311 232 CURVE SMOOTH",
"328 252 OFFCURVE",
"413 344 OFFCURVE",
"385 257 CURVE SMOOTH",
"363 188 OFFCURVE",
"227 7 OFFCURVE",
"312 -51 CURVE SMOOTH",
"330 -63 OFFCURVE",
"356 -56 OFFCURVE",
"375 -41 CURVE SMOOTH",
"377 -39 OFFCURVE",
"387 -31 OFFCURVE",
"388 -26 CURVE SMOOTH",
"394 -9 OFFCURVE",
"377 -24 OFFCURVE",
"374 -27 CURVE SMOOTH",
"359 -40 OFFCURVE",
"327 -38 OFFCURVE",
"320 -3 CURVE SMOOTH",
"309 52 OFFCURVE",
"417 192 OFFCURVE",
"432 272 CURVE SMOOTH"
);
}
);
width = 419;
}
);
note = m.alt;
},
{
glyphname = n.calt;
lastChange = "2021-09-13 18:01:49 +0000";
layers = (
{
hints = (
{
horizontal = 1;
place = "{404, -20}";
target = down;
type = TopGhost;
},
{
place = "{32, 45}";
type = Stem;
},
{
place = "{178, 15}";
type = Stem;
},
{
place = "{282, 45}";
type = Stem;
}
);
layerId = "197ECFA8-A16D-41AC-99D0-22A54F6A6421";
paths = (
{
closed = 1;
nodes = (
"251 41 OFFCURVE",
"220 -2 OFFCURVE",
"201 10 CURVE SMOOTH",
"172 28 OFFCURVE",
"233 161 OFFCURVE",
"243 178 CURVE SMOOTH",
"266 218 OFFCURVE",
"396 393 OFFCURVE",
"278 404 CURVE SMOOTH",
"197 411 OFFCURVE",
"131 293 OFFCURVE",
"103 237 CURVE SMOOTH",
"94 218 OFFCURVE",
"86 200 OFFCURVE",
"77 177 CURVE",
"74 216 OFFCURVE",
"70 311 OFFCURVE",
"32 330 CURVE",
"29 333 OFFCURVE",
"11 335 OFFCURVE",
"16 327 CURVE",
"32 314 OFFCURVE",
"34 291 OFFCURVE",
"35 272 CURVE SMOOTH",
"39 217 OFFCURVE",
"34 159 OFFCURVE",
"32 103 CURVE SMOOTH",
"31 84 OFFCURVE",
"28 52 OFFCURVE",
"36 35 CURVE SMOOTH",
"47 8 OFFCURVE",
"74 41 OFFCURVE",
"76 59 CURVE SMOOTH",
"84 139 OFFCURVE",
"101 211 OFFCURVE",
"143 279 CURVE SMOOTH",
"157 304 OFFCURVE",
"229 397 OFFCURVE",
"270 387 CURVE SMOOTH",
"290 381 OFFCURVE",
"279 354 OFFCURVE",
"275 341 CURVE SMOOTH",
"261 292 OFFCURVE",
"141 31 OFFCURVE",
"189 -9 CURVE SMOOTH",
"212 -28 OFFCURVE",
"247 7 OFFCURVE",
"248 30 CURVE"
);
}
);
width = 323;
}
);
note = n.alt;
},
{
glyphname = o.calt;
lastChange = "2021-09-13 18:01:49 +0000";
layers = (
{
hints = (
{
horizontal = 1;
place = "{-19, 21}";
type = Stem;
},
{
horizontal = 1;
place = "{85, 9}";
type = Stem;
},
{
horizontal = 1;
place = "{296, 13}";
type = Stem;
},
{
place = "{28, 31}";
type = Stem;
},
{
place = "{287, 30}";
type = Stem;
}
);
layerId = "197ECFA8-A16D-41AC-99D0-22A54F6A6421";
paths = (
{
closed = 1;
nodes = (
"312 337 OFFCURVE",
"288 376 OFFCURVE",
"256 388 CURVE SMOOTH",
"170 419 OFFCURVE",
"91 277 OFFCURVE",
"77 210 CURVE",
"66 196 OFFCURVE",
"49 171 OFFCURVE",
"40 142 CURVE SMOOTH",
"24 94 OFFCURVE",
"18 33 OFFCURVE",
"58 0 CURVE SMOOTH",
"113 -48 OFFCURVE",
"184 5 OFFCURVE",
"225 49 CURVE SMOOTH",
"279 106 OFFCURVE",
"324 195 OFFCURVE",
"317 276 CURVE SMOOTH"
);
},
{
closed = 1;
nodes = (
"281 192 OFFCURVE",
"240 83 OFFCURVE",
"170 27 CURVE SMOOTH",
"91 -37 OFFCURVE",
"20 29 OFFCURVE",
"84 166 CURVE",
"99 122 OFFCURVE",
"132 77 OFFCURVE",
"185 85 CURVE SMOOTH",
"187 85 OFFCURVE",
"207 88 OFFCURVE",
"201 94 CURVE",
"108 98 OFFCURVE",
"93 164 OFFCURVE",
"98 186 CURVE SMOOTH",
"99 195 OFFCURVE",
"107 203 OFFCURVE",
"112 209 CURVE",
"128 234 OFFCURVE",
"188 307 OFFCURVE",
"223 296 CURVE",
"224 299 OFFCURVE",
"225 302 OFFCURVE",
"222 304 CURVE",
"203 327 OFFCURVE",
"137 275 OFFCURVE",
"124 261 CURVE",
"121 292 OFFCURVE",
"187 380 OFFCURVE",
"242 365 CURVE SMOOTH",
"281 355 OFFCURVE",
"290 318 OFFCURVE",
"287 284 CURVE SMOOTH"
);
}
);
width = 321;
}
);
note = o.alt;
},
{
glyphname = s.calt;
lastChange = "2021-09-13 18:01:49 +0000";
layers = (
{
hints = (
{
horizontal = 1;
place = "{-34, 23}";
type = Stem;
},
{
horizontal = 1;
place = "{60, 12}";
type = Stem;
},
{
horizontal = 1;
place = "{341, 19}";
type = Stem;
},
{
place = "{24, 24}";
type = Stem;
},
{
place = "{87, 17}";
type = Stem;
},
{
place = "{264, 27}";
type = Stem;
},
{
place = "{18, 33}";
type = Stem;
}
);
layerId = "197ECFA8-A16D-41AC-99D0-22A54F6A6421";
paths = (
{
closed = 1;
nodes = (
"88 30 OFFCURVE",
"87 27 OFFCURVE",
"87 24 CURVE SMOOTH",
"87 4 OFFCURVE",
"52 -21 OFFCURVE",
"51 -7 CURVE SMOOTH",
"49 8 OFFCURVE",
"67 22 OFFCURVE",
"87 34 CURVE"
);
},
{
closed = 1;
nodes = (
"218 366 OFFCURVE",
"187 367 OFFCURVE",
"163 361 CURVE SMOOTH",
"95 346 OFFCURVE",
"27 296 OFFCURVE",
"24 215 CURVE SMOOTH",
"19 129 OFFCURVE",
"70 91 OFFCURVE",
"82 47 CURVE",
"78 46 OFFCURVE",
"53 30 OFFCURVE",
"50 29 CURVE",
"15 11 OFFCURVE",
"14 -13 OFFCURVE",
"22 -23 CURVE SMOOTH",
"37 -45 OFFCURVE",
"85 -32 OFFCURVE",
"98 -8 CURVE SMOOTH",
"106 7 OFFCURVE",
"105 23 OFFCURVE",
"99 40 CURVE",
"121 52 OFFCURVE",
"139 59 OFFCURVE",
"143 60 CURVE SMOOTH",
"157 65 OFFCURVE",
"164 77 OFFCURVE",
"142 72 CURVE SMOOTH",
"128 68 OFFCURVE",
"109 60 OFFCURVE",
"92 51 CURVE",
"72 96 OFFCURVE",
"34 150 OFFCURVE",
"53 211 CURVE SMOOTH",
"72 276 OFFCURVE",
"147 340 OFFCURVE",
"217 341 CURVE SMOOTH",
"233 341 OFFCURVE",
"255 340 OFFCURVE",
"265 328 CURVE SMOOTH",
"270 321 OFFCURVE",
"273 311 OFFCURVE",
"270 303 CURVE SMOOTH",
"268 298 OFFCURVE",
"259 274 OFFCURVE",
"268 274 CURVE SMOOTH",
"276 274 OFFCURVE",
"281 281 OFFCURVE",
"284 286 CURVE SMOOTH",
"305 318 OFFCURVE",
"277 348 OFFCURVE",
"242 359 CURVE SMOOTH"
);
}
);
width = 243;
}
);
note = s.alt;
},
{
glyphname = y.calt;
lastChange = "2021-09-13 18:01:49 +0000";
layers = (
{
hints = (
{
horizontal = 1;
place = "{192, 28}";
type = Stem;
},
{
place = "{152, 140}";
type = Stem;
}
);
layerId = "197ECFA8-A16D-41AC-99D0-22A54F6A6421";
paths = (
{
closed = 1;
nodes = (
"384 -57 OFFCURVE",
"351 -59 OFFCURVE",
"318 -65 CURVE",
"328 48 OFFCURVE",
"312 224 OFFCURVE",
"283 293 CURVE SMOOTH",
"275 312 OFFCURVE",
"239 308 OFFCURVE",
"243 282 CURVE",
"246 274 OFFCURVE",
"249 265 OFFCURVE",
"252 256 CURVE",
"203 145 OFFCURVE",
"159 53 OFFCURVE",
"133 4 CURVE",
"156 119 OFFCURVE",
"184 220 OFFCURVE",
"93 220 CURVE SMOOTH",
"74 220 OFFCURVE",
"38 210 OFFCURVE",
"28 184 CURVE SMOOTH",
"23 171 OFFCURVE",
"25 162 OFFCURVE",
"34 172 CURVE SMOOTH",
"45 184 OFFCURVE",
"59 192 OFFCURVE",
"73 192 CURVE SMOOTH",
"150 189 OFFCURVE",
"101 15 OFFCURVE",
"108 -32 CURVE SMOOTH",
"115 -84 OFFCURVE",
"151 -52 OFFCURVE",
"152 -37 CURVE SMOOTH",
"156 21 OFFCURVE",
"203 105 OFFCURVE",
"257 237 CURVE",
"277 164 OFFCURVE",
"298 58 OFFCURVE",
"292 -70 CURVE",
"128 -105 OFFCURVE",
"19 -197 OFFCURVE",
"-27 -265 CURVE SMOOTH",
"-115 -393 OFFCURVE",
"12 -479 OFFCURVE",
"158 -372 CURVE SMOOTH",
"221 -325 OFFCURVE",
"287 -237 OFFCURVE",
"315 -83 CURVE",
"348 -75 OFFCURVE",
"381 -71 OFFCURVE",
"413 -68 CURVE SMOOTH",
"435 -66 OFFCURVE",
"442 -52 OFFCURVE",
"421 -54 CURVE SMOOTH"
);
},
{
closed = 1;
nodes = (
"274 -211 OFFCURVE",
"216 -308 OFFCURVE",
"110 -370 CURVE SMOOTH",
"-14 -443 OFFCURVE",
"-71 -367 OFFCURVE",
"3 -270 CURVE SMOOTH",
"68 -185 OFFCURVE",
"183 -117 OFFCURVE",
"290 -89 CURVE"
);
}
);
width = 342;
}
);
note = y.alt;
},
{
glyphname = a.ss01;
lastChange = "2021-09-13 18:02:17 +0000";
layers = (
{
hints = (
{
horizontal = 1;
place = "{8, 27}";
type = Stem;
},
{
place = "{27, 37}";
type = Stem;
},
{
place = "{192, 45}";
type = Stem;
},
{
horizontal = 1;
place = "{3, 24}";
type = Stem;
},
{
horizontal = 1;
place = "{303, 38}";
type = Stem;
}
);
layerId = "197ECFA8-A16D-41AC-99D0-22A54F6A6421";
paths = (
{
closed = 1;
nodes = (
"339 102 OFFCURVE",
"318 108 OFFCURVE",
"310 91 CURVE SMOOTH",
"254 -28 OFFCURVE",
"236 47 OFFCURVE",
"237 93 CURVE SMOOTH",
"238 138 OFFCURVE",
"246 214 OFFCURVE",
"241 228 CURVE SMOOTH",
"236 246 OFFCURVE",
"215 246 OFFCURVE",
"205 232 CURVE",
"184 182 OFFCURVE",
"159 122 OFFCURVE",
"129 79 CURVE SMOOTH",
"87 21 OFFCURVE",
"54 15 OFFCURVE",
"64 94 CURVE SMOOTH",
"67 122 OFFCURVE",
"78 181 OFFCURVE",
"100 230 CURVE SMOOTH",
"126 290 OFFCURVE",
"180 344 OFFCURVE",
"216 261 CURVE SMOOTH",
"224 243 OFFCURVE",
"242 268 OFFCURVE",
"234 302 CURVE SMOOTH",
"227 327 OFFCURVE",
"204 346 OFFCURVE",
"179 341 CURVE SMOOTH",
"93 324 OFFCURVE",
"0 80 OFFCURVE",
"34 25 CURVE SMOOTH",
"79 -47 OFFCURVE",
"176 124 OFFCURVE",
"192 164 CURVE",
"193 150 OFFCURVE",
"189 70 OFFCURVE",
"212 26 CURVE SMOOTH",
"228 -5 OFFCURVE",
"279 -19 OFFCURVE",
"326 76 CURVE SMOOTH"
);
}
);
width = 263;
}
);
note = a.alt2;
},
{
glyphname = l.ss01;
lastChange = "2021-09-13 18:00:52 +0000";
layers = (
{
hints = (
{
horizontal = 1;
place = "{-158, 21}";
target = up;
type = BottomGhost;
},
{
horizontal = 1;
place = "{621, 23}";
type = Stem;
},
{
place = "{39, 32}";
type = Stem;
}
);
layerId = "197ECFA8-A16D-41AC-99D0-22A54F6A6421";
paths = (
{
closed = 1;
nodes = (
"228 638 OFFCURVE",
"221 642 OFFCURVE",
"214 644 CURVE SMOOTH",
"190 651 OFFCURVE",
"158 635 OFFCURVE",
"127 601 CURVE SMOOTH",
"2 463 OFFCURVE",
"13 7 OFFCURVE",
"137 -137 CURVE SMOOTH",
"146 -148 OFFCURVE",
"157 -156 OFFCURVE",
"172 -158 CURVE SMOOTH",
"187 -160 OFFCURVE",
"174 -147 OFFCURVE",
"163 -138 CURVE SMOOTH",
"123 -103 OFFCURVE",
"95 38 OFFCURVE",
"88 88 CURVE SMOOTH",
"68 223 OFFCURVE",
"48 453 OFFCURVE",
"136 582 CURVE SMOOTH",
"162 619 OFFCURVE",
"183 629 OFFCURVE",
"197 614 CURVE SMOOTH",
"200 610 OFFCURVE",
"206 603 OFFCURVE",
"213 599 CURVE SMOOTH",
"237 586 OFFCURVE",
"244 619 OFFCURVE",
"233 632 CURVE SMOOTH"
);
}
);
width = 168;
}
);
note = l.001;
},
{
glyphname = s.ss01;
lastChange = "2021-09-13 18:02:05 +0000";
layers = (
{
hints = (
{
horizontal = 1;
place = "{-28, 22}";
type = Stem;
},
{
horizontal = 1;
place = "{381, 17}";
type = Stem;
},
{
place = "{-20, 18}";
type = Stem;
},
{
place = "{138, 46}";
type = Stem;
},
{
place = "{217, 19}";
type = Stem;
}
);
layerId = "197ECFA8-A16D-41AC-99D0-22A54F6A6421";
paths = (
{
closed = 1;
nodes = (
"71 286 OFFCURVE",
"97 364 OFFCURVE",
"156 378 CURVE SMOOTH",
"170 381 OFFCURVE",
"188 384 OFFCURVE",
"202 375 CURVE SMOOTH",
"209 370 OFFCURVE",
"216 362 OFFCURVE",
"217 354 CURVE SMOOTH",
"217 350 OFFCURVE",
"219 327 OFFCURVE",
"228 329 CURVE SMOOTH",
"234 330 OFFCURVE",
"235 338 OFFCURVE",
"236 343 CURVE SMOOTH",
"240 375 OFFCURVE",
"204 396 OFFCURVE",
"169 398 CURVE SMOOTH",
"147 400 OFFCURVE",
"120 395 OFFCURVE",
"102 386 CURVE SMOOTH",
"52 359 OFFCURVE",
"14 303 OFFCURVE",
"45 231 CURVE SMOOTH",
"68 178 OFFCURVE",
"131 138 OFFCURVE",
"138 96 CURVE SMOOTH",
"147 52 OFFCURVE",
"110 1 OFFCURVE",
"54 -6 CURVE SMOOTH",
"41 -8 OFFCURVE",
"24 -9 OFFCURVE",
"10 -2 CURVE SMOOTH",
"4 1 OFFCURVE",
"-1 6 OFFCURVE",
"-2 12 CURVE SMOOTH",
"-2 16 OFFCURVE",
"-4 33 OFFCURVE",
"-13 32 CURVE",
"-18 30 OFFCURVE",
"-19 26 OFFCURVE",
"-20 21 CURVE SMOOTH",
"-26 -1 OFFCURVE",
"19 -25 OFFCURVE",
"52 -28 CURVE SMOOTH",
"73 -29 OFFCURVE",
"99 -27 OFFCURVE",
"116 -21 CURVE SMOOTH",
"166 -3 OFFCURVE",
"202 36 OFFCURVE",
"174 89 CURVE SMOOTH",
"147 143 OFFCURVE",
"92 166 OFFCURVE",
"82 226 CURVE SMOOTH"
);
}
);
width = 225;
}
);
note = s.alt1;
},
{
glyphname = l.ss02;
lastChange = "2021-09-13 18:01:02 +0000";
layers = (
{
hints = (
{
horizontal = 1;
place = "{710, 20}";
type = Stem;
},
{
place = "{18, 33}";
type = Stem;
}
);
layerId = "197ECFA8-A16D-41AC-99D0-22A54F6A6421";
paths = (
{
closed = 1;
nodes = (
"335 714 OFFCURVE",
"329 720 OFFCURVE",
"323 724 CURVE SMOOTH",
"301 737 OFFCURVE",
"266 730 OFFCURVE",
"228 705 CURVE SMOOTH",
"71 604 OFFCURVE",
"-36 160 OFFCURVE",
"47 -11 CURVE",
"52 -24 OFFCURVE",
"61 -34 OFFCURVE",
"75 -40 CURVE SMOOTH",
"89 -46 OFFCURVE",
"80 -30 OFFCURVE",
"71 -18 CURVE SMOOTH",
"42 26 OFFCURVE",
"51 169 OFFCURVE",
"57 219 CURVE SMOOTH",
"73 355 OFFCURVE",
"113 582 OFFCURVE",
"231 684 CURVE SMOOTH",
"266 713 OFFCURVE",
"289 717 OFFCURVE",
"298 699 CURVE SMOOTH",
"300 695 OFFCURVE",
"304 686 OFFCURVE",
"310 681 CURVE SMOOTH",
"330 662 OFFCURVE",
"345 692 OFFCURVE",
"338 707 CURVE SMOOTH"
);
}
);
width = 168;
}
);
note = l.002;
},
{
glyphname = c_k;
layers = (
{
hints = (
{
horizontal = 1;
place = "{-34, 27}";
type = Stem;
},
{
place = "{13, 38}";
type = Stem;
},
{
place = "{242, 21}";
type = Stem;
}
);
layerId = "197ECFA8-A16D-41AC-99D0-22A54F6A6421";
paths = (
{
closed = 1;
nodes = (
"366 236 LINE SMOOTH",
"383 256 OFFCURVE",
"534 366 OFFCURVE",
"480 368 CURVE SMOOTH",
"450 369 OFFCURVE",
"406 311 OFFCURVE",
"386 291 CURVE SMOOTH",
"366 272 OFFCURVE",
"382 267 OFFCURVE",
"379 263 CURVE SMOOTH",
"359 239 OFFCURVE",
"333 220 OFFCURVE",
"310 200 CURVE SMOOTH",
"309 199 LINE",
"323 346 OFFCURVE",
"317 499 OFFCURVE",
"296 552 CURVE SMOOTH",
"282 588 OFFCURVE",
"258 594 OFFCURVE",
"270 559 CURVE SMOOTH",
"293 491 OFFCURVE",
"298 365 OFFCURVE",
"283 251 CURVE SMOOTH",
"283 254 OFFCURVE",
"277 256 OFFCURVE",
"274 256 CURVE",
"265 258 OFFCURVE",
"241 219 OFFCURVE",
"266 188 CURVE",
"263 183 LINE SMOOTH",
"230 118 OFFCURVE",
"137 -2 OFFCURVE",
"72 8 CURVE SMOOTH",
"13 17 OFFCURVE",
"91 282 OFFCURVE",
"154 279 CURVE SMOOTH",
"169 278 OFFCURVE",
"165 251 OFFCURVE",
"180 249 CURVE SMOOTH",
"206 245 OFFCURVE",
"212 328 OFFCURVE",
"158 317 CURVE SMOOTH",
"91 304 OFFCURVE",
"13 127 OFFCURVE",
"13 57 CURVE SMOOTH",
"13 -41 OFFCURVE",
"98 -32 OFFCURVE",
"152 9 CURVE SMOOTH",
"180 30 OFFCURVE",
"239 104 OFFCURVE",
"268 153 CURVE",
"256 92 OFFCURVE",
"231 -36 OFFCURVE",
"199 -84 CURVE SMOOTH",
"189 -100 OFFCURVE",
"221 -113 OFFCURVE",
"238 -95 CURVE SMOOTH",
"263 -65 OFFCURVE",
"285 23 OFFCURVE",
"300 125 CURVE",
"331 -2 OFFCURVE",
"430 -90 OFFCURVE",
"505 23 CURVE SMOOTH",
"514 36 OFFCURVE",
"556 110 OFFCURVE",
"564 137 CURVE SMOOTH",
"567 149 OFFCURVE",
"555 155 OFFCURVE",
"541 130 CURVE SMOOTH",
"530 112 OFFCURVE",
"498 51 OFFCURVE",
"474 24 CURVE SMOOTH",
"394 -64 OFFCURVE",
"335 95 OFFCURVE",
"312 177 CURVE",
"328 194 LINE"
);
}
);
width = 505;
}
);
note = c_k;
unicode = E009;
},
{
glyphname = c_t;
layers = (
{
hints = (
{
place = "{13, 38}";
type = Stem;
},
{
horizontal = 1;
place = "{389, 239}";
type = Stem;
},
{
place = "{255, 26}";
type = Stem;
}
);
layerId = "197ECFA8-A16D-41AC-99D0-22A54F6A6421";
paths = (
{
closed = 1;
nodes = (
"239 131 OFFCURVE",
"239 164 OFFCURVE",
"214 119 CURVE SMOOTH",
"200 94 OFFCURVE",
"137 -2 OFFCURVE",
"72 8 CURVE SMOOTH",
"13 17 OFFCURVE",
"91 282 OFFCURVE",
"154 279 CURVE SMOOTH",
"169 278 OFFCURVE",
"165 251 OFFCURVE",
"180 249 CURVE SMOOTH",
"206 245 OFFCURVE",
"212 328 OFFCURVE",
"158 317 CURVE SMOOTH",
"91 304 OFFCURVE",
"13 127 OFFCURVE",
"13 57 CURVE SMOOTH",
"13 -41 OFFCURVE",
"98 -32 OFFCURVE",
"152 9 CURVE SMOOTH",
"186 35 OFFCURVE",
"216 73 OFFCURVE",
"233 117 CURVE SMOOTH"
);
},
{
closed = 1;
nodes = (
"415 626 OFFCURVE",
"352 495 OFFCURVE",
"340 465 CURVE SMOOTH",
"314 399 LINE",
"302 392 OFFCURVE",
"291 396 OFFCURVE",
"281 389 CURVE",
"262 389 OFFCURVE",
"199 369 OFFCURVE",
"219 337 CURVE SMOOTH",
"229 319 OFFCURVE",
"284 355 OFFCURVE",
"299 357 CURVE",
"291 335 OFFCURVE",
"281 295 OFFCURVE",
"274 263 CURVE SMOOTH",
"255 177 OFFCURVE",
"240 47 OFFCURVE",
"282 -54 CURVE SMOOTH",
"289 -71 OFFCURVE",
"301 -96 OFFCURVE",
"319 -101 CURVE SMOOTH",
"328 -103 OFFCURVE",
"329 -97 OFFCURVE",
"320 -91 CURVE",
"313 -88 OFFCURVE",
"308 -80 OFFCURVE",
"305 -73 CURVE",
"278 -25 OFFCURVE",
"276 58 OFFCURVE",
"281 107 CURVE SMOOTH",
"288 175 OFFCURVE",
"299 239 OFFCURVE",
"316 301 CURVE SMOOTH",
"328 342 OFFCURVE",
"325 358 OFFCURVE",
"358 368 CURVE SMOOTH",
"408 384 OFFCURVE",
"449 390 OFFCURVE",
"467 389 CURVE SMOOTH",
"501 387 OFFCURVE",
"489 397 OFFCURVE",
"475 402 CURVE SMOOTH",
"453 411 OFFCURVE",
"401 410 OFFCURVE",
"377 407 CURVE SMOOTH",
"375 407 OFFCURVE",
"358 404 OFFCURVE",
"357 404 CURVE",
"359 407 OFFCURVE",
"365 422 OFFCURVE",
"367 427 CURVE SMOOTH",
"386 470 OFFCURVE",
"414 508 OFFCURVE",
"439 548 CURVE SMOOTH",
"484 620 OFFCURVE",
"471 630 OFFCURVE",
"446 628 CURVE SMOOTH"
);
}
);
width = 362;
}
);
note = c_t;
unicode = E014;
},
{
glyphname = e_e;
layers = (
{
hints = (
{
horizontal = 1;
place = "{3, 16}";
type = Stem;
},
{
horizontal = 1;
place = "{291, 40}";
type = Stem;
},
{
place = "{42, 33}";
type = Stem;
},
{
place = "{157, 28}";
type = Stem;
},
{
place = "{258, 33}";
type = Stem;
},
{
place = "{373, 28}";
type = Stem;
}
);
layerId = "197ECFA8-A16D-41AC-99D0-22A54F6A6421";
paths = (
{
closed = 1;
nodes = (
"501 162 OFFCURVE",
"491 180 OFFCURVE",
"472 139 CURVE SMOOTH",
"388 -38 OFFCURVE",
"308 -12 OFFCURVE",
"292 93 CURVE",
"341 129 OFFCURVE",
"375 181 OFFCURVE",
"395 227 CURVE SMOOTH",
"449 354 OFFCURVE",
"262 385 OFFCURVE",
"253 166 CURVE SMOOTH",
"252 137 OFFCURVE",
"253 113 OFFCURVE",
"257 91 CURVE",
"242 77 OFFCURVE",
"222 64 OFFCURVE",
"200 55 CURVE SMOOTH",
"102 13 OFFCURVE",
"56 87 OFFCURVE",
"85 181 CURVE",
"137 189 OFFCURVE",
"186 212 OFFCURVE",
"206 234 CURVE SMOOTH",
"303 341 OFFCURVE",
"130 426 OFFCURVE",
"63 217 CURVE SMOOTH",
"60 208 OFFCURVE",
"58 200 OFFCURVE",
"55 193 CURVE",
"49 193 OFFCURVE",
"44 194 OFFCURVE",
"39 196 CURVE SMOOTH",
"19 203 OFFCURVE",
"9 180 OFFCURVE",
"32 178 CURVE SMOOTH",
"38 177 OFFCURVE",
"45 177 OFFCURVE",
"52 177 CURVE",
"26 66 OFFCURVE",
"98 -3 OFFCURVE",
"202 36 CURVE SMOOTH",
"226 45 OFFCURVE",
"247 58 OFFCURVE",
"260 71 CURVE",
"292 -62 OFFCURVE",
"421 -43 OFFCURVE",
"496 150 CURVE SMOOTH"
);
},
{
closed = 1;
nodes = (
"319 343 OFFCURVE",
"406 319 OFFCURVE",
"374 231 CURVE SMOOTH",
"366 209 OFFCURVE",
"334 161 OFFCURVE",
"290 119 CURVE",
"289 140 OFFCURVE",
"291 163 OFFCURVE",
"295 188 CURVE SMOOTH"
);
},
{
closed = 1;
nodes = (
"102 222 LINE SMOOTH",
"170 365 OFFCURVE",
"249 320 OFFCURVE",
"185 244 CURVE SMOOTH",
"170 227 OFFCURVE",
"129 206 OFFCURVE",
"91 197 CURVE"
);
}
);
width = 432;
}
);
note = e_e;
unicode = E017;
},
{
glyphname = f_t;
layers = (
{
hints = (
{
horizontal = 1;
place = "{328, 239}";
type = Stem;
},
{
horizontal = 1;
place = "{543, 52}";
type = Stem;
},
{
place = "{4, 67}";
type = Stem;
},
{
place = "{241, 19}";
type = Stem;
},
{
place = "{263, 26}";
type = Stem;
}
);
layerId = "197ECFA8-A16D-41AC-99D0-22A54F6A6421";
paths = (
{
closed = 1;
nodes = (
"391 566 OFFCURVE",
"328 435 OFFCURVE",
"316 405 CURVE SMOOTH",
"290 339 LINE",
"248 333 OFFCURVE",
"203 327 OFFCURVE",
"162 316 CURVE",
"191 462 OFFCURVE",
"217 546 OFFCURVE",
"256 582 CURVE SMOOTH",
"306 628 OFFCURVE",
"343 579 OFFCURVE",
"294 516 CURVE SMOOTH",
"286 506 OFFCURVE",
"290 489 OFFCURVE",
"298 498 CURVE SMOOTH",
"399 621 OFFCURVE",
"280 667 OFFCURVE",
"240 633 CURVE SMOOTH",
"177 583 OFFCURVE",
"148 450 OFFCURVE",
"125 312 CURVE",
"97 308 OFFCURVE",
"85 306 OFFCURVE",
"60 302 CURVE SMOOTH",
"35 298 OFFCURVE",
"24 258 OFFCURVE",
"60 265 CURVE SMOOTH",
"81 269 OFFCURVE",
"100 278 OFFCURVE",
"120 285 CURVE",
"104 171 OFFCURVE",
"85 34 OFFCURVE",
"53 -55 CURVE SMOOTH",
"27 -128 OFFCURVE",
"-3 -197 OFFCURVE",
"-58 -238 CURVE SMOOTH",
"-92 -264 OFFCURVE",
"-114 -267 OFFCURVE",
"-124 -248 CURVE SMOOTH",
"-127 -243 OFFCURVE",
"-131 -235 OFFCURVE",
"-136 -229 CURVE",
"-157 -209 OFFCURVE",
"-172 -237 OFFCURVE",
"-164 -253 CURVE SMOOTH",
"-160 -260 OFFCURVE",
"-155 -266 OFFCURVE",
"-149 -270 CURVE SMOOTH",
"-127 -284 OFFCURVE",
"-92 -280 OFFCURVE",
"-53 -260 CURVE SMOOTH",
"3 -229 OFFCURVE",
"46 -156 OFFCURVE",
"78 -66 CURVE SMOOTH",
"113 30 OFFCURVE",
"136 173 OFFCURVE",
"158 293 CURVE",
"184 302 OFFCURVE",
"278 321 OFFCURVE",
"285 322 CURVE",
"269 290 OFFCURVE",
"257 235 OFFCURVE",
"250 203 CURVE SMOOTH",
"236 136 OFFCURVE",
"230 -39 OFFCURVE",
"267 -58 CURVE SMOOTH",
"271 -60 OFFCURVE",
"299 -71 OFFCURVE",
"275 -41 CURVE SMOOTH",
"246 -5 OFFCURVE",
"267 149 OFFCURVE",
"292 241 CURVE SMOOTH",
"304 282 OFFCURVE",
"305 309 OFFCURVE",
"338 319 CURVE SMOOTH",
"388 335 OFFCURVE",
"425 330 OFFCURVE",
"443 329 CURVE SMOOTH",
"477 327 OFFCURVE",
"466 340 OFFCURVE",
"451 342 CURVE SMOOTH",
"430 345 OFFCURVE",
"406 349 OFFCURVE",
"382 346 CURVE SMOOTH",
"380 346 OFFCURVE",
"334 344 OFFCURVE",
"333 344 CURVE",
"335 347 OFFCURVE",
"341 362 OFFCURVE",
"343 367 CURVE SMOOTH",
"362 410 OFFCURVE",
"390 448 OFFCURVE",
"415 488 CURVE SMOOTH",
"460 560 OFFCURVE",
"447 570 OFFCURVE",
"422 568 CURVE SMOOTH"
);
}
);
width = 431;
}
);
note = f_t;
unicode = E00B;
},
{
glyphname = ff;
layers = (
{
hints = (
{
horizontal = 1;
place = "{543, 52}";
type = Stem;
},
{
place = "{4, 67}";
type = Stem;
},
{
place = "{185, 67}";
type = Stem;
},
{
place = "{422, 19}";
type = Stem;
},
{
place = "{241, 19}";
type = Stem;
}
);
layerId = "197ECFA8-A16D-41AC-99D0-22A54F6A6421";
paths = (
{
closed = 1;
nodes = (
"173 508 OFFCURVE",
"194 554 OFFCURVE",
"223 581 CURVE SMOOTH",
"273 627 OFFCURVE",
"310 578 OFFCURVE",
"261 515 CURVE SMOOTH",
"253 505 OFFCURVE",
"257 488 OFFCURVE",
"265 497 CURVE SMOOTH",
"366 620 OFFCURVE",
"247 666 OFFCURVE",
"207 632 CURVE SMOOTH",
"142 580 OFFCURVE",
"114 447 OFFCURVE",
"91 303 CURVE",
"70 302 OFFCURVE",
"46 300 OFFCURVE",
"21 297 CURVE SMOOTH",
"14 296 OFFCURVE",
"34 271 OFFCURVE",
"40 272 CURVE SMOOTH",
"55 273 OFFCURVE",
"71 275 OFFCURVE",
"87 277 CURVE",
"68 158 OFFCURVE",
"52 34 OFFCURVE",
"20 -56 CURVE SMOOTH",
"-6 -129 OFFCURVE",
"-36 -198 OFFCURVE",
"-91 -239 CURVE SMOOTH",
"-125 -265 OFFCURVE",
"-147 -268 OFFCURVE",
"-157 -249 CURVE SMOOTH",
"-160 -244 OFFCURVE",
"-164 -236 OFFCURVE",
"-169 -230 CURVE",
"-190 -210 OFFCURVE",
"-205 -238 OFFCURVE",
"-197 -254 CURVE SMOOTH",
"-193 -261 OFFCURVE",
"-188 -267 OFFCURVE",
"-182 -271 CURVE SMOOTH",
"-160 -285 OFFCURVE",
"-125 -281 OFFCURVE",
"-86 -261 CURVE SMOOTH",
"-30 -230 OFFCURVE",
"13 -157 OFFCURVE",
"45 -67 CURVE SMOOTH",
"80 29 OFFCURVE",
"100 159 OFFCURVE",
"122 279 CURVE SMOOTH",
"122 280 LINE",
"200 288 OFFCURVE",
"247 301 OFFCURVE",
"297 299 CURVE",
"291 257 LINE SMOOTH",
"276 162 OFFCURVE",
"260 70 OFFCURVE",
"235 -2 CURVE SMOOTH",
"209 -75 OFFCURVE",
"179 -144 OFFCURVE",
"124 -185 CURVE SMOOTH",
"90 -211 OFFCURVE",
"68 -214 OFFCURVE",
"58 -195 CURVE SMOOTH",
"55 -190 OFFCURVE",
"51 -182 OFFCURVE",
"46 -176 CURVE",
"25 -156 OFFCURVE",
"10 -184 OFFCURVE",
"18 -200 CURVE SMOOTH",
"22 -207 OFFCURVE",
"27 -213 OFFCURVE",
"33 -217 CURVE SMOOTH",
"55 -231 OFFCURVE",
"90 -227 OFFCURVE",
"129 -207 CURVE SMOOTH",
"185 -176 OFFCURVE",
"228 -103 OFFCURVE",
"260 -13 CURVE SMOOTH",
"288 63 OFFCURVE",
"306 160 OFFCURVE",
"323 257 CURVE SMOOTH",
"331 300 LINE",
"367 300 OFFCURVE",
"407 299 OFFCURVE",
"435 275 CURVE",
"439 262 OFFCURVE",
"440 258 OFFCURVE",
"440 253 CURVE",
"434 237 LINE SMOOTH",
"431 226 OFFCURVE",
"443 221 OFFCURVE",
"450 229 CURVE",
"478 303 OFFCURVE",
"405 318 OFFCURVE",
"334 319 CURVE",
"339 342 LINE",
"385 369 OFFCURVE",
"425 403 OFFCURVE",
"465 450 CURVE SMOOTH",
"521 517 OFFCURVE",
"539 582 OFFCURVE",
"537 616 CURVE SMOOTH",
"533 683 OFFCURVE",
"473 710 OFFCURVE",
"423 676 CURVE SMOOTH",
"364 636 OFFCURVE",
"329 535 OFFCURVE",
"315 413 CURVE SMOOTH",
"312 388 OFFCURVE",
"309 371 OFFCURVE",
"305 343 CURVE",
"301 338 OFFCURVE",
"146 300 OFFCURVE",
"125 302 CURVE",
"134 343 OFFCURVE",
"143 383 OFFCURVE",
"152 424 CURVE SMOOTH"
);
},
{
closed = 1;
nodes = (
"376 537 OFFCURVE",
"402 602 OFFCURVE",
"438 635 CURVE SMOOTH",
"460 656 OFFCURVE",
"487 653 OFFCURVE",
"498 628 CURVE SMOOTH",
"522 577 OFFCURVE",
"478 503 OFFCURVE",
"449 466 CURVE SMOOTH",
"416 424 OFFCURVE",
"382 390 OFFCURVE",
"344 365 CURVE",
"347 382 OFFCURVE",
"351 400 OFFCURVE",
"354 417 CURVE SMOOTH"
);
}
);
width = 404;
}
);
note = ff;
unicode = FB00;
},
{
glyphname = fi;
layers = (
{
hints = (
{
horizontal = 1;
place = "{543, 52}";
type = Stem;
},
{
place = "{-6, 67}";
type = Stem;
},
{
place = "{231, 19}";
type = Stem;
},
{
horizontal = 1;
place = "{-24, 12}";
type = Stem;
},
{
horizontal = 1;
place = "{403, -20}";
target = down;
type = TopGhost;
},
{
place = "{189, 29}";
type = Stem;
},
{
place = "{281, 56}";
type = Stem;
}
);
layerId = "197ECFA8-A16D-41AC-99D0-22A54F6A6421";
paths = (
{
closed = 1;
nodes = (
"194 297 OFFCURVE",
"161 303 OFFCURVE",
"116 303 CURVE",
"119 315 LINE SMOOTH",
"149 470 OFFCURVE",
"173 544 OFFCURVE",
"213 581 CURVE SMOOTH",
"263 627 OFFCURVE",
"300 578 OFFCURVE",
"251 515 CURVE SMOOTH",
"243 505 OFFCURVE",
"247 488 OFFCURVE",
"255 497 CURVE SMOOTH",
"356 620 OFFCURVE",
"237 666 OFFCURVE",
"197 632 CURVE SMOOTH",
"132 580 OFFCURVE",
"104 447 OFFCURVE",
"81 303 CURVE",
"60 302 OFFCURVE",
"36 300 OFFCURVE",
"11 297 CURVE SMOOTH",
"4 296 OFFCURVE",
"24 271 OFFCURVE",
"30 272 CURVE SMOOTH",
"45 273 OFFCURVE",
"61 275 OFFCURVE",
"77 277 CURVE",
"58 158 OFFCURVE",
"42 34 OFFCURVE",
"10 -56 CURVE SMOOTH",
"-16 -129 OFFCURVE",
"-46 -198 OFFCURVE",
"-101 -239 CURVE SMOOTH",
"-135 -265 OFFCURVE",
"-157 -268 OFFCURVE",
"-167 -249 CURVE SMOOTH",
"-170 -244 OFFCURVE",
"-174 -236 OFFCURVE",
"-179 -230 CURVE",
"-200 -210 OFFCURVE",
"-215 -238 OFFCURVE",
"-207 -254 CURVE SMOOTH",
"-203 -261 OFFCURVE",
"-198 -267 OFFCURVE",
"-192 -271 CURVE SMOOTH",
"-170 -285 OFFCURVE",
"-135 -281 OFFCURVE",
"-96 -261 CURVE SMOOTH",
"-40 -230 OFFCURVE",
"3 -157 OFFCURVE",
"35 -67 CURVE SMOOTH",
"70 29 OFFCURVE",
"90 159 OFFCURVE",
"112 279 CURVE",
"148 282 OFFCURVE",
"183 283 OFFCURVE",
"211 283 CURVE SMOOTH",
"217 283 OFFCURVE",
"220 290 OFFCURVE",
"214 292 CURVE SMOOTH"
);
},
{
closed = 1;
nodes = (
"293 402 OFFCURVE",
"274 364 OFFCURVE",
"285 343 CURVE SMOOTH",
"287 340 OFFCURVE",
"290 336 OFFCURVE",
"294 335 CURVE SMOOTH",
"320 327 OFFCURVE",
"366 405 OFFCURVE",
"313 403 CURVE SMOOTH"
);
},
{
closed = 1;
nodes = (
"387 142 OFFCURVE",
"381 162 OFFCURVE",
"362 123 CURVE SMOOTH",
"310 16 OFFCURVE",
"221 -69 OFFCURVE",
"218 35 CURVE SMOOTH",
"216 107 OFFCURVE",
"232 142 OFFCURVE",
"261 200 CURVE SMOOTH",
"272 222 OFFCURVE",
"286 242 OFFCURVE",
"291 268 CURVE SMOOTH",
"293 279 OFFCURVE",
"293 292 OFFCURVE",
"284 299 CURVE SMOOTH",
"273 306 OFFCURVE",
"259 299 OFFCURVE",
"253 290 CURVE SMOOTH",
"243 276 OFFCURVE",
"235 261 OFFCURVE",
"228 246 CURVE SMOOTH",
"211 205 OFFCURVE",
"157 24 OFFCURVE",
"216 -15 CURVE SMOOTH",
"231 -25 OFFCURVE",
"260 -32 OFFCURVE",
"294 -7 CURVE SMOOTH",
"339 28 OFFCURVE",
"362 70 OFFCURVE",
"381 125 CURVE SMOOTH"
);
}
);
width = 341;
}
);
note = fi;
unicode = FB01;
},
{
glyphname = fl;
layers = (
{
hints = (
{
horizontal = 1;
place = "{624, 24}";
type = Stem;
},
{
place = "{272, 34}";
type = Stem;
},
{
place = "{451, 44}";
type = Stem;
},
{
horizontal = 1;
place = "{543, 52}";
type = Stem;
},
{
place = "{-6, 67}";
type = Stem;
},
{
place = "{231, 19}";
type = Stem;
}
);
layerId = "197ECFA8-A16D-41AC-99D0-22A54F6A6421";
paths = (
{
closed = 1;
nodes = (
"482 460 OFFCURVE",
"444 389 OFFCURVE",
"355 293 CURVE SMOOTH",
"339 275 OFFCURVE",
"340 261 OFFCURVE",
"357 279 CURVE SMOOTH",
"387 313 OFFCURVE",
"416 343 OFFCURVE",
"442 375 CURVE SMOOTH",
"659 648 OFFCURVE",
"565 733 OFFCURVE",
"450 659 CURVE SMOOTH",
"292 558 OFFCURVE",
"199 131 OFFCURVE",
"292 -37 CURVE SMOOTH",
"300 -53 OFFCURVE",
"314 -75 OFFCURVE",
"336 -76 CURVE SMOOTH",
"345 -77 OFFCURVE",
"346 -71 OFFCURVE",
"335 -67 CURVE SMOOTH",
"328 -65 OFFCURVE",
"322 -57 OFFCURVE",
"319 -52 CURVE SMOOTH",
"286 -9 OFFCURVE",
"289 132 OFFCURVE",
"294 181 CURVE SMOOTH",
"304 314 OFFCURVE",
"336 538 OFFCURVE",
"455 639 CURVE SMOOTH",
"516 690 OFFCURVE",
"547 663 OFFCURVE",
"518 573 CURVE SMOOTH"
);
},
{
closed = 1;
nodes = (
"194 297 OFFCURVE",
"161 303 OFFCURVE",
"116 303 CURVE",
"119 315 LINE SMOOTH",
"149 470 OFFCURVE",
"173 544 OFFCURVE",
"213 581 CURVE SMOOTH",
"263 627 OFFCURVE",
"300 578 OFFCURVE",
"251 515 CURVE SMOOTH",
"243 505 OFFCURVE",
"247 488 OFFCURVE",
"255 497 CURVE SMOOTH",
"356 620 OFFCURVE",
"237 666 OFFCURVE",
"197 632 CURVE SMOOTH",
"132 580 OFFCURVE",
"104 447 OFFCURVE",
"81 303 CURVE",
"60 302 OFFCURVE",
"36 300 OFFCURVE",
"11 297 CURVE SMOOTH",
"4 296 OFFCURVE",
"24 271 OFFCURVE",
"30 272 CURVE SMOOTH",
"45 273 OFFCURVE",
"61 275 OFFCURVE",
"77 277 CURVE",
"58 158 OFFCURVE",
"42 34 OFFCURVE",
"10 -56 CURVE SMOOTH",
"-16 -129 OFFCURVE",
"-46 -198 OFFCURVE",
"-101 -239 CURVE SMOOTH",
"-135 -265 OFFCURVE",
"-157 -268 OFFCURVE",
"-167 -249 CURVE SMOOTH",
"-170 -244 OFFCURVE",
"-174 -236 OFFCURVE",
"-179 -230 CURVE",
"-200 -210 OFFCURVE",
"-215 -238 OFFCURVE",
"-207 -254 CURVE SMOOTH",
"-203 -261 OFFCURVE",
"-198 -267 OFFCURVE",
"-192 -271 CURVE SMOOTH",
"-170 -285 OFFCURVE",
"-135 -281 OFFCURVE",
"-96 -261 CURVE SMOOTH",
"-40 -230 OFFCURVE",
"3 -157 OFFCURVE",
"35 -67 CURVE SMOOTH",
"70 29 OFFCURVE",
"90 159 OFFCURVE",
"112 279 CURVE",
"148 282 OFFCURVE",
"183 283 OFFCURVE",
"211 283 CURVE SMOOTH",
"217 283 OFFCURVE",
"220 290 OFFCURVE",
"214 292 CURVE SMOOTH"
);
}
);
width = 430;
}
);
note = fl;
unicode = FB02;
},
{
glyphname = k_r;
layers = (
{
hints = (
{
horizontal = 1;
place = "{-144, 21}";
target = up;
type = BottomGhost;
},
{
horizontal = 1;
place = "{-33, 29}";
type = Stem;
},
{
horizontal = 1;
place = "{521, -20}";
target = down;
type = TopGhost;
},
{
place = "{60, 195}";
type = Stem;
},
{
place = "{357, 66}";
type = Stem;
},
{
place = "{60, 22}";
type = Stem;
},
{
place = "{357, 20}";
type = Stem;
},
{
place = "{19, 63}";
type = Stem;
},
{
place = "{357, 209}";
type = Stem;
},
{
place = "{357, 140}";
type = Stem;
}
);
layerId = "197ECFA8-A16D-41AC-99D0-22A54F6A6421";
paths = (
{
closed = 1;
nodes = (
"385 283 OFFCURVE",
"423 342 OFFCURVE",
"423 372 CURVE SMOOTH",
"423 382 OFFCURVE",
"419 389 OFFCURVE",
"407 390 CURVE SMOOTH",
"368 390 OFFCURVE",
"347 301 OFFCURVE",
"347 286 CURVE SMOOTH",
"347 277 OFFCURVE",
"351 263 OFFCURVE",
"354 253 CURVE",
"344 230 OFFCURVE",
"316 171 OFFCURVE",
"292 124 CURVE SMOOTH",
"268 77 OFFCURVE",
"222 -4 OFFCURVE",
"181 -4 CURVE SMOOTH",
"135 -4 OFFCURVE",
"97 68 OFFCURVE",
"72 133 CURVE",
"130 196 LINE SMOOTH",
"145 212 OFFCURVE",
"255 296 OFFCURVE",
"255 320 CURVE SMOOTH",
"255 325 OFFCURVE",
"252 328 OFFCURVE",
"244 328 CURVE SMOOTH",
"213 328 OFFCURVE",
"170 271 OFFCURVE",
"150 251 CURVE SMOOTH",
"142 243 OFFCURVE",
"140 238 OFFCURVE",
"140 234 CURVE SMOOTH",
"140 229 OFFCURVE",
"143 226 OFFCURVE",
"143 224 CURVE",
"143 224 OFFCURVE",
"143 223 OFFCURVE",
"143 223 CURVE",
"122 199 OFFCURVE",
"96 180 OFFCURVE",
"72 159 CURVE",
"78 221 OFFCURVE",
"82 284 OFFCURVE",
"82 340 CURVE SMOOTH",
"82 430 OFFCURVE",
"70 521 OFFCURVE",
"49 521 CURVE SMOOTH",
"46 521 OFFCURVE",
"43 518 OFFCURVE",
"43 510 CURVE SMOOTH",
"43 496 OFFCURVE",
"60 456 OFFCURVE",
"60 389 CURVE SMOOTH",
"60 337 OFFCURVE",
"55 273 OFFCURVE",
"47 211 CURVE SMOOTH",
"47 214 OFFCURVE",
"41 216 OFFCURVE",
"38 216 CURVE SMOOTH",
"32 216 OFFCURVE",
"19 200 OFFCURVE",
"19 179 CURVE SMOOTH",
"19 166 OFFCURVE",
"23 153 OFFCURVE",
"37 141 CURVE",
"30 104 OFFCURVE",
"1 -67 OFFCURVE",
"-37 -124 CURVE SMOOTH",
"-38 -126 OFFCURVE",
"-39 -128 OFFCURVE",
"-39 -130 CURVE SMOOTH",
"-39 -138 OFFCURVE",
"-29 -144 OFFCURVE",
"-19 -144 CURVE SMOOTH",
"19 -144 OFFCURVE",
"45 -40 OFFCURVE",
"64 85 CURVE",
"93 25 OFFCURVE",
"136 -33 OFFCURVE",
"183 -33 CURVE SMOOTH",
"207 -33 OFFCURVE",
"232 -18 OFFCURVE",
"258 21 CURVE",
"324 135 OFFCURVE",
"336 182 OFFCURVE",
"365 249 CURVE",
"372 245 OFFCURVE",
"379 244 OFFCURVE",
"385 244 CURVE SMOOTH",
"400 244 OFFCURVE",
"415 250 OFFCURVE",
"428 253 CURVE",
"428 250 OFFCURVE",
"415 232 OFFCURVE",
"412 228 CURVE SMOOTH",
"386 190 OFFCURVE",
"357 118 OFFCURVE",
"357 55 CURVE SMOOTH",
"357 6 OFFCURVE",
"382 -49 OFFCURVE",
"425 -49 CURVE SMOOTH",
"462 -49 OFFCURVE",
"499 -10 OFFCURVE",
"518 21 CURVE SMOOTH",
"525 33 OFFCURVE",
"566 96 OFFCURVE",
"566 120 CURVE SMOOTH",
"566 125 OFFCURVE",
"565 128 OFFCURVE",
"562 128 CURVE SMOOTH",
"557 128 OFFCURVE",
"551 122 OFFCURVE",
"543 109 CURVE SMOOTH",
"528 84 OFFCURVE",
"463 -36 OFFCURVE",
"416 -36 CURVE SMOOTH",
"399 -36 OFFCURVE",
"377 -14 OFFCURVE",
"377 33 CURVE SMOOTH",
"377 99 OFFCURVE",
"424 182 OFFCURVE",
"453 225 CURVE SMOOTH",
"465 243 OFFCURVE",
"497 274 OFFCURVE",
"497 296 CURVE SMOOTH",
"497 305 OFFCURVE",
"491 315 OFFCURVE",
"480 315 CURVE SMOOTH",
"470 315 OFFCURVE",
"452 299 OFFCURVE",
"442 289 CURVE SMOOTH",
"435 283 OFFCURVE",
"399 252 OFFCURVE",
"385 252 CURVE SMOOTH",
"381 252 OFFCURVE",
"379 254 OFFCURVE",
"379 259 CURVE SMOOTH",
"379 262 OFFCURVE",
"379 265 OFFCURVE",
"381 270 CURVE SMOOTH"
);
}
);
width = 284;
}
);
note = k_r;
unicode = E01C;
},
{
glyphname = l_l;
layers = (
{
hints = (
{
horizontal = 1;
place = "{620, 25}";
type = Stem;
},
{
place = "{37, 33}";
type = Stem;
},
{
place = "{205, 33}";
type = Stem;
},
{
place = "{377, 42}";
type = Stem;
},
{
place = "{209, 42}";
type = Stem;
}
);
layerId = "197ECFA8-A16D-41AC-99D0-22A54F6A6421";
paths = (
{
closed = 1;
nodes = (
"35 284 LINE SMOOTH",
"35 135 OFFCURVE",
"63 -29 OFFCURVE",
"185 -16 CURVE",
"229 -8 OFFCURVE",
"276 25 OFFCURVE",
"306 71 CURVE",
"322 -5 OFFCURVE",
"349 -70 OFFCURVE",
"384 -111 CURVE SMOOTH",
"395 -125 OFFCURVE",
"413 -144 OFFCURVE",
"433 -140 CURVE SMOOTH",
"442 -139 OFFCURVE",
"442 -132 OFFCURVE",
"431 -131 CURVE SMOOTH",
"423 -130 OFFCURVE",
"417 -124 OFFCURVE",
"412 -120 CURVE SMOOTH",
"372 -85 OFFCURVE",
"344 56 OFFCURVE",
"337 106 CURVE SMOOTH",
"335 117 LINE",
"399 254 OFFCURVE",
"484 398 OFFCURVE",
"499 558 CURVE SMOOTH",
"510 680 OFFCURVE",
"439 689 OFFCURVE",
"376 619 CURVE SMOOTH",
"291 526 OFFCURVE",
"268 291 OFFCURVE",
"300 105 CURVE",
"211 -42 OFFCURVE",
"99 -31 OFFCURVE",
"80 143 CURVE SMOOTH",
"68 254 OFFCURVE",
"77 512 OFFCURVE",
"135 600 CURVE SMOOTH",
"179 667 OFFCURVE",
"216 647 OFFCURVE",
"209 549 CURVE SMOOTH",
"200 429 OFFCURVE",
"181 349 OFFCURVE",
"119 232 CURVE SMOOTH",
"108 210 OFFCURVE",
"112 187 OFFCURVE",
"124 210 CURVE SMOOTH",
"145 251 OFFCURVE",
"165 296 OFFCURVE",
"182 334 CURVE SMOOTH",
"323 658 OFFCURVE",
"217 720 OFFCURVE",
"126 619 CURVE SMOOTH",
"68 555 OFFCURVE",
"37 423 OFFCURVE",
"35 286 CURVE SMOOTH"
);
},
{
closed = 1;
nodes = (
"445 651 OFFCURVE",
"463 623 OFFCURVE",
"459 552 CURVE",
"445 456 OFFCURVE",
"387 262 OFFCURVE",
"329 162 CURVE",
"316 273 OFFCURVE",
"310 420 OFFCURVE",
"350 531 CURVE SMOOTH",
"363 567 OFFCURVE",
"384 614 OFFCURVE",
"417 634 CURVE SMOOTH"
);
}
);
width = 404;
}
);
note = l_l;
unicode = E008;
},
{
glyphname = l_t;
layers = (
{
hints = (
{
horizontal = 1;
place = "{718, 25}";
type = Stem;
},
{
place = "{51, 33}";
type = Stem;
},
{
place = "{223, 42}";
type = Stem;
},
{
horizontal = 1;
place = "{318, 239}";
type = Stem;
},
{
place = "{240, 26}";
type = Stem;
}
);
layerId = "197ECFA8-A16D-41AC-99D0-22A54F6A6421";
paths = (
{
closed = 1;
nodes = (
"215 509 OFFCURVE",
"196 429 OFFCURVE",
"134 312 CURVE SMOOTH",
"123 290 OFFCURVE",
"127 276 OFFCURVE",
"139 299 CURVE SMOOTH",
"160 340 OFFCURVE",
"180 376 OFFCURVE",
"197 414 CURVE SMOOTH",
"338 738 OFFCURVE",
"232 800 OFFCURVE",
"141 699 CURVE SMOOTH",
"16 561 OFFCURVE",
"8 181 OFFCURVE",
"132 37 CURVE SMOOTH",
"143 23 OFFCURVE",
"161 4 OFFCURVE",
"181 8 CURVE SMOOTH",
"190 9 OFFCURVE",
"190 16 OFFCURVE",
"179 17 CURVE SMOOTH",
"171 18 OFFCURVE",
"165 24 OFFCURVE",
"160 28 CURVE SMOOTH",
"120 63 OFFCURVE",
"109 136 OFFCURVE",
"102 186 CURVE SMOOTH",
"82 321 OFFCURVE",
"62 551 OFFCURVE",
"150 680 CURVE SMOOTH",
"195 746 OFFCURVE",
"231 727 OFFCURVE",
"224 629 CURVE SMOOTH"
);
},
{
closed = 1;
nodes = (
"400 555 OFFCURVE",
"337 424 OFFCURVE",
"325 394 CURVE SMOOTH",
"299 328 LINE",
"287 321 OFFCURVE",
"276 325 OFFCURVE",
"266 318 CURVE",
"247 318 OFFCURVE",
"184 298 OFFCURVE",
"204 266 CURVE SMOOTH",
"214 248 OFFCURVE",
"269 284 OFFCURVE",
"284 286 CURVE",
"276 264 OFFCURVE",
"266 224 OFFCURVE",
"259 192 CURVE SMOOTH",
"240 106 OFFCURVE",
"225 -24 OFFCURVE",
"267 -125 CURVE SMOOTH",
"274 -142 OFFCURVE",
"286 -167 OFFCURVE",
"304 -172 CURVE SMOOTH",
"313 -174 OFFCURVE",
"314 -168 OFFCURVE",
"305 -162 CURVE",
"298 -159 OFFCURVE",
"293 -151 OFFCURVE",
"290 -144 CURVE",
"263 -96 OFFCURVE",
"261 -13 OFFCURVE",
"266 36 CURVE SMOOTH",
"273 104 OFFCURVE",
"284 168 OFFCURVE",
"301 230 CURVE SMOOTH",
"313 271 OFFCURVE",
"310 287 OFFCURVE",
"343 297 CURVE SMOOTH",
"393 313 OFFCURVE",
"434 319 OFFCURVE",
"452 318 CURVE SMOOTH",
"486 316 OFFCURVE",
"474 326 OFFCURVE",
"460 331 CURVE SMOOTH",
"438 340 OFFCURVE",
"386 339 OFFCURVE",
"362 336 CURVE SMOOTH",
"360 336 OFFCURVE",
"343 333 OFFCURVE",
"342 333 CURVE",
"344 336 OFFCURVE",
"350 351 OFFCURVE",
"352 356 CURVE SMOOTH",
"371 399 OFFCURVE",
"399 437 OFFCURVE",
"424 477 CURVE SMOOTH",
"469 549 OFFCURVE",
"456 559 OFFCURVE",
"431 557 CURVE SMOOTH"
);
}
);
width = 402;
}
);
note = l_t;
unicode = E011;
},
{
glyphname = l_y;
layers = (
{
hints = (
{
horizontal = 1;
place = "{715, 25}";
type = Stem;
},
{
place = "{35, 33}";
type = Stem;
},
{
place = "{207, 42}";
type = Stem;
},
{
horizontal = 1;
place = "{-393, 21}";
type = Stem;
},
{
horizontal = 1;
place = "{-41, 14}";
type = Stem;
},
{
horizontal = 1;
place = "{278, 28}";
type = Stem;
},
{
place = "{116, 26}";
type = Stem;
},
{
place = "{279, 33}";
type = Stem;
}
);
layerId = "197ECFA8-A16D-41AC-99D0-22A54F6A6421";
paths = (
{
closed = 1;
nodes = (
"199 506 OFFCURVE",
"180 426 OFFCURVE",
"118 309 CURVE SMOOTH",
"107 287 OFFCURVE",
"111 273 OFFCURVE",
"123 296 CURVE SMOOTH",
"144 337 OFFCURVE",
"164 373 OFFCURVE",
"181 411 CURVE SMOOTH",
"322 735 OFFCURVE",
"216 797 OFFCURVE",
"125 696 CURVE SMOOTH",
"0 558 OFFCURVE",
"9 110 OFFCURVE",
"133 -34 CURVE SMOOTH",
"144 -48 OFFCURVE",
"162 -67 OFFCURVE",
"182 -63 CURVE SMOOTH",
"191 -62 OFFCURVE",
"191 -55 OFFCURVE",
"180 -54 CURVE SMOOTH",
"172 -53 OFFCURVE",
"166 -47 OFFCURVE",
"161 -43 CURVE SMOOTH",
"121 -8 OFFCURVE",
"93 133 OFFCURVE",
"86 183 CURVE SMOOTH",
"66 318 OFFCURVE",
"46 548 OFFCURVE",
"134 677 CURVE SMOOTH",
"179 743 OFFCURVE",
"215 724 OFFCURVE",
"208 626 CURVE SMOOTH"
);
},
{
closed = 1;
nodes = (
"556 -30 OFFCURVE",
"523 -32 OFFCURVE",
"490 -38 CURVE",
"500 75 OFFCURVE",
"484 251 OFFCURVE",
"455 320 CURVE SMOOTH",
"447 339 OFFCURVE",
"411 335 OFFCURVE",
"415 309 CURVE",
"418 301 OFFCURVE",
"421 292 OFFCURVE",
"424 283 CURVE",
"375 172 OFFCURVE",
"331 80 OFFCURVE",
"305 31 CURVE",
"320 120 OFFCURVE",
"315 306 OFFCURVE",
"242 306 CURVE SMOOTH",
"212 306 OFFCURVE",
"164 263 OFFCURVE",
"152 238 CURVE SMOOTH",
"151 235 OFFCURVE",
"149 231 OFFCURVE",
"155 231 CURVE SMOOTH",
"163 230 OFFCURVE",
"190 279 OFFCURVE",
"222 278 CURVE SMOOTH",
"299 275 OFFCURVE",
"273 42 OFFCURVE",
"280 -5 CURVE SMOOTH",
"287 -57 OFFCURVE",
"323 -25 OFFCURVE",
"324 -10 CURVE SMOOTH",
"328 48 OFFCURVE",
"375 132 OFFCURVE",
"429 264 CURVE",
"449 191 OFFCURVE",
"470 85 OFFCURVE",
"464 -43 CURVE",
"300 -78 OFFCURVE",
"191 -170 OFFCURVE",
"145 -238 CURVE SMOOTH",
"57 -366 OFFCURVE",
"184 -452 OFFCURVE",
"330 -345 CURVE SMOOTH",
"393 -298 OFFCURVE",
"459 -210 OFFCURVE",
"487 -56 CURVE",
"520 -48 OFFCURVE",
"553 -44 OFFCURVE",
"585 -41 CURVE SMOOTH",
"607 -39 OFFCURVE",
"614 -25 OFFCURVE",
"593 -27 CURVE SMOOTH"
);
},
{
closed = 1;
nodes = (
"446 -184 OFFCURVE",
"388 -281 OFFCURVE",
"282 -343 CURVE SMOOTH",
"158 -416 OFFCURVE",
"101 -340 OFFCURVE",
"175 -243 CURVE SMOOTH",
"240 -158 OFFCURVE",
"355 -90 OFFCURVE",
"462 -62 CURVE"
);
}
);
width = 510;
}
);
note = l_y;
unicode = E007;
},
{
glyphname = p_s;
layers = (
{
hints = (
{
horizontal = 1;
place = "{-326, 20}";
type = Stem;
},
{
horizontal = 1;
place = "{397, -20}";
target = down;
type = TopGhost;
},
{
place = "{-10, 13}";
type = Stem;
},
{
place = "{255, 15}";
type = Stem;
},
{
place = "{261, 31}";
type = Stem;
}
);
layerId = "197ECFA8-A16D-41AC-99D0-22A54F6A6421";
paths = (
{
closed = 1;
nodes = (
"107 349 OFFCURVE",
"99 335 OFFCURVE",
"90 320 CURVE SMOOTH",
"88 316 OFFCURVE",
"87 312 OFFCURVE",
"83 309 CURVE SMOOTH",
"75 304 OFFCURVE",
"68 300 OFFCURVE",
"60 296 CURVE SMOOTH",
"41 284 OFFCURVE",
"-2 259 OFFCURVE",
"-8 235 CURVE SMOOTH",
"-9 232 OFFCURVE",
"-8 228 OFFCURVE",
"-6 226 CURVE SMOOTH",
"-3 222 OFFCURVE",
"2 222 OFFCURVE",
"7 225 CURVE SMOOTH",
"15 229 OFFCURVE",
"20 238 OFFCURVE",
"26 244 CURVE SMOOTH",
"36 257 OFFCURVE",
"61 282 OFFCURVE",
"75 287 CURVE",
"75 286 OFFCURVE",
"75 285 OFFCURVE",
"75 284 CURVE",
"74 284 OFFCURVE",
"71 276 OFFCURVE",
"70 274 CURVE SMOOTH",
"42 192 OFFCURVE",
"16 108 OFFCURVE",
"4 18 CURVE SMOOTH",
"-7 -72 OFFCURVE",
"-25 -184 OFFCURVE",
"-2 -270 CURVE SMOOTH",
"4 -291 OFFCURVE",
"27 -336 OFFCURVE",
"55 -321 CURVE",
"55 -320 OFFCURVE",
"55 -319 OFFCURVE",
"55 -318 CURVE",
"55 -318 LINE",
"55 -317 OFFCURVE",
"51 -317 OFFCURVE",
"49 -317 CURVE SMOOTH",
"23 -319 OFFCURVE",
"16 -248 OFFCURVE",
"15 -227 CURVE SMOOTH",
"10 -111 OFFCURVE",
"30 75 OFFCURVE",
"77 176 CURVE SMOOTH",
"100 225 OFFCURVE",
"127 271 OFFCURVE",
"156 317 CURVE",
"161 320 OFFCURVE",
"167 320 OFFCURVE",
"173 321 CURVE SMOOTH",
"200 326 OFFCURVE",
"236 323 OFFCURVE",
"252 302 CURVE SMOOTH",
"292 249 OFFCURVE",
"199 162 OFFCURVE",
"162 130 CURVE SMOOTH",
"138 108 OFFCURVE",
"109 80 OFFCURVE",
"77 75 CURVE",
"77 107 OFFCURVE",
"151 164 OFFCURVE",
"176 185 CURVE SMOOTH",
"183 191 OFFCURVE",
"194 195 OFFCURVE",
"200 203 CURVE",
"202 203 OFFCURVE",
"200 206 OFFCURVE",
"199 207 CURVE",
"192 207 OFFCURVE",
"182 199 OFFCURVE",
"176 195 CURVE SMOOTH",
"141 173 OFFCURVE",
"93 146 OFFCURVE",
"69 109 CURVE SMOOTH",
"62 99 OFFCURVE",
"58 86 OFFCURVE",
"63 72 CURVE SMOOTH",
"66 62 OFFCURVE",
"74 56 OFFCURVE",
"85 56 CURVE SMOOTH",
"104 55 OFFCURVE",
"120 64 OFFCURVE",
"135 72 CURVE SMOOTH",
"183 97 OFFCURVE",
"234 145 OFFCURVE",
"259 194 CURVE",
"262 202 OFFCURVE",
"265 211 OFFCURVE",
"268 219 CURVE SMOOTH",
"277 243 OFFCURVE",
"281 270 OFFCURVE",
"270 293 CURVE SMOOTH",
"263 308 OFFCURVE",
"252 319 OFFCURVE",
"238 325 CURVE SMOOTH",
"223 332 OFFCURVE",
"192 339 OFFCURVE",
"173 333 CURVE",
"169 333 OFFCURVE",
"164 332 OFFCURVE",
"160 332 CURVE",
"160 332 OFFCURVE",
"160 332 OFFCURVE",
"160 333 CURVE",
"158 333 OFFCURVE",
"158 336 OFFCURVE",
"158 337 CURVE SMOOTH",
"155 351 OFFCURVE",
"137 354 OFFCURVE",
"125 355 CURVE"
);
},
{
closed = 1;
nodes = (
"344 -34 OFFCURVE",
"346 -38 OFFCURVE",
"346 -41 CURVE SMOOTH",
"348 -60 OFFCURVE",
"317 -90 OFFCURVE",
"312 -75 CURVE SMOOTH",
"309 -62 OFFCURVE",
"326 -45 OFFCURVE",
"344 -31 CURVE"
);
},
{
closed = 1;
nodes = (
"437 313 OFFCURVE",
"408 310 OFFCURVE",
"385 302 CURVE SMOOTH",
"318 280 OFFCURVE",
"257 222 OFFCURVE",
"262 143 CURVE SMOOTH",
"267 55 OFFCURVE",
"321 24 OFFCURVE",
"337 -19 CURVE",
"335 -20 OFFCURVE",
"311 -39 OFFCURVE",
"309 -41 CURVE",
"275 -62 OFFCURVE",
"276 -86 OFFCURVE",
"286 -96 CURVE SMOOTH",
"303 -116 OFFCURVE",
"350 -98 OFFCURVE",
"359 -72 CURVE",
"367 -56 OFFCURVE",
"364 -42 OFFCURVE",
"355 -24 CURVE",
"377 -10 OFFCURVE",
"394 -2 OFFCURVE",
"397 1 CURVE",
"410 7 OFFCURVE",
"416 20 OFFCURVE",
"394 13 CURVE SMOOTH",
"382 8 OFFCURVE",
"363 -3 OFFCURVE",
"347 -14 CURVE",
"323 29 OFFCURVE",
"278 78 OFFCURVE",
"292 142 CURVE SMOOTH",
"304 209 OFFCURVE",
"370 280 OFFCURVE",
"441 287 CURVE SMOOTH",
"457 289 OFFCURVE",
"478 291 OFFCURVE",
"489 280 CURVE SMOOTH",
"495 274 OFFCURVE",
"500 265 OFFCURVE",
"497 255 CURVE",
"495 251 OFFCURVE",
"489 225 OFFCURVE",
"499 227 CURVE SMOOTH",
"506 228 OFFCURVE",
"511 234 OFFCURVE",
"514 241 CURVE SMOOTH",
"531 275 OFFCURVE",
"499 303 OFFCURVE",
"462 308 CURVE SMOOTH"
);
}
);
width = 477;
}
);
note = p_s;
unicode = E00F;
},
{
glyphname = q_u;
layers = (
{
hints = (
{
horizontal = 1;
place = "{-383, 26}";
type = Stem;
},
{
horizontal = 1;
place = "{7, 20}";
type = Stem;
},
{
horizontal = 1;
place = "{7, 29}";
type = Stem;
},
{
horizontal = 1;
place = "{50, 18}";
type = Stem;
},
{
horizontal = 1;
place = "{421, -20}";
target = down;
type = TopGhost;
},
{
place = "{6, 34}";
type = Stem;
},
{
place = "{139, 30}";
type = Stem;
},
{
place = "{267, 38}";
type = Stem;
},
{
place = "{290, 40}";
type = Stem;
},
{
place = "{317, 20}";
type = Stem;
}
);
layerId = "197ECFA8-A16D-41AC-99D0-22A54F6A6421";
paths = (
{
closed = 1;
nodes = (
"322 -1 OFFCURVE",
"339 146 OFFCURVE",
"351 199 CURVE SMOOTH",
"364 260 OFFCURVE",
"379 369 OFFCURVE",
"372 421 CURVE SMOOTH",
"367 458 OFFCURVE",
"319 448 OFFCURVE",
"293 422 CURVE SMOOTH",
"257 386 OFFCURVE",
"222 327 OFFCURVE",
"211 304 CURVE",
"204 328 OFFCURVE",
"182 345 OFFCURVE",
"157 341 CURVE SMOOTH",
"71 324 OFFCURVE",
"-21 80 OFFCURVE",
"13 25 CURVE SMOOTH",
"52 -38 OFFCURVE",
"130 81 OFFCURVE",
"159 138 CURVE",
"123 -36 OFFCURVE",
"132 -240 OFFCURVE",
"201 -332 CURVE SMOOTH",
"282 -440 OFFCURVE",
"394 -388 OFFCURVE",
"281 -53 CURVE SMOOTH",
"268 -13 OFFCURVE",
"252 25 OFFCURVE",
"234 67 CURVE SMOOTH",
"224 91 OFFCURVE",
"218 78 OFFCURVE",
"228 54 CURVE SMOOTH",
"279 -67 OFFCURVE",
"291 -149 OFFCURVE",
"289 -269 CURVE SMOOTH",
"288 -368 OFFCURVE",
"251 -383 OFFCURVE",
"212 -313 CURVE SMOOTH",
"135 -178 OFFCURVE",
"176 50 OFFCURVE",
"207 183 CURVE SMOOTH",
"215 215 OFFCURVE",
"246 334 OFFCURVE",
"294 396 CURVE SMOOTH",
"312 419 OFFCURVE",
"356 458 OFFCURVE",
"354 396 CURVE SMOOTH",
"352 319 OFFCURVE",
"304 132 OFFCURVE",
"303 100 CURVE SMOOTH",
"301 -42 OFFCURVE",
"443 108 OFFCURVE",
"471 199 CURVE",
"475 173 OFFCURVE",
"463 112 OFFCURVE",
"490 68 CURVE SMOOTH",
"504 43 OFFCURVE",
"541 42 OFFCURVE",
"561 75 CURVE SMOOTH",
"577 98 OFFCURVE",
"563 107 OFFCURVE",
"551 93 CURVE SMOOTH",
"548 89 OFFCURVE",
"525 55 OFFCURVE",
"513 73 CURVE SMOOTH",
"488 112 OFFCURVE",
"526 233 OFFCURVE",
"518 262 CURVE SMOOTH",
"515 270 OFFCURVE",
"505 278 OFFCURVE",
"496 276 CURVE SMOOTH",
"490 275 OFFCURVE",
"485 271 OFFCURVE",
"482 266 CURVE",
"460 216 OFFCURVE",
"436 156 OFFCURVE",
"405 113 CURVE SMOOTH"
);
},
{
closed = 1;
nodes = (
"189 250 OFFCURVE",
"185 239 OFFCURVE",
"182 227 CURVE",
"160 179 OFFCURVE",
"137 120 OFFCURVE",
"107 79 CURVE SMOOTH",
"59 13 OFFCURVE",
"31 2 OFFCURVE",
"42 94 CURVE SMOOTH",
"48 144 OFFCURVE",
"82 304 OFFCURVE",
"152 302 CURVE SMOOTH",
"194 301 OFFCURVE",
"190 269 OFFCURVE",
"193 261 CURVE"
);
}
);
width = 541;
}
);
note = q_u;
unicode = E006;
},
{
glyphname = r_m;
layers = (
{
hints = (
{
horizontal = 1;
place = "{-49, 13}";
type = Stem;
},
{
horizontal = 1;
place = "{241, 148}";
type = Stem;
},
{
place = "{97, 19}";
type = Stem;
}
);
layerId = "197ECFA8-A16D-41AC-99D0-22A54F6A6421";
paths = (
{
closed = 1;
nodes = (
"720 321 OFFCURVE",
"640 291 OFFCURVE",
"619 274 CURVE SMOOTH",
"577 243 OFFCURVE",
"534 190 OFFCURVE",
"504 142 CURVE",
"523 204 OFFCURVE",
"557 287 OFFCURVE",
"560 297 CURVE SMOOTH",
"574 349 OFFCURVE",
"534 378 OFFCURVE",
"514 377 CURVE SMOOTH",
"436 371 OFFCURVE",
"410 295 OFFCURVE",
"390 224 CURVE SMOOTH",
"383 200 OFFCURVE",
"378 176 OFFCURVE",
"373 153 CURVE",
"364 191 OFFCURVE",
"349 330 OFFCURVE",
"310 343 CURVE",
"306 345 OFFCURVE",
"288 345 OFFCURVE",
"293 338 CURVE",
"312 328 OFFCURVE",
"317 305 OFFCURVE",
"321 286 CURVE SMOOTH",
"324 273 OFFCURVE",
"326 258 OFFCURVE",
"327 241 CURVE",
"310 163 OFFCURVE",
"246 49 OFFCURVE",
"209 19 CURVE SMOOTH",
"125 -51 OFFCURVE",
"108 47 OFFCURVE",
"133 108 CURVE SMOOTH",
"161 178 OFFCURVE",
"209 224 OFFCURVE",
"233 286 CURVE SMOOTH",
"238 298 OFFCURVE",
"232 319 OFFCURVE",
"215 314 CURVE",
"205 314 OFFCURVE",
"189 296 OFFCURVE",
"181 289 CURVE SMOOTH",
"167 276 OFFCURVE",
"150 263 OFFCURVE",
"132 256 CURVE",
"115 253 OFFCURVE",
"119 268 OFFCURVE",
"119 269 CURVE",
"125 287 OFFCURVE",
"192 386 OFFCURVE",
"145 389 CURVE SMOOTH",
"127 390 OFFCURVE",
"104 346 OFFCURVE",
"97 332 CURVE SMOOTH",
"91 316 OFFCURVE",
"85 297 OFFCURVE",
"87 278 CURVE SMOOTH",
"87 270 OFFCURVE",
"90 259 OFFCURVE",
"93 252 CURVE",
"84 223 OFFCURVE",
"71 198 OFFCURVE",
"57 171 CURVE SMOOTH",
"43 142 OFFCURVE",
"26 111 OFFCURVE",
"9 83 CURVE SMOOTH",
"-4 60 OFFCURVE",
"8 38 OFFCURVE",
"38 91 CURVE SMOOTH",
"53 115 OFFCURVE",
"70 158 OFFCURVE",
"82 184 CURVE SMOOTH",
"93 207 OFFCURVE",
"110 244 OFFCURVE",
"108 246 CURVE",
"129 234 OFFCURVE",
"147 248 OFFCURVE",
"167 252 CURVE",
"163 244 OFFCURVE",
"157 236 OFFCURVE",
"151 227 CURVE SMOOTH",
"110 158 OFFCURVE",
"66 36 OFFCURVE",
"123 -12 CURVE SMOOTH",
"195 -73 OFFCURVE",
"297 78 OFFCURVE",
"331 201 CURVE",
"334 155 OFFCURVE",
"335 106 OFFCURVE",
"339 73 CURVE SMOOTH",
"341 54 OFFCURVE",
"342 29 OFFCURVE",
"353 13 CURVE SMOOTH",
"360 3 OFFCURVE",
"374 3 OFFCURVE",
"385 10 CURVE SMOOTH",
"386 11 LINE SMOOTH",
"393 21 OFFCURVE",
"388 66 OFFCURVE",
"387 81 CURVE SMOOTH",
"377 208 OFFCURVE",
"470 379 OFFCURVE",
"504 339 CURVE SMOOTH",
"541 296 OFFCURVE",
"461 201 OFFCURVE",
"464 56 CURVE SMOOTH",
"464 44 OFFCURVE",
"463 18 OFFCURVE",
"478 15 CURVE SMOOTH",
"487 13 OFFCURVE",
"489 37 OFFCURVE",
"491 44 CURVE SMOOTH",
"503 85 OFFCURVE",
"534 173 OFFCURVE",
"581 219 CURVE SMOOTH",
"599 238 OFFCURVE",
"688 325 OFFCURVE",
"656 240 CURVE SMOOTH",
"630 172 OFFCURVE",
"485 -1 OFFCURVE",
"567 -64 CURVE SMOOTH",
"584 -77 OFFCURVE",
"611 -71 OFFCURVE",
"630 -57 CURVE SMOOTH",
"632 -55 OFFCURVE",
"643 -48 OFFCURVE",
"644 -43 CURVE",
"651 -26 OFFCURVE",
"633 -40 OFFCURVE",
"630 -43 CURVE SMOOTH",
"614 -55 OFFCURVE",
"583 -52 OFFCURVE",
"577 -16 CURVE SMOOTH",
"569 39 OFFCURVE",
"684 173 OFFCURVE",
"704 253 CURVE SMOOTH"
);
}
);
width = 695;
}
);
note = r_m;
unicode = E01A;
},
{
glyphname = s_s;
layers = (
{
hints = (
{
horizontal = 1;
place = "{383, -20}";
target = down;
type = TopGhost;
},
{
horizontal = 1;
place = "{397, -20}";
target = down;
type = TopGhost;
},
{
place = "{9, 31}";
type = Stem;
},
{
place = "{221, 31}";
type = Stem;
},
{
place = "{234, 31}";
type = Stem;
}
);
layerId = "197ECFA8-A16D-41AC-99D0-22A54F6A6421";
paths = (
{
closed = 1;
nodes = (
"178 41 OFFCURVE",
"179 38 OFFCURVE",
"181 35 CURVE SMOOTH",
"190 17 OFFCURVE",
"171 -22 OFFCURVE",
"163 -10 CURVE SMOOTH",
"154 2 OFFCURVE",
"164 24 OFFCURVE",
"176 43 CURVE"
);
},
{
closed = 1;
nodes = (
"136 398 OFFCURVE",
"108 385 OFFCURVE",
"89 368 CURVE SMOOTH",
"36 323 OFFCURVE",
"0 247 OFFCURVE",
"35 173 CURVE SMOOTH",
"72 95 OFFCURVE",
"134 86 OFFCURVE",
"166 52 CURVE",
"163 50 OFFCURVE",
"148 24 OFFCURVE",
"146 22 CURVE",
"123 -10 OFFCURVE",
"133 -32 OFFCURVE",
"145 -38 CURVE SMOOTH",
"169 -50 OFFCURVE",
"205 -16 OFFCURVE",
"206 12 CURVE SMOOTH",
"206 29 OFFCURVE",
"197 42 OFFCURVE",
"183 54 CURVE",
"198 75 OFFCURVE",
"210 90 OFFCURVE",
"213 93 CURVE SMOOTH",
"223 103 OFFCURVE",
"224 118 OFFCURVE",
"207 102 CURVE SMOOTH",
"196 93 OFFCURVE",
"183 76 OFFCURVE",
"173 61 CURVE",
"134 92 OFFCURVE",
"75 121 OFFCURVE",
"63 184 CURVE SMOOTH",
"49 250 OFFCURVE",
"85 342 OFFCURVE",
"147 375 CURVE SMOOTH",
"161 383 OFFCURVE",
"180 392 OFFCURVE",
"195 386 CURVE SMOOTH",
"202 383 OFFCURVE",
"210 376 OFFCURVE",
"211 367 CURVE SMOOTH",
"212 362 OFFCURVE",
"215 336 OFFCURVE",
"224 340 CURVE",
"230 344 OFFCURVE",
"231 352 OFFCURVE",
"232 358 CURVE SMOOTH",
"235 397 OFFCURVE",
"196 410 OFFCURVE",
"160 403 CURVE SMOOTH"
);
},
{
closed = 1;
nodes = (
"308 85 OFFCURVE",
"309 82 OFFCURVE",
"309 79 CURVE SMOOTH",
"311 59 OFFCURVE",
"278 31 OFFCURVE",
"275 45 CURVE SMOOTH",
"272 59 OFFCURVE",
"289 75 OFFCURVE",
"308 89 CURVE"
);
},
{
closed = 1;
nodes = (
"413 430 OFFCURVE",
"382 429 OFFCURVE",
"359 421 CURVE SMOOTH",
"292 400 OFFCURVE",
"228 345 OFFCURVE",
"231 264 CURVE SMOOTH",
"233 177 OFFCURVE",
"287 143 OFFCURVE",
"302 101 CURVE",
"299 100 OFFCURVE",
"275 82 OFFCURVE",
"272 80 CURVE SMOOTH",
"238 60 OFFCURVE",
"239 36 OFFCURVE",
"247 26 CURVE SMOOTH",
"265 6 OFFCURVE",
"311 22 OFFCURVE",
"323 47 CURVE SMOOTH",
"329 63 OFFCURVE",
"327 79 OFFCURVE",
"319 95 CURVE",
"341 109 OFFCURVE",
"358 117 OFFCURVE",
"362 119 CURVE SMOOTH",
"375 125 OFFCURVE",
"382 137 OFFCURVE",
"360 130 CURVE SMOOTH",
"346 126 OFFCURVE",
"328 116 OFFCURVE",
"312 106 CURVE",
"289 150 OFFCURVE",
"246 200 OFFCURVE",
"261 262 CURVE SMOOTH",
"274 328 OFFCURVE",
"344 398 OFFCURVE",
"414 404 CURVE SMOOTH",
"430 405 OFFCURVE",
"451 407 OFFCURVE",
"463 395 CURVE SMOOTH",
"468 389 OFFCURVE",
"473 379 OFFCURVE",
"469 371 CURVE",
"468 366 OFFCURVE",
"461 342 OFFCURVE",
"470 342 CURVE SMOOTH",
"478 343 OFFCURVE",
"482 349 OFFCURVE",
"485 355 CURVE SMOOTH",
"504 389 OFFCURVE",
"473 417 OFFCURVE",
"437 424 CURVE SMOOTH"
);
}
);
width = 391;
}
);
note = s_s;
unicode = E012;
},
{
glyphname = t_h;
layers = (
{
hints = (
{
horizontal = 1;
place = "{-94, 16}";
type = Stem;
},
{
horizontal = 1;
place = "{330, 239}";
type = Stem;
},
{
horizontal = 1;
place = "{656, -20}";
target = down;
type = TopGhost;
},
{
place = "{46, 26}";
type = Stem;
},
{
place = "{235, 22}";
type = Stem;
},
{
place = "{302, 29}";
type = Stem;
}
);
layerId = "197ECFA8-A16D-41AC-99D0-22A54F6A6421";
paths = (
{
closed = 1;
nodes = (
"230 360 OFFCURVE",
"201 355 OFFCURVE",
"168 348 CURVE",
"166 348 OFFCURVE",
"149 345 OFFCURVE",
"148 345 CURVE",
"150 348 OFFCURVE",
"156 363 OFFCURVE",
"158 368 CURVE SMOOTH",
"177 411 OFFCURVE",
"205 449 OFFCURVE",
"230 489 CURVE SMOOTH",
"275 561 OFFCURVE",
"262 571 OFFCURVE",
"237 569 CURVE SMOOTH",
"206 567 OFFCURVE",
"143 436 OFFCURVE",
"131 406 CURVE SMOOTH",
"105 340 LINE",
"78 328 OFFCURVE",
"-3 328 OFFCURVE",
"10 278 CURVE",
"20 260 OFFCURVE",
"75 296 OFFCURVE",
"90 298 CURVE",
"82 276 OFFCURVE",
"72 236 OFFCURVE",
"65 204 CURVE SMOOTH",
"46 118 OFFCURVE",
"31 -12 OFFCURVE",
"73 -113 CURVE SMOOTH",
"80 -130 OFFCURVE",
"92 -155 OFFCURVE",
"110 -160 CURVE SMOOTH",
"119 -162 OFFCURVE",
"120 -156 OFFCURVE",
"111 -150 CURVE",
"104 -147 OFFCURVE",
"99 -139 OFFCURVE",
"96 -132 CURVE",
"69 -84 OFFCURVE",
"67 -1 OFFCURVE",
"72 48 CURVE SMOOTH",
"79 116 OFFCURVE",
"90 180 OFFCURVE",
"107 242 CURVE SMOOTH",
"119 283 OFFCURVE",
"125 309 OFFCURVE",
"158 318 CURVE SMOOTH",
"186 326 OFFCURVE",
"241 347 OFFCURVE",
"256 352 CURVE",
"237 270 OFFCURVE",
"224 188 OFFCURVE",
"228 131 CURVE SMOOTH",
"229 119 OFFCURVE",
"239 101 OFFCURVE",
"253 99 CURVE SMOOTH",
"262 98 OFFCURVE",
"264 122 OFFCURVE",
"266 129 CURVE SMOOTH",
"274 170 OFFCURVE",
"312 236 OFFCURVE",
"355 284 CURVE SMOOTH",
"373 304 OFFCURVE",
"458 396 OFFCURVE",
"430 309 CURVE SMOOTH",
"408 240 OFFCURVE",
"242 -30 OFFCURVE",
"326 -88 CURVE SMOOTH",
"344 -100 OFFCURVE",
"371 -93 OFFCURVE",
"389 -78 CURVE SMOOTH",
"391 -76 OFFCURVE",
"401 -68 OFFCURVE",
"403 -63 CURVE SMOOTH",
"408 -46 OFFCURVE",
"392 -61 OFFCURVE",
"389 -64 CURVE SMOOTH",
"374 -77 OFFCURVE",
"344 -95 OFFCURVE",
"334 -40 CURVE SMOOTH",
"321 33 OFFCURVE",
"355 104 OFFCURVE",
"391 165 CURVE SMOOTH",
"428 227 OFFCURVE",
"471 285 OFFCURVE",
"477 324 CURVE SMOOTH",
"487 394 OFFCURVE",
"412 359 OFFCURVE",
"391 341 CURVE SMOOTH",
"347 304 OFFCURVE",
"301 240 OFFCURVE",
"274 186 CURVE SMOOTH",
"266 172 OFFCURVE",
"258 158 OFFCURVE",
"255 142 CURVE",
"254 142 LINE",
"253 144 OFFCURVE",
"257 176 OFFCURVE",
"257 178 CURVE SMOOTH",
"262 242 OFFCURVE",
"276 305 OFFCURVE",
"293 364 CURVE",
"331 380 OFFCURVE",
"368 401 OFFCURVE",
"405 425 CURVE SMOOTH",
"447 453 OFFCURVE",
"492 487 OFFCURVE",
"524 526 CURVE SMOOTH",
"556 566 OFFCURVE",
"588 606 OFFCURVE",
"598 657 CURVE SMOOTH",
"616 750 OFFCURVE",
"543 787 OFFCURVE",
"468 744 CURVE SMOOTH",
"348 675 OFFCURVE",
"288 474 OFFCURVE",
"262 373 CURVE"
);
},
{
closed = 1;
nodes = (
"364 556 OFFCURVE",
"382 593 OFFCURVE",
"410 640 CURVE SMOOTH",
"430 672 OFFCURVE",
"453 700 OFFCURVE",
"482 717 CURVE SMOOTH",
"578 776 OFFCURVE",
"583 681 OFFCURVE",
"580 661 CURVE SMOOTH",
"573 615 OFFCURVE",
"540 571 OFFCURVE",
"509 537 CURVE SMOOTH",
"451 472 OFFCURVE",
"379 421 OFFCURVE",
"300 386 CURVE",
"313 429 OFFCURVE",
"328 469 OFFCURVE",
"343 504 CURVE SMOOTH"
);
}
);
width = 451;
}
);
note = t_h;
unicode = E015;
},
{
glyphname = t_t;
layers = (
{
hints = (
{
horizontal = 1;
place = "{330, 239}";
type = Stem;
},
{
place = "{46, 26}";
type = Stem;
},
{
place = "{214, 26}";
type = Stem;
}
);
layerId = "197ECFA8-A16D-41AC-99D0-22A54F6A6421";
paths = (
{
closed = 1;
nodes = (
"421 605 OFFCURVE",
"358 474 OFFCURVE",
"346 444 CURVE SMOOTH",
"320 376 LINE",
"236 364 LINE SMOOTH",
"196 358 OFFCURVE",
"149 345 OFFCURVE",
"148 345 CURVE",
"150 348 OFFCURVE",
"156 363 OFFCURVE",
"158 368 CURVE SMOOTH",
"177 411 OFFCURVE",
"205 449 OFFCURVE",
"230 489 CURVE SMOOTH",
"275 561 OFFCURVE",
"262 571 OFFCURVE",
"237 569 CURVE SMOOTH",
"206 567 OFFCURVE",
"143 436 OFFCURVE",
"131 406 CURVE SMOOTH",
"105 340 LINE",
"96 338 OFFCURVE",
"84 333 OFFCURVE",
"72 330 CURVE SMOOTH",
"48 324 OFFCURVE",
"-10 310 OFFCURVE",
"10 278 CURVE SMOOTH",
"20 260 OFFCURVE",
"75 296 OFFCURVE",
"90 298 CURVE",
"82 276 OFFCURVE",
"72 236 OFFCURVE",
"65 204 CURVE SMOOTH",
"46 118 OFFCURVE",
"31 -12 OFFCURVE",
"73 -113 CURVE SMOOTH",
"80 -130 OFFCURVE",
"92 -155 OFFCURVE",
"110 -160 CURVE SMOOTH",
"119 -162 OFFCURVE",
"120 -156 OFFCURVE",
"111 -150 CURVE",
"104 -147 OFFCURVE",
"99 -139 OFFCURVE",
"96 -132 CURVE",
"69 -84 OFFCURVE",
"67 -1 OFFCURVE",
"72 48 CURVE SMOOTH",
"79 116 OFFCURVE",
"90 180 OFFCURVE",
"107 242 CURVE SMOOTH",
"119 283 OFFCURVE",
"116 299 OFFCURVE",
"149 309 CURVE SMOOTH",
"174 317 OFFCURVE",
"243 332 OFFCURVE",
"308 346 CURVE",
"299 320 OFFCURVE",
"286 270 OFFCURVE",
"280 242 CURVE SMOOTH",
"261 156 OFFCURVE",
"246 26 OFFCURVE",
"288 -75 CURVE SMOOTH",
"295 -92 OFFCURVE",
"307 -117 OFFCURVE",
"325 -122 CURVE SMOOTH",
"334 -124 OFFCURVE",
"335 -118 OFFCURVE",
"326 -112 CURVE",
"319 -109 OFFCURVE",
"314 -101 OFFCURVE",
"311 -94 CURVE",
"284 -46 OFFCURVE",
"282 37 OFFCURVE",
"287 86 CURVE SMOOTH",
"294 154 OFFCURVE",
"305 218 OFFCURVE",
"322 280 CURVE SMOOTH",
"334 321 OFFCURVE",
"331 337 OFFCURVE",
"364 347 CURVE SMOOTH",
"414 363 OFFCURVE",
"455 369 OFFCURVE",
"473 368 CURVE SMOOTH",
"507 366 OFFCURVE",
"495 376 OFFCURVE",
"481 381 CURVE SMOOTH",
"459 390 OFFCURVE",
"407 389 OFFCURVE",
"383 386 CURVE SMOOTH",
"381 386 OFFCURVE",
"364 383 OFFCURVE",
"363 383 CURVE",
"365 386 OFFCURVE",
"371 401 OFFCURVE",
"373 406 CURVE SMOOTH",
"392 449 OFFCURVE",
"420 487 OFFCURVE",
"445 527 CURVE SMOOTH",
"490 599 OFFCURVE",
"477 609 OFFCURVE",
"452 607 CURVE SMOOTH"
);
}
);
width = 365;
}
);
note = t_t;
unicode = E005;
},
{
glyphname = t_w;
layers = (
{
hints = (
{
horizontal = 1;
place = "{-23, 31}";
type = Stem;
},
{
horizontal = 1;
place = "{21, 27}";
type = Stem;
},
{
horizontal = 1;
place = "{330, 239}";
type = Stem;
},
{
place = "{46, 26}";
type = Stem;
},
{
place = "{211, 31}";
type = Stem;
}
);
layerId = "197ECFA8-A16D-41AC-99D0-22A54F6A6421";
paths = (
{
closed = 1;
nodes = (
"344 7 OFFCURVE",
"313 -26 OFFCURVE",
"302 71 CURVE SMOOTH",
"291 162 OFFCURVE",
"315 202 OFFCURVE",
"303 296 CURVE",
"304 370 OFFCURVE",
"220 353 OFFCURVE",
"168 348 CURVE SMOOTH",
"166 348 OFFCURVE",
"149 345 OFFCURVE",
"148 345 CURVE",
"150 348 OFFCURVE",
"156 363 OFFCURVE",
"158 368 CURVE SMOOTH",
"177 411 OFFCURVE",
"205 449 OFFCURVE",
"230 489 CURVE SMOOTH",
"275 561 OFFCURVE",
"262 571 OFFCURVE",
"237 569 CURVE SMOOTH",
"206 567 OFFCURVE",
"143 436 OFFCURVE",
"131 406 CURVE SMOOTH",
"105 340 LINE",
"93 333 OFFCURVE",
"82 337 OFFCURVE",
"72 330 CURVE",
"53 330 OFFCURVE",
"-10 310 OFFCURVE",
"10 278 CURVE SMOOTH",
"20 260 OFFCURVE",
"75 296 OFFCURVE",
"90 298 CURVE",
"82 276 OFFCURVE",
"72 236 OFFCURVE",
"65 204 CURVE SMOOTH",
"46 118 OFFCURVE",
"31 -12 OFFCURVE",
"73 -113 CURVE SMOOTH",
"80 -130 OFFCURVE",
"92 -155 OFFCURVE",
"110 -160 CURVE SMOOTH",
"119 -162 OFFCURVE",
"120 -156 OFFCURVE",
"111 -150 CURVE",
"104 -147 OFFCURVE",
"99 -139 OFFCURVE",
"96 -132 CURVE",
"69 -84 OFFCURVE",
"67 -1 OFFCURVE",
"72 48 CURVE SMOOTH",
"79 116 OFFCURVE",
"90 180 OFFCURVE",
"107 242 CURVE SMOOTH",
"119 283 OFFCURVE",
"116 299 OFFCURVE",
"149 309 CURVE SMOOTH",
"272 348 OFFCURVE",
"304 330 OFFCURVE",
"283 208 CURVE SMOOTH",
"278 178 OFFCURVE",
"264 90 OFFCURVE",
"270 36 CURVE SMOOTH",
"287 -106 OFFCURVE",
"405 40 OFFCURVE",
"420 132 CURVE",
"422 132 LINE",
"430 74 OFFCURVE",
"505 -39 OFFCURVE",
"533 61 CURVE SMOOTH",
"545 102 OFFCURVE",
"558 251 OFFCURVE",
"602 299 CURVE SMOOTH",
"612 311 OFFCURVE",
"625 317 OFFCURVE",
"640 313 CURVE SMOOTH",
"646 312 OFFCURVE",
"652 309 OFFCURVE",
"657 305 CURVE SMOOTH",
"667 296 OFFCURVE",
"666 316 OFFCURVE",
"662 320 CURVE SMOOTH",
"635 348 OFFCURVE",
"602 360 OFFCURVE",
"577 328 CURVE SMOOTH",
"538 278 OFFCURVE",
"536 144 OFFCURVE",
"515 81 CURVE SMOOTH",
"502 44 OFFCURVE",
"481 33 OFFCURVE",
"470 77 CURVE SMOOTH",
"460 120 OFFCURVE",
"473 181 OFFCURVE",
"462 204 CURVE SMOOTH",
"455 220 OFFCURVE",
"431 226 OFFCURVE",
"426 207 CURVE SMOOTH",
"411 157 OFFCURVE",
"395 96 OFFCURVE",
"370 52 CURVE SMOOTH"
);
}
);
width = 595;
}
);
note = t_w;
unicode = E00C;
},
{
glyphname = v_i;
layers = (
{
hints = (
{
horizontal = 1;
place = "{-24, 12}";
type = Stem;
},
{
horizontal = 1;
place = "{245, 28}";
type = Stem;
},
{
horizontal = 1;
place = "{403, -20}";
target = down;
type = TopGhost;
},
{
place = "{93, 28}";
type = Stem;
},
{
place = "{248, 29}";
type = Stem;
},
{
place = "{340, 56}";
type = Stem;
}
);
layerId = "197ECFA8-A16D-41AC-99D0-22A54F6A6421";
paths = (
{
closed = 1;
nodes = (
"127 102 OFFCURVE",
"123 270 OFFCURVE",
"57 273 CURVE SMOOTH",
"26 274 OFFCURVE",
"-22 230 OFFCURVE",
"-33 205 CURVE SMOOTH",
"-34 202 OFFCURVE",
"-36 198 OFFCURVE",
"-30 198 CURVE SMOOTH",
"-22 197 OFFCURVE",
"4 246 OFFCURVE",
"37 245 CURVE SMOOTH",
"114 242 OFFCURVE",
"88 9 OFFCURVE",
"94 -38 CURVE SMOOTH",
"102 -90 OFFCURVE",
"137 -58 OFFCURVE",
"139 -43 CURVE SMOOTH",
"143 21 OFFCURVE",
"244 306 OFFCURVE",
"376 395 CURVE",
"382 395 OFFCURVE",
"389 395 OFFCURVE",
"398 394 CURVE SMOOTH",
"411 393 OFFCURVE",
"423 393 OFFCURVE",
"438 407 CURVE SMOOTH",
"445 414 OFFCURVE",
"434 433 OFFCURVE",
"420 440 CURVE SMOOTH",
"408 447 OFFCURVE",
"391 435 OFFCURVE",
"389 433 CURVE",
"379 430 OFFCURVE",
"349 405 OFFCURVE",
"340 393 CURVE",
"250 309 OFFCURVE",
"139 78 OFFCURVE",
"117 17 CURVE"
);
},
{
closed = 1;
nodes = (
"484 131 OFFCURVE",
"478 151 OFFCURVE",
"459 112 CURVE SMOOTH",
"407 5 OFFCURVE",
"318 -80 OFFCURVE",
"315 24 CURVE SMOOTH",
"313 96 OFFCURVE",
"329 131 OFFCURVE",
"358 189 CURVE SMOOTH",
"369 211 OFFCURVE",
"383 231 OFFCURVE",
"388 257 CURVE SMOOTH",
"390 268 OFFCURVE",
"390 281 OFFCURVE",
"381 288 CURVE SMOOTH",
"370 295 OFFCURVE",
"356 288 OFFCURVE",
"350 279 CURVE SMOOTH",
"340 265 OFFCURVE",
"332 250 OFFCURVE",
"325 235 CURVE SMOOTH",
"308 194 OFFCURVE",
"254 13 OFFCURVE",
"313 -26 CURVE SMOOTH",
"328 -36 OFFCURVE",
"357 -43 OFFCURVE",
"391 -18 CURVE SMOOTH",
"436 17 OFFCURVE",
"459 59 OFFCURVE",
"478 114 CURVE SMOOTH"
);
}
);
width = 390;
}
);
note = v_i;
unicode = E010;
},
{
glyphname = v_v;
layers = (
{
hints = (
{
horizontal = 1;
place = "{245, 28}";
type = Stem;
},
{
place = "{93, 28}";
type = Stem;
}
);
layerId = "197ECFA8-A16D-41AC-99D0-22A54F6A6421";
paths = (
{
closed = 1;
nodes = (
"581 264 OFFCURVE",
"573 284 OFFCURVE",
"544 259 CURVE SMOOTH",
"481 203 OFFCURVE",
"435 103 OFFCURVE",
"411 36 CURVE",
"421 121 OFFCURVE",
"409 252 OFFCURVE",
"344 263 CURVE SMOOTH",
"326 266 OFFCURVE",
"309 239 OFFCURVE",
"324 235 CURVE SMOOTH",
"399 215 OFFCURVE",
"382 28 OFFCURVE",
"388 -19 CURVE SMOOTH",
"396 -71 OFFCURVE",
"431 -39 OFFCURVE",
"433 -24 CURVE SMOOTH",
"436 30 OFFCURVE",
"451 112 OFFCURVE",
"513 195 CURVE SMOOTH",
"525 211 OFFCURVE",
"539 226 OFFCURVE",
"554 240 CURVE SMOOTH"
);
},
{
closed = 1;
nodes = (
"379 346 OFFCURVE",
"371 366 OFFCURVE",
"342 341 CURVE SMOOTH",
"279 285 OFFCURVE",
"181 84 OFFCURVE",
"157 17 CURVE",
"167 102 OFFCURVE",
"163 270 OFFCURVE",
"97 273 CURVE SMOOTH",
"66 274 OFFCURVE",
"18 230 OFFCURVE",
"7 205 CURVE SMOOTH",
"6 202 OFFCURVE",
"4 198 OFFCURVE",
"10 198 CURVE SMOOTH",
"18 197 OFFCURVE",
"44 246 OFFCURVE",
"77 245 CURVE SMOOTH",
"154 242 OFFCURVE",
"128 9 OFFCURVE",
"134 -38 CURVE SMOOTH",
"142 -90 OFFCURVE",
"177 -58 OFFCURVE",
"179 -43 CURVE SMOOTH",
"182 11 OFFCURVE",
"204 122 OFFCURVE",
"266 205 CURVE SMOOTH",
"278 221 OFFCURVE",
"337 308 OFFCURVE",
"352 322 CURVE SMOOTH"
);
}
);
width = 513;
}
);
note = v_v;
unicode = E00A;
},
{
glyphname = ordfeminine;
lastChange = "2021-09-13 17:33:32 +0000";
layers = (
{
hints = (
{
horizontal = 1;
place = "{319, 28}";
type = Stem;
},
{
horizontal = 1;
place = "{359, 15}";
type = Stem;
},
{
place = "{46, 35}";
type = Stem;
},
{
horizontal = 1;
place = "{363.8, 23.8}";
type = Stem;
},
{
horizontal = 1;
place = "{397.8, 12.75}";
type = Stem;
},
{
place = "{45.95, 29.75}";
type = Stem;
}
);
layerId = "197ECFA8-A16D-41AC-99D0-22A54F6A6421";
paths = (
{
closed = 1;
nodes = (
"286 442 OFFCURVE",
"266 450 OFFCURVE",
"258 435 CURVE SMOOTH",
"220 372 OFFCURVE",
"219 456 OFFCURVE",
"224 489 CURVE SMOOTH",
"225 495 OFFCURVE",
"226 501 OFFCURVE",
"227 507 CURVE SMOOTH",
"229 526 OFFCURVE",
"232 542 OFFCURVE",
"229 551 CURVE SMOOTH",
"224 567 OFFCURVE",
"206 568 OFFCURVE",
"196 555 CURVE",
"178 512 OFFCURVE",
"157 461 OFFCURVE",
"132 425 CURVE SMOOTH",
"96 376 OFFCURVE",
"70 371 OFFCURVE",
"78 437 CURVE SMOOTH",
"81 461 OFFCURVE",
"90 511 OFFCURVE",
"109 552 CURVE SMOOTH",
"131 603 OFFCURVE",
"176 648 OFFCURVE",
"206 578 CURVE SMOOTH",
"213 562 OFFCURVE",
"230 585 OFFCURVE",
"223 614 CURVE SMOOTH",
"217 636 OFFCURVE",
"196 652 OFFCURVE",
"175 648 CURVE SMOOTH",
"101 633 OFFCURVE",
"22 425 OFFCURVE",
"51 378 CURVE SMOOTH",
"90 315 OFFCURVE",
"174 462 OFFCURVE",
"187 496 CURVE",
"185 496 LINE",
"185 494 OFFCURVE",
"185 491 OFFCURVE",
"185 488 CURVE SMOOTH",
"185 472 OFFCURVE",
"185 445 OFFCURVE",
"201 414 CURVE SMOOTH",
"215 387 OFFCURVE",
"254 393 OFFCURVE",
"272 420 CURVE SMOOTH"
);
}
);
width = 248;
}
);
note = ordfeminine;
unicode = 00AA;
},
{
glyphname = ordmasculine;
lastChange = "2021-09-13 17:34:44 +0000";
layers = (
{
hints = (
{
horizontal = 1;
place = "{245, 23}";
type = Stem;
},
{
horizontal = 1;
place = "{364, 230}";
type = Stem;
},
{
horizontal = 1;
place = "{657, 25}";
type = Stem;
},
{
place = "{53, 26}";
type = Stem;
},
{
place = "{244, 34}";
type = Stem;
},
{
horizontal = 1;
place = "{322.75, 17.25}";
type = Stem;
},
{
horizontal = 1;
place = "{412, 172.5}";
type = Stem;
},
{
horizontal = 1;
place = "{631.75, 18.75}";
type = Stem;
},
{
place = "{64.75, 19.5}";
type = Stem;
},
{
place = "{208, 25.5}";
type = Stem;
}
);
layerId = "197ECFA8-A16D-41AC-99D0-22A54F6A6421";
paths = (
{
closed = 1;
nodes = (
"204 664 OFFCURVE",
"176 688 OFFCURVE",
"147 688 CURVE SMOOTH",
"75 688 OFFCURVE",
"55 566 OFFCURVE",
"62 515 CURVE SMOOTH",
"62 513 OFFCURVE",
"61 512 OFFCURVE",
"60 508 CURVE SMOOTH",
"57 495 OFFCURVE",
"52 476 OFFCURVE",
"53 457 CURVE SMOOTH",
"56 404 OFFCURVE",
"73 371 OFFCURVE",
"105 360 CURVE SMOOTH",
"146 344 OFFCURVE",
"188 373 OFFCURVE",
"216 438 CURVE SMOOTH",
"239 492 OFFCURVE",
"248 567 OFFCURVE",
"222 623 CURVE SMOOTH"
);
},
{
closed = 1;
nodes = (
"213 544 OFFCURVE",
"206 461 OFFCURVE",
"175 411 CURVE SMOOTH",
"134 342 OFFCURVE",
"80 382 OFFCURVE",
"86 477 CURVE",
"113 447 OFFCURVE",
"148 437 OFFCURVE",
"176 452 CURVE SMOOTH",
"188 458 OFFCURVE",
"193 463 OFFCURVE",
"184 466 CURVE",
"182 466 LINE",
"119 446 OFFCURVE",
"93 486 OFFCURVE",
"91 503 CURVE SMOOTH",
"90 508 OFFCURVE",
"92 514 OFFCURVE",
"94 519 CURVE",
"94 520 OFFCURVE",
"94 520 OFFCURVE",
"94 520 CURVE",
"95 521 OFFCURVE",
"95 521 OFFCURVE",
"95 522 CURVE SMOOTH",
"105 565 OFFCURVE",
"132 613 OFFCURVE",
"149 611 CURVE",
"151 613 LINE",
"151 617 OFFCURVE",
"150 619 OFFCURVE",
"146 620 CURVE",
"125 632 OFFCURVE",
"91 582 OFFCURVE",
"84 565 CURVE",
"90 565 LINE",
"82 589 OFFCURVE",
"106 660 OFFCURVE",
"144 664 CURVE SMOOTH",
"171 667 OFFCURVE",
"185 645 OFFCURVE",
"192 620 CURVE SMOOTH"
);
}
);
width = 272;
}
);
note = ordmasculine;
unicode = 00BA;
},
{
glyphname = pi;
layers = (
{
hints = (
{
horizontal = 1;
place = "{0, 21}";
target = up;
type = BottomGhost;
},
{
horizontal = 1;
place = "{406, 34}";
type = Stem;
},
{
place = "{142, 42}";
type = Stem;
},
{
place = "{396, 42}";
type = Stem;
}
);
layerId = "197ECFA8-A16D-41AC-99D0-22A54F6A6421";
paths = (
{
closed = 1;
nodes = (
"533 406 LINE",
"538 440 LINE",
"370 443 OFFCURVE",
"53 441 OFFCURVE",
"16 419 CURVE",
"25 392 LINE",
"46 400 OFFCURVE",
"75 406 OFFCURVE",
"148 406 CURVE",
"137 281 OFFCURVE",
"97 86 OFFCURVE",
"55 0 CURVE",
"97 0 LINE",
"137 74 OFFCURVE",
"179 287 OFFCURVE",
"190 406 CURVE",
"402 406 LINE",
"388 42 OFFCURVE",
"396 12 OFFCURVE",
"404 0 CURVE",
"445 0 LINE",
"427 100 OFFCURVE",
"435 325 OFFCURVE",
"444 406 CURVE"
);
}
);
width = 552;
}
);
note = pi;
unicode = 03C0;
},
{
glyphname = zero;
layers = (
{
hints = (
{
horizontal = 1;
place = "{31, 35}";
type = Stem;
},
{
horizontal = 1;
place = "{153, 12}";
type = Stem;
},
{
horizontal = 1;
place = "{485, 10}";
type = Stem;
},
{
horizontal = 1;
place = "{517, 18}";
type = Stem;
},
{
place = "{41, 26}";
type = Stem;
},
{
place = "{509, 10}";
type = Stem;
}
);
layerId = "197ECFA8-A16D-41AC-99D0-22A54F6A6421";
paths = (
{
closed = 1;
nodes = (
"518 371 OFFCURVE",
"518 384 OFFCURVE",
"516 398 CURVE SMOOTH",
"504 485 OFFCURVE",
"421 535 OFFCURVE",
"339 535 CURVE SMOOTH",
"249 535 OFFCURVE",
"153 504 OFFCURVE",
"90 437 CURVE SMOOTH",
"57 402 OFFCURVE",
"41 371 OFFCURVE",
"41 323 CURVE SMOOTH",
"41 298 OFFCURVE",
"45 273 OFFCURVE",
"55 251 CURVE",
"48 227 OFFCURVE",
"45 203 OFFCURVE",
"45 178 CURVE SMOOTH",
"45 85 OFFCURVE",
"103 31 OFFCURVE",
"195 31 CURVE SMOOTH",
"230 31 OFFCURVE",
"265 38 OFFCURVE",
"298 51 CURVE SMOOTH",
"425 100 OFFCURVE",
"518 218 OFFCURVE",
"518 357 CURVE SMOOTH"
);
},
{
closed = 1;
nodes = (
"508 247 OFFCURVE",
"405 146 OFFCURVE",
"301 97 CURVE SMOOTH",
"263 79 OFFCURVE",
"220 66 OFFCURVE",
"178 66 CURVE SMOOTH",
"106 66 OFFCURVE",
"59 103 OFFCURVE",
"59 177 CURVE SMOOTH",
"59 192 OFFCURVE",
"67 210 OFFCURVE",
"72 224 CURVE",
"95 191 OFFCURVE",
"162 142 OFFCURVE",
"249 156 CURVE SMOOTH",
"265 158 OFFCURVE",
"261 165 OFFCURVE",
"250 165 CURVE SMOOTH",
"183 160 OFFCURVE",
"101 206 OFFCURVE",
"80 248 CURVE",
"120 338 OFFCURVE",
"265 484 OFFCURVE",
"376 484 CURVE SMOOTH",
"399 484 OFFCURVE",
"401 495 OFFCURVE",
"378 495 CURVE SMOOTH",
"242 495 OFFCURVE",
"117 379 OFFCURVE",
"69 289 CURVE",
"63 302 OFFCURVE",
"71 349 OFFCURVE",
"83 374 CURVE SMOOTH",
"130 470 OFFCURVE",
"235 517 OFFCURVE",
"339 517 CURVE SMOOTH",
"412 517 OFFCURVE",
"497 472 OFFCURVE",
"506 396 CURVE SMOOTH",
"507 386 OFFCURVE",
"508 377 OFFCURVE",
"508 367 CURVE SMOOTH"
);
}
);
width = 557;
}
);
note = zero;
unicode = 0030;
},
{
glyphname = one;
lastChange = "2021-09-13 16:17:12 +0000";
layers = (
{
hints = (
{
place = "{143, 34}";
type = Stem;
}
);
layerId = "197ECFA8-A16D-41AC-99D0-22A54F6A6421";
paths = (
{
closed = 1;
nodes = (
"42 -15 OFFCURVE",
"58 -47 OFFCURVE",
"66 -44 CURVE SMOOTH",
"96 -32 OFFCURVE",
"129 -13 OFFCURVE",
"162 6 CURVE",
"170 -2 OFFCURVE",
"181 -2 OFFCURVE",
"194 3 CURVE SMOOTH",
"201 5 OFFCURVE",
"197 13 OFFCURVE",
"192 23 CURVE",
"225 42 OFFCURVE",
"257 58 OFFCURVE",
"289 67 CURVE SMOOTH",
"297 69 OFFCURVE",
"294 82 OFFCURVE",
"285 79 CURVE SMOOTH",
"251 70 OFFCURVE",
"217 57 OFFCURVE",
"184 44 CURVE",
"184 46 LINE",
"166 144 OFFCURVE",
"181 336 OFFCURVE",
"250 489 CURVE SMOOTH",
"256 503 OFFCURVE",
"246 531 OFFCURVE",
"227 524 CURVE SMOOTH",
"209 517 OFFCURVE",
"194 478 OFFCURVE",
"186 463 CURVE SMOOTH",
"154 402 OFFCURVE",
"132 357 OFFCURVE",
"103 300 CURVE SMOOTH",
"100 295 OFFCURVE",
"97 281 OFFCURVE",
"109 286 CURVE SMOOTH",
"117 289 OFFCURVE",
"146 346 OFFCURVE",
"151 355 CURVE SMOOTH",
"168 387 OFFCURVE",
"188 411 OFFCURVE",
"196 418 CURVE",
"195 415 OFFCURVE",
"195 411 OFFCURVE",
"194 407 CURVE SMOOTH",
"188 378 OFFCURVE",
"183 349 OFFCURVE",
"177 321 CURVE SMOOTH",
"163 246 OFFCURVE",
"127 116 OFFCURVE",
"151 30 CURVE",
"117 16 OFFCURVE",
"84 1 OFFCURVE",
"50 -12 CURVE SMOOTH"
);
}
);
width = 336;
}
);
note = one;
unicode = 0031;
},
{
glyphname = two;
lastChange = "2021-09-13 16:16:57 +0000";
layers = (
{
hints = (
{
horizontal = 1;
place = "{-68, 20}";
type = Stem;
},
{
horizontal = 1;
place = "{419, 15}";
type = Stem;
},
{
place = "{529, 11}";
type = Stem;
}
);
layerId = "197ECFA8-A16D-41AC-99D0-22A54F6A6421";
paths = (
{
closed = 1;
nodes = (
"84 -14 OFFCURVE",
"122 9 OFFCURVE",
"148 27 CURVE",
"226 16 OFFCURVE",
"316 -22 OFFCURVE",
"424 0 CURVE SMOOTH",
"591 35 OFFCURVE",
"563 178 OFFCURVE",
"434 175 CURVE SMOOTH",
"425 175 OFFCURVE",
"421 168 OFFCURVE",
"430 168 CURVE SMOOTH",
"501 168 OFFCURVE",
"595 91 OFFCURVE",
"461 48 CURVE SMOOTH",
"403 28 OFFCURVE",
"272 42 OFFCURVE",
"171 43 CURVE",
"267 111 OFFCURVE",
"497 296 OFFCURVE",
"482 419 CURVE SMOOTH",
"475 481 OFFCURVE",
"413 489 OFFCURVE",
"363 478 CURVE SMOOTH",
"298 464 OFFCURVE",
"163 388 OFFCURVE",
"172 304 CURVE SMOOTH",
"173 296 OFFCURVE",
"183 263 OFFCURVE",
"193 266 CURVE SMOOTH",
"198 267 OFFCURVE",
"189 290 OFFCURVE",
"188 294 CURVE",
"180 365 OFFCURVE",
"270 443 OFFCURVE",
"362 465 CURVE SMOOTH",
"396 473 OFFCURVE",
"433 462 OFFCURVE",
"437 425 CURVE SMOOTH",
"444 363 OFFCURVE",
"383 278 OFFCURVE",
"342 231 CURVE SMOOTH",
"323 210 OFFCURVE",
"302 191 OFFCURVE",
"282 171 CURVE SMOOTH",
"237 129 OFFCURVE",
"191 88 OFFCURVE",
"142 50 CURVE",
"116 53 OFFCURVE",
"87 54 OFFCURVE",
"60 48 CURVE SMOOTH",
"40 44 OFFCURVE",
"9 29 OFFCURVE",
"12 1 CURVE SMOOTH",
"15 -23 OFFCURVE",
"36 -24 OFFCURVE",
"54 -20 CURVE SMOOTH"
);
},
{
closed = 1;
nodes = (
"104 23 OFFCURVE",
"96 14 OFFCURVE",
"86 7 CURVE SMOOTH",
"24 -38 OFFCURVE",
"8 15 OFFCURVE",
"63 27 CURVE SMOOTH",
"79 30 OFFCURVE",
"96 29 OFFCURVE",
"113 29 CURVE"
);
}
);
width = 599;
}
);
note = two;
unicode = 0032;
},
{
glyphname = three;
layers = (
{
hints = (
{
horizontal = 1;
place = "{-82, 15}";
type = Stem;
},
{
horizontal = 1;
place = "{279, 32}";
type = Stem;
},
{
horizontal = 1;
place = "{486, 17}";
type = Stem;
},
{
place = "{33, 30}";
type = Stem;
},
{
place = "{143, 28}";
type = Stem;
},
{
place = "{475, 45}";
type = Stem;
}
);
layerId = "197ECFA8-A16D-41AC-99D0-22A54F6A6421";
paths = (
{
closed = 1;
nodes = (
"431 526 OFFCURVE",
"323 500 OFFCURVE",
"279 482 CURVE SMOOTH",
"243 467 OFFCURVE",
"126 401 OFFCURVE",
"145 347 CURVE SMOOTH",
"155 317 OFFCURVE",
"180 327 OFFCURVE",
"173 347 CURVE SMOOTH",
"160 384 OFFCURVE",
"213 435 OFFCURVE",
"285 464 CURVE SMOOTH",
"346 488 OFFCURVE",
"415 498 OFFCURVE",
"425 469 CURVE SMOOTH",
"428 461 OFFCURVE",
"427 454 OFFCURVE",
"425 446 CURVE SMOOTH",
"415 395 OFFCURVE",
"339 335 OFFCURVE",
"298 308 CURVE SMOOTH",
"281 297 OFFCURVE",
"262 288 OFFCURVE",
"246 277 CURVE SMOOTH",
"239 272 OFFCURVE",
"233 264 OFFCURVE",
"236 254 CURVE SMOOTH",
"238 248 OFFCURVE",
"245 245 OFFCURVE",
"251 247 CURVE SMOOTH",
"310 271 OFFCURVE",
"442 311 OFFCURVE",
"470 231 CURVE SMOOTH",
"507 123 OFFCURVE",
"354 -5 OFFCURVE",
"238 -51 CURVE SMOOTH",
"180 -74 OFFCURVE",
"90 -83 OFFCURVE",
"65 -10 CURVE SMOOTH",
"51 31 OFFCURVE",
"101 64 OFFCURVE",
"135 78 CURVE SMOOTH",
"150 84 OFFCURVE",
"154 95 OFFCURVE",
"126 90 CURVE SMOOTH",
"83 82 OFFCURVE",
"17 30 OFFCURVE",
"37 -28 CURVE SMOOTH",
"67 -115 OFFCURVE",
"204 -77 OFFCURVE",
"263 -53 CURVE SMOOTH",
"368 -10 OFFCURVE",
"559 118 OFFCURVE",
"513 250 CURVE SMOOTH",
"489 320 OFFCURVE",
"402 316 OFFCURVE",
"340 304 CURVE",
"392 337 OFFCURVE",
"474 401 OFFCURVE",
"451 466 CURVE SMOOTH"
);
}
);
width = 603;
}
);
note = three;
unicode = 0033;
},
{
glyphname = four;
layers = (
{
hints = (
{
horizontal = 1;
place = "{173, 16}";
type = Stem;
},
{
place = "{563, 21}";
type = Stem;
}
);
layerId = "197ECFA8-A16D-41AC-99D0-22A54F6A6421";
paths = (
{
closed = 1;
nodes = (
"383 374 OFFCURVE",
"347 298 OFFCURVE",
"318 227 CURVE",
"256 224 OFFCURVE",
"195 223 OFFCURVE",
"162 224 CURVE",
"246 274 OFFCURVE",
"337 357 OFFCURVE",
"415 441 CURVE"
);
},
{
closed = 1;
nodes = (
"377 87 OFFCURVE",
"333 78 OFFCURVE",
"289 68 CURVE",
"295 102 OFFCURVE",
"313 145 OFFCURVE",
"334 191 CURVE",
"385 191 OFFCURVE",
"433 195 OFFCURVE",
"467 205 CURVE SMOOTH",
"633 257 OFFCURVE",
"608 394 OFFCURVE",
"481 378 CURVE SMOOTH",
"472 377 OFFCURVE",
"468 370 OFFCURVE",
"476 371 CURVE SMOOTH",
"547 378 OFFCURVE",
"622 296 OFFCURVE",
"489 240 CURVE SMOOTH",
"459 227 OFFCURVE",
"415 235 OFFCURVE",
"352 230 CURVE",
"386 300 OFFCURVE",
"426 371 OFFCURVE",
"448 417 CURVE SMOOTH",
"451 423 OFFCURVE",
"460 426 OFFCURVE",
"463 432 CURVE SMOOTH",
"488 482 OFFCURVE",
"523 569 OFFCURVE",
"533 588 CURVE SMOOTH",
"543 608 OFFCURVE",
"493 595 OFFCURVE",
"483 576 CURVE",
"395 470 OFFCURVE",
"277 301 OFFCURVE",
"141 226 CURVE",
"118 226 OFFCURVE",
"93 226 OFFCURVE",
"69 221 CURVE SMOOTH",
"57 219 OFFCURVE",
"21 208 OFFCURVE",
"20 191 CURVE SMOOTH",
"19 149 OFFCURVE",
"107 193 OFFCURVE",
"126 202 CURVE",
"169 198 OFFCURVE",
"237 192 OFFCURVE",
"304 191 CURVE",
"285 141 OFFCURVE",
"271 96 OFFCURVE",
"265 62 CURVE",
"233 55 OFFCURVE",
"201 47 OFFCURVE",
"170 41 CURVE SMOOTH",
"161 40 OFFCURVE",
"163 4 OFFCURVE",
"172 6 CURVE SMOOTH",
"244 20 OFFCURVE",
"344 71 OFFCURVE",
"420 78 CURVE SMOOTH",
"429 79 OFFCURVE",
"430 92 OFFCURVE",
"422 91 CURVE SMOOTH"
);
},
{
closed = 1;
nodes = (
"93 200 OFFCURVE",
"77 194 OFFCURVE",
"66 192 CURVE SMOOTH",
"3 179 OFFCURVE",
"42 210 OFFCURVE",
"66 210 CURVE SMOOTH",
"76 211 OFFCURVE",
"96 210 OFFCURVE",
"108 207 CURVE"
);
}
);
width = 565;
}
);
note = four;
unicode = 0034;
},
